SplineFontDB: 3.0
FontName: Helvetica-Medium
FullName: Helvetica
FamilyName: Helvetica
Weight: Medium
Copyright: 
Version: 0.90
ItalicAngle: 0
UnderlinePosition: -100
UnderlineWidth: 50
Ascent: 1638
Descent: 410
InvalidEm: 0
sfntRevision: 0x0000e666
LayerCount: 2
Layer: 0 1 "Back" 1
Layer: 1 1 "Fore" 0
XUID: [1021 33 724386662 4882408]
StyleMap: 0x0040
FSType: 4
OS2Version: 3
OS2_WeightWidthSlopeOnly: 0
OS2_UseTypoMetrics: 0
CreationTime: 1141363581
ModificationTime: 1480723074
PfmFamily: 33
TTFWeight: 400
TTFWidth: 5
LineGap: 56
VLineGap: 0
Panose: 2 11 6 4 2 2 2 2 2 4
OS2TypoAscent: 1470
OS2TypoAOffset: 0
OS2TypoDescent: -424
OS2TypoDOffset: 0
OS2TypoLinegap: 111
OS2WinAscent: 1937
OS2WinAOffset: 0
OS2WinDescent: 461
OS2WinDOffset: 0
HheadAscent: 1937
HheadAOffset: 0
HheadDescent: -461
HheadDOffset: 0
OS2SubXSize: 419
OS2SubYSize: 419
OS2SubXOff: 0
OS2SubYOff: 587
OS2SupXSize: 419
OS2SupYSize: 419
OS2SupXOff: 0
OS2SupYOff: 587
OS2StrikeYSize: 102
OS2StrikeYPos: 512
OS2CapHeight: 1470
OS2XHeight: 1071
OS2FamilyClass: 2048
OS2Vendor: 'FNFR'
OS2CodePages: 200001ff.fff70000
OS2UnicodeRanges: a0002aef.c0007ffb.00000008.00000000
Lookup: 258 0 0 "'kern' Horizontal Kerning lookup 0" { "'kern' Horizontal Kerning lookup 0 subtable"  } ['kern' ('DFLT' <'dflt' > ) ]
MarkAttachClasses: 1
DEI: 91125
TtTable: prep
PUSHW_1
 0
CALL
SVTCA[y-axis]
PUSHW_3
 1
 3
 2
CALL
SVTCA[x-axis]
PUSHW_3
 4
 5
 2
CALL
SVTCA[x-axis]
PUSHW_8
 4
 63
 52
 41
 30
 18
 0
 8
CALL
PUSHW_8
 5
 57
 47
 41
 30
 18
 0
 8
CALL
PUSHW_8
 6
 87
 71
 56
 41
 24
 0
 8
CALL
PUSHW_8
 7
 83
 68
 53
 41
 24
 0
 8
CALL
PUSHW_8
 8
 76
 62
 48
 35
 18
 0
 8
CALL
SVTCA[y-axis]
PUSHW_8
 1
 64
 53
 41
 30
 18
 0
 8
CALL
PUSHW_8
 2
 72
 59
 46
 31
 18
 0
 8
CALL
PUSHW_8
 3
 76
 62
 48
 31
 18
 0
 8
CALL
SVTCA[y-axis]
PUSHW_3
 9
 8
 7
CALL
PUSHW_1
 0
DUP
RCVT
RDTG
ROUND[Black]
RTG
WCVTP
PUSHW_3
 48
 11
 1
DELTAC1
PUSHW_3
 0
 13
 1
DELTAC1
PUSHW_3
 112
 13
 1
DELTAC1
PUSHW_3
 32
 13
 1
DELTAC2
PUSHW_3
 144
 13
 1
DELTAC2

StartChar: .notdef
Encoding: 65536 -1 0
Width: 1048
GlyphClass: 2
Flags: W
LayerCount: 2
Fore
SplineSet
454 239 m 1,0,-1
 454 376 l 1,1,-1
 569 376 l 1,2,-1
 569 239 l 1,3,-1
 454 239 l 1,0,-1
460 479 m 1,4,-1
 457 514 l 1,5,6
 457 626 457 626 483.5 679.5 c 128,-1,7
 510 733 510 733 578 800 c 0,8,9
 643 865 643 865 661.5 898 c 128,-1,10
 680 931 680 931 680 970 c 0,11,12
 680 1044 680 1044 633.5 1094.5 c 128,-1,13
 587 1145 587 1145 525 1145 c 0,14,15
 460 1145 460 1145 414 1099.5 c 128,-1,16
 368 1054 368 1054 356 951 c 1,17,-1
 254 967 l 1,18,19
 268 1113 268 1113 343.5 1180.5 c 128,-1,20
 419 1248 419 1248 530 1248 c 0,21,22
 638 1248 638 1248 711.5 1173.5 c 128,-1,23
 785 1099 785 1099 785 979 c 0,24,25
 785 914 785 914 759 859.5 c 128,-1,26
 733 805 733 805 656 733 c 0,27,28
 580 665 580 665 567 626 c 128,-1,29
 554 587 554 587 554 479 c 1,30,-1
 460 479 l 1,4,-1
946 102 m 1,31,-1
 946 1367 l 1,32,-1
 102 1367 l 1,33,-1
 102 102 l 1,34,-1
 946 102 l 1,31,-1
1048 1470 m 1,35,-1
 1048 0 l 1,36,-1
 0 0 l 1,37,-1
 0 1470 l 1,38,-1
 1048 1470 l 1,35,-1
EndSplineSet
Validated: 1
EndChar

StartChar: A
Encoding: 65 65 4
Width: 1366
GlyphClass: 2
Flags: W
LayerCount: 2
Fore
SplineSet
901 604 m 1,0,-1
 684 1251 l 1,1,-1
 680 1251 l 1,2,-1
 444 604 l 1,3,-1
 901 604 l 1,0,-1
383 428 m 1,4,-1
 229 0 l 1,5,-1
 25 0 l 1,6,-1
 578 1470 l 1,7,-1
 803 1470 l 1,8,-1
 1335 0 l 1,9,-1
 1118 0 l 1,10,-1
 973 428 l 1,11,-1
 383 428 l 1,4,-1
EndSplineSet
Validated: 1
EndChar

StartChar: B
Encoding: 66 66 5
Width: 1376
GlyphClass: 2
Flags: W
LayerCount: 2
Fore
SplineSet
166 1470 m 1,0,-1
 811 1470 l 2,1,2
 1001 1470 1001 1470 1114 1367 c 128,-1,3
 1227 1264 1227 1264 1227 1100 c 0,4,5
 1227 1001 1227 1001 1177.5 919.5 c 128,-1,6
 1128 838 1128 838 1030 793 c 1,7,8
 1167 741 1167 741 1231.5 655 c 128,-1,9
 1296 569 1296 569 1296 434 c 0,10,11
 1296 244 1296 244 1159 122 c 128,-1,12
 1022 0 1022 0 797 0 c 2,13,-1
 166 0 l 1,14,-1
 166 1470 l 1,0,-1
362 170 m 1,15,-1
 786 170 l 2,16,17
 942 170 942 170 1020 242.5 c 128,-1,18
 1098 315 1098 315 1098 438 c 0,19,20
 1098 563 1098 563 1011 624.5 c 128,-1,21
 924 686 924 686 754 686 c 2,22,-1
 362 686 l 1,23,-1
 362 170 l 1,15,-1
362 848 m 1,24,-1
 723 848 l 2,25,26
 881 848 881 848 954.5 905.5 c 128,-1,27
 1028 963 1028 963 1028 1085 c 0,28,29
 1028 1190 1028 1190 958.5 1245 c 128,-1,30
 889 1300 889 1300 725 1300 c 2,31,-1
 362 1300 l 1,32,-1
 362 848 l 1,24,-1
EndSplineSet
Validated: 1
EndChar

StartChar: C
Encoding: 67 67 6
Width: 1481
GlyphClass: 2
Flags: W
LayerCount: 2
Fore
SplineSet
1188 1028 m 1,0,1
 1155 1178 1155 1178 1049.5 1255.5 c 128,-1,2
 944 1333 944 1333 776 1333 c 0,3,4
 559 1333 559 1333 427 1175.5 c 128,-1,5
 295 1018 295 1018 295 750 c 0,6,7
 295 440 295 440 420 288.5 c 128,-1,8
 545 137 545 137 782 137 c 0,9,10
 938 137 938 137 1050.5 240.5 c 128,-1,11
 1163 344 1163 344 1202 541 c 1,12,-1
 1395 541 l 1,13,14
 1356 258 1356 258 1180 109.5 c 128,-1,15
 1004 -39 1004 -39 752 -39 c 0,16,17
 451 -39 451 -39 270.5 168 c 128,-1,18
 90 375 90 375 90 743 c 0,19,20
 90 1098 90 1098 278.5 1303.5 c 128,-1,21
 467 1509 467 1509 776 1509 c 0,22,23
 1032 1509 1032 1509 1191 1377 c 128,-1,24
 1350 1245 1350 1245 1380 1028 c 1,25,-1
 1188 1028 l 1,0,1
EndSplineSet
Validated: 1
EndChar

StartChar: D
Encoding: 68 68 7
Width: 1475
GlyphClass: 2
Flags: W
LayerCount: 2
Fore
SplineSet
365 170 m 1,0,-1
 750 170 l 2,1,2
 950 170 950 170 1063 323.5 c 128,-1,3
 1176 477 1176 477 1176 743 c 0,4,5
 1176 1006 1176 1006 1062 1152 c 128,-1,6
 948 1298 948 1298 733 1300 c 2,7,-1
 365 1300 l 1,8,-1
 365 170 l 1,0,-1
166 1470 m 1,9,-1
 762 1470 l 2,10,11
 1051 1470 1051 1470 1214.5 1271.5 c 128,-1,12
 1378 1073 1378 1073 1378 756 c 0,13,14
 1378 416 1378 416 1214.5 208 c 128,-1,15
 1051 0 1051 0 754 0 c 2,16,-1
 166 0 l 1,17,-1
 166 1470 l 1,9,-1
EndSplineSet
Validated: 1
EndChar

StartChar: E
Encoding: 69 69 8
Width: 1331
GlyphClass: 2
Flags: W
LayerCount: 2
Fore
SplineSet
1251 0 m 1,0,-1
 166 0 l 1,1,-1
 166 1470 l 1,2,-1
 1237 1470 l 1,3,-1
 1237 1294 l 1,4,-1
 365 1294 l 1,5,-1
 365 844 l 1,6,-1
 1169 844 l 1,7,-1
 1169 668 l 1,8,-1
 365 668 l 1,9,-1
 365 176 l 1,10,-1
 1251 176 l 1,11,-1
 1251 0 l 1,0,-1
EndSplineSet
Validated: 1
EndChar

StartChar: F
Encoding: 70 70 9
Width: 1224
GlyphClass: 2
Flags: W
LayerCount: 2
Fore
SplineSet
365 0 m 1,0,-1
 166 0 l 1,1,-1
 166 1470 l 1,2,-1
 1184 1470 l 1,3,-1
 1184 1294 l 1,4,-1
 365 1294 l 1,5,-1
 365 844 l 1,6,-1
 1085 844 l 1,7,-1
 1085 668 l 1,8,-1
 365 668 l 1,9,-1
 365 0 l 1,0,-1
EndSplineSet
Validated: 1
EndChar

StartChar: G
Encoding: 71 71 10
Width: 1579
GlyphClass: 2
Flags: W
LayerCount: 2
Fore
SplineSet
788 786 m 1,0,-1
 1434 786 l 1,1,-1
 1434 0 l 1,2,-1
 1305 0 l 1,3,-1
 1257 190 l 1,4,5
 1163 70 1163 70 1036 15.5 c 128,-1,6
 909 -39 909 -39 772 -39 c 0,7,8
 551 -39 551 -39 402.5 57.5 c 128,-1,9
 254 154 254 154 172 324 c 128,-1,10
 90 494 90 494 90 748 c 0,11,12
 90 1065 90 1065 278.5 1287 c 128,-1,13
 467 1509 467 1509 786 1509 c 0,14,15
 1024 1509 1024 1509 1202 1376 c 128,-1,16
 1380 1243 1380 1243 1409 1024 c 1,17,-1
 1217 1024 l 1,18,19
 1182 1169 1182 1169 1069 1251 c 128,-1,20
 956 1333 956 1333 776 1333 c 0,21,22
 559 1333 559 1333 427 1169.5 c 128,-1,23
 295 1006 295 1006 295 737 c 0,24,25
 295 424 295 424 426 277.5 c 128,-1,26
 557 131 557 131 784 131 c 0,27,28
 932 131 932 131 1034.5 189.5 c 128,-1,29
 1137 248 1137 248 1192 348.5 c 128,-1,30
 1247 449 1247 449 1247 616 c 1,31,-1
 788 616 l 1,32,-1
 788 786 l 1,0,-1
EndSplineSet
Validated: 1
EndChar

StartChar: H
Encoding: 72 72 11
Width: 1495
GlyphClass: 2
Flags: W
HStem: 0 21G<166 362 1130 1329> 686 176<362 1130> 1450 20G<166 362 1130 1329>
VStem: 166 196<0 686 862 1470> 1130 199<0 686 862 1470>
LayerCount: 2
Fore
SplineSet
1329 0 m 1,0,-1
 1130 0 l 1,1,-1
 1130 686 l 1,2,-1
 362 686 l 1,3,-1
 362 0 l 1,4,-1
 166 0 l 1,5,-1
 166 1470 l 1,6,-1
 362 1470 l 1,7,-1
 362 862 l 1,8,-1
 1130 862 l 1,9,-1
 1130 1470 l 1,10,-1
 1329 1470 l 1,11,-1
 1329 0 l 1,0,-1
EndSplineSet
Validated: 1
EndChar

StartChar: I
Encoding: 73 73 12
Width: 528
GlyphClass: 2
Flags: W
HStem: 0 21G<166 365> 1450 20G<166 365>
VStem: 166 199<0 1470>
LayerCount: 2
Fore
SplineSet
365 0 m 1,0,-1
 166 0 l 1,1,-1
 166 1470 l 1,2,-1
 365 1470 l 1,3,-1
 365 0 l 1,0,-1
EndSplineSet
Validated: 1
EndChar

StartChar: J
Encoding: 74 74 13
Width: 1046
GlyphClass: 2
Flags: W
LayerCount: 2
Fore
SplineSet
241 473 m 1,0,-1
 241 373 l 2,1,2
 241 254 241 254 293.5 192.5 c 128,-1,3
 346 131 346 131 462 131 c 0,4,5
 583 131 583 131 640.5 194.5 c 128,-1,6
 698 258 698 258 698 385 c 2,7,-1
 698 1470 l 1,8,-1
 897 1470 l 1,9,-1
 897 397 l 2,10,11
 897 186 897 186 785 73.5 c 128,-1,12
 673 -39 673 -39 473 -39 c 0,13,14
 276 -39 276 -39 165.5 61.5 c 128,-1,15
 55 162 55 162 55 330 c 2,16,-1
 55 473 l 1,17,-1
 241 473 l 1,0,-1
EndSplineSet
Validated: 1
EndChar

StartChar: K
Encoding: 75 75 14
Width: 1376
GlyphClass: 2
Flags: W
LayerCount: 2
Fore
SplineSet
362 0 m 1,0,-1
 166 0 l 1,1,-1
 166 1470 l 1,2,-1
 362 1470 l 1,3,-1
 362 758 l 1,4,-1
 1075 1470 l 1,5,-1
 1350 1470 l 1,6,-1
 737 877 l 1,7,-1
 1366 0 l 1,8,-1
 1110 0 l 1,9,-1
 596 737 l 1,10,-1
 362 516 l 1,11,-1
 362 0 l 1,0,-1
EndSplineSet
Validated: 1
EndChar

StartChar: L
Encoding: 76 76 15
Width: 1139
GlyphClass: 2
Flags: W
HStem: 0 176<362 1110> 1450 20G<166 362>
VStem: 166 196<176 1470>
LayerCount: 2
Fore
SplineSet
362 176 m 1,0,-1
 1110 176 l 1,1,-1
 1110 0 l 1,2,-1
 166 0 l 1,3,-1
 166 1470 l 1,4,-1
 362 1470 l 1,5,-1
 362 176 l 1,0,-1
EndSplineSet
Validated: 1
EndChar

StartChar: M
Encoding: 77 77 16
Width: 1741
GlyphClass: 2
Flags: W
LayerCount: 2
Fore
SplineSet
1382 0 m 1,0,-1
 1382 868 l 2,1,2
 1382 885 1382 885 1384 1034.5 c 128,-1,3
 1386 1184 1386 1184 1386 1235 c 1,4,-1
 1380 1235 l 1,5,-1
 969 0 l 1,6,-1
 772 0 l 1,7,-1
 360 1233 l 1,8,-1
 354 1233 l 1,9,10
 354 1159 354 1159 356 1022 c 128,-1,11
 358 885 358 885 358 868 c 2,12,-1
 358 0 l 1,13,-1
 166 0 l 1,14,-1
 166 1470 l 1,15,-1
 450 1470 l 1,16,-1
 868 227 l 1,17,-1
 874 227 l 1,18,-1
 1290 1470 l 1,19,-1
 1575 1470 l 1,20,-1
 1575 0 l 1,21,-1
 1382 0 l 1,0,-1
EndSplineSet
Validated: 1
EndChar

StartChar: N
Encoding: 78 78 17
Width: 1497
GlyphClass: 2
Flags: W
LayerCount: 2
Fore
SplineSet
1139 1470 m 1,0,-1
 1331 1470 l 1,1,-1
 1331 0 l 1,2,-1
 1110 0 l 1,3,-1
 360 1188 l 1,4,-1
 356 1188 l 1,5,-1
 356 0 l 1,6,-1
 166 0 l 1,7,-1
 166 1470 l 1,8,-1
 399 1470 l 1,9,-1
 1135 283 l 1,10,-1
 1139 283 l 1,11,-1
 1139 1470 l 1,0,-1
EndSplineSet
Validated: 1
EndChar

StartChar: O
Encoding: 79 79 18
Width: 1593
GlyphClass: 2
Flags: W
LayerCount: 2
Fore
SplineSet
1309 735 m 0,0,1
 1309 993 1309 993 1172.5 1163 c 128,-1,2
 1036 1333 1036 1333 797 1333 c 0,3,4
 561 1333 561 1333 423 1163 c 128,-1,5
 285 993 285 993 285 735 c 0,6,7
 285 469 285 469 425 303 c 128,-1,8
 565 137 565 137 797 137 c 0,9,10
 1024 137 1024 137 1166.5 299 c 128,-1,11
 1309 461 1309 461 1309 735 c 0,0,1
1513 735 m 0,12,13
 1513 406 1513 406 1323 183.5 c 128,-1,14
 1133 -39 1133 -39 797 -39 c 0,15,16
 459 -39 459 -39 269.5 183.5 c 128,-1,17
 80 406 80 406 80 735 c 0,18,19
 80 1065 80 1065 269.5 1287 c 128,-1,20
 459 1509 459 1509 797 1509 c 0,21,22
 1143 1509 1143 1509 1328 1283 c 128,-1,23
 1513 1057 1513 1057 1513 735 c 0,12,13
EndSplineSet
Validated: 1
EndChar

StartChar: P
Encoding: 80 80 19
Width: 1324
GlyphClass: 2
Flags: W
LayerCount: 2
Fore
SplineSet
365 791 m 1,0,-1
 760 791 l 2,1,2
 909 791 909 791 984 856.5 c 128,-1,3
 1059 922 1059 922 1059 1055 c 0,4,5
 1059 1174 1059 1174 987 1237 c 128,-1,6
 915 1300 915 1300 768 1300 c 2,7,-1
 365 1300 l 1,8,-1
 365 791 l 1,0,-1
365 0 m 1,9,-1
 166 0 l 1,10,-1
 166 1470 l 1,11,-1
 827 1470 l 2,12,13
 1024 1470 1024 1470 1144 1355.5 c 128,-1,14
 1264 1241 1264 1241 1264 1057 c 0,15,16
 1264 866 1264 866 1148 743.5 c 128,-1,17
 1032 621 1032 621 827 621 c 2,18,-1
 365 621 l 1,19,-1
 365 0 l 1,9,-1
EndSplineSet
Validated: 1
EndChar

StartChar: Q
Encoding: 81 81 20
Width: 1593
GlyphClass: 2
Flags: W
LayerCount: 2
Fore
SplineSet
1513 733 m 0,0,1
 1513 389 1513 389 1300 160 c 1,2,-1
 1501 4 l 1,3,-1
 1401 -115 l 1,4,-1
 1178 57 l 1,5,6
 1012 -41 1012 -41 797 -41 c 0,7,8
 459 -41 459 -41 269.5 182.5 c 128,-1,9
 80 406 80 406 80 733 c 0,10,11
 80 1063 80 1063 269.5 1285 c 128,-1,12
 459 1507 459 1507 797 1507 c 0,13,14
 1143 1507 1143 1507 1328 1282 c 128,-1,15
 1513 1057 1513 1057 1513 733 c 0,0,1
1309 733 m 0,16,17
 1309 993 1309 993 1172.5 1162 c 128,-1,18
 1036 1331 1036 1331 797 1331 c 0,19,20
 561 1331 561 1331 423 1161 c 128,-1,21
 285 991 285 991 285 733 c 0,22,23
 285 469 285 469 425 302 c 128,-1,24
 565 135 565 135 797 135 c 0,25,26
 911 135 911 135 1014 184 c 1,27,-1
 860 303 l 1,28,-1
 961 426 l 1,29,-1
 1149 281 l 1,30,31
 1309 449 1309 449 1309 733 c 0,16,17
EndSplineSet
Validated: 1
EndChar

StartChar: R
Encoding: 82 82 21
Width: 1462
GlyphClass: 2
Flags: W
LayerCount: 2
Fore
SplineSet
365 801 m 1,0,-1
 825 801 l 2,1,2
 985 801 985 801 1054.5 866.5 c 128,-1,3
 1124 932 1124 932 1124 1055 c 0,4,5
 1124 1167 1124 1167 1064 1233.5 c 128,-1,6
 1004 1300 1004 1300 858 1300 c 2,7,-1
 365 1300 l 1,8,-1
 365 801 l 1,0,-1
365 0 m 1,9,-1
 166 0 l 1,10,-1
 166 1470 l 1,11,-1
 846 1470 l 2,12,13
 1083 1470 1083 1470 1205 1369 c 128,-1,14
 1327 1268 1327 1268 1327 1075 c 0,15,16
 1327 948 1327 948 1278 863 c 128,-1,17
 1229 778 1229 778 1124 723 c 1,18,19
 1214 690 1214 690 1254 630.5 c 128,-1,20
 1294 571 1294 571 1300 446 c 2,21,-1
 1313 172 l 2,22,23
 1315 104 1315 104 1334.5 76.5 c 128,-1,24
 1354 49 1354 49 1389 33 c 1,25,-1
 1389 0 l 1,26,-1
 1143 0 l 1,27,28
 1124 55 1124 55 1116 167 c 128,-1,29
 1108 279 1108 279 1108 369 c 0,30,31
 1108 414 1108 414 1100 461 c 128,-1,32
 1092 508 1092 508 1065 546 c 128,-1,33
 1038 584 1038 584 986 607.5 c 128,-1,34
 934 631 934 631 846 631 c 2,35,-1
 365 631 l 1,36,-1
 365 0 l 1,9,-1
EndSplineSet
Validated: 1
EndChar

StartChar: S
Encoding: 83 83 22
Width: 1356
GlyphClass: 2
Flags: W
LayerCount: 2
Fore
SplineSet
1032 1040 m 1,0,1
 1026 1180 1026 1180 927.5 1259.5 c 128,-1,2
 829 1339 829 1339 668 1339 c 0,3,4
 506 1339 506 1339 419 1272.5 c 128,-1,5
 332 1206 332 1206 332 1081 c 0,6,7
 332 1014 332 1014 370 966 c 128,-1,8
 408 918 408 918 506 895 c 2,9,-1
 926 799 l 2,10,11
 1096 762 1096 762 1178 658.5 c 128,-1,12
 1260 555 1260 555 1260 406 c 0,13,14
 1260 188 1260 188 1100 74.5 c 128,-1,15
 940 -39 940 -39 684 -39 c 0,16,17
 489 -39 489 -39 376.5 11 c 128,-1,18
 264 61 264 61 177 170 c 128,-1,19
 90 279 90 279 90 475 c 1,20,-1
 276 475 l 1,21,22
 276 311 276 311 385 221 c 128,-1,23
 494 131 494 131 682 131 c 0,24,25
 864 131 864 131 965.5 195.5 c 128,-1,26
 1067 260 1067 260 1067 379 c 0,27,28
 1067 487 1067 487 1006.5 540.5 c 128,-1,29
 946 594 946 594 770 635 c 2,30,-1
 453 709 l 2,31,32
 295 745 295 745 217 834.5 c 128,-1,33
 139 924 139 924 139 1055 c 0,34,35
 139 1253 139 1253 272.5 1381 c 128,-1,36
 406 1509 406 1509 645 1509 c 0,37,38
 915 1509 915 1509 1061.5 1396.5 c 128,-1,39
 1208 1284 1208 1284 1219 1040 c 1,40,-1
 1032 1040 l 1,0,1
EndSplineSet
Validated: 1
EndChar

StartChar: T
Encoding: 84 84 23
Width: 1244
GlyphClass: 2
Flags: W
HStem: 0 21G<520 719> 1294 176<25 520 719 1219>
VStem: 520 199<0 1294>
LayerCount: 2
Fore
SplineSet
520 1294 m 1,0,-1
 25 1294 l 1,1,-1
 25 1470 l 1,2,-1
 1219 1470 l 1,3,-1
 1219 1294 l 1,4,-1
 719 1294 l 1,5,-1
 719 0 l 1,6,-1
 520 0 l 1,7,-1
 520 1294 l 1,0,-1
EndSplineSet
Validated: 1
EndChar

StartChar: U
Encoding: 85 85 24
Width: 1466
GlyphClass: 2
Flags: W
LayerCount: 2
Fore
SplineSet
1313 1470 m 1,0,-1
 1313 516 l 2,1,2
 1313 272 1313 272 1158.5 116.5 c 128,-1,3
 1004 -39 1004 -39 721 -39 c 0,4,5
 457 -39 457 -39 306.5 104.5 c 128,-1,6
 156 248 156 248 156 489 c 2,7,-1
 156 1470 l 1,8,-1
 352 1470 l 1,9,-1
 352 545 l 2,10,11
 352 342 352 342 453.5 239.5 c 128,-1,12
 555 137 555 137 725 137 c 0,13,14
 907 137 907 137 1009.5 239.5 c 128,-1,15
 1112 342 1112 342 1112 541 c 2,16,-1
 1112 1470 l 1,17,-1
 1313 1470 l 1,0,-1
EndSplineSet
Validated: 1
EndChar

StartChar: V
Encoding: 86 86 25
Width: 1343
GlyphClass: 2
Flags: W
LayerCount: 2
Fore
SplineSet
1092 1470 m 1,0,-1
 1315 1470 l 1,1,-1
 776 0 l 1,2,-1
 567 0 l 1,3,-1
 31 1470 l 1,4,-1
 252 1470 l 1,5,-1
 672 217 l 1,6,-1
 676 217 l 1,7,-1
 1092 1470 l 1,0,-1
EndSplineSet
Validated: 1
EndChar

StartChar: W
Encoding: 87 87 26
Width: 1952
GlyphClass: 2
Flags: W
LayerCount: 2
Fore
SplineSet
637 0 m 1,0,-1
 426 0 l 1,1,-1
 43 1470 l 1,2,-1
 258 1470 l 1,3,-1
 532 274 l 1,4,-1
 537 274 l 1,5,-1
 866 1470 l 1,6,-1
 1083 1470 l 1,7,-1
 1413 274 l 1,8,-1
 1417 274 l 1,9,-1
 1692 1470 l 1,10,-1
 1913 1470 l 1,11,-1
 1524 0 l 1,12,-1
 1317 0 l 1,13,-1
 981 1219 l 1,14,-1
 977 1219 l 1,15,-1
 637 0 l 1,0,-1
EndSplineSet
Validated: 1
EndChar

StartChar: X
Encoding: 88 88 27
Width: 1354
GlyphClass: 2
Flags: W
LayerCount: 2
Fore
SplineSet
1317 0 m 1,0,-1
 1071 0 l 1,1,-1
 676 604 l 1,2,-1
 268 0 l 1,3,-1
 29 0 l 1,4,-1
 555 754 l 1,5,-1
 61 1470 l 1,6,-1
 311 1470 l 1,7,-1
 684 907 l 1,8,-1
 1057 1470 l 1,9,-1
 1294 1470 l 1,10,-1
 801 754 l 1,11,-1
 1317 0 l 1,0,-1
EndSplineSet
Validated: 1
EndChar

StartChar: Y
Encoding: 89 89 28
Width: 1327
GlyphClass: 2
Flags: W
LayerCount: 2
Fore
SplineSet
764 0 m 1,0,-1
 565 0 l 1,1,-1
 565 592 l 1,2,-1
 10 1470 l 1,3,-1
 242 1470 l 1,4,-1
 664 764 l 1,5,-1
 1085 1470 l 1,6,-1
 1319 1470 l 1,7,-1
 764 592 l 1,8,-1
 764 0 l 1,0,-1
EndSplineSet
Validated: 1
EndChar

StartChar: Z
Encoding: 90 90 29
Width: 1272
GlyphClass: 2
Flags: W
LayerCount: 2
Fore
SplineSet
1213 0 m 1,0,-1
 55 0 l 1,1,-1
 55 166 l 1,2,-1
 957 1294 l 1,3,-1
 123 1294 l 1,4,-1
 123 1470 l 1,5,-1
 1213 1470 l 1,6,-1
 1213 1298 l 1,7,-1
 307 176 l 1,8,-1
 1213 176 l 1,9,-1
 1213 0 l 1,0,-1
EndSplineSet
Validated: 1
EndChar

StartChar: Aogonek
Encoding: 260 260 50
Width: 1366
GlyphClass: 2
Flags: W
LayerCount: 2
Fore
SplineSet
905 604 m 1,0,-1
 688 1251 l 1,1,-1
 684 1251 l 1,2,-1
 449 604 l 1,3,-1
 905 604 l 1,0,-1
233 0 m 1,4,-1
 29 0 l 1,5,-1
 582 1470 l 1,6,-1
 807 1470 l 1,7,-1
 1339 0 l 1,8,9
 1268 0 1268 0 1205.5 -54.5 c 128,-1,10
 1143 -109 1143 -109 1143 -180 c 0,11,12
 1143 -223 1143 -223 1167.5 -249.5 c 128,-1,13
 1192 -276 1192 -276 1233 -276 c 256,14,15
 1274 -276 1274 -276 1317 -256 c 1,16,-1
 1317 -385 l 1,17,18
 1260 -414 1260 -414 1184 -414 c 0,19,20
 1094 -414 1094 -414 1037.5 -365.5 c 128,-1,21
 981 -317 981 -317 981 -231 c 0,22,23
 981 -164 981 -164 1021 -101.5 c 128,-1,24
 1061 -39 1061 -39 1122 0 c 1,25,-1
 977 428 l 1,26,-1
 387 428 l 1,27,-1
 233 0 l 1,4,-1
EndSplineSet
Validated: 1
EndChar

StartChar: AE
Encoding: 198 198 52
Width: 2028
GlyphClass: 2
Flags: W
LayerCount: 2
Fore
SplineSet
936 1294 m 1,0,-1
 735 1294 l 1,1,-1
 465 604 l 1,2,-1
 936 604 l 1,3,-1
 936 1294 l 1,0,-1
229 0 m 1,4,-1
 14 0 l 1,5,-1
 612 1470 l 1,6,-1
 1931 1470 l 1,7,-1
 1931 1294 l 1,8,-1
 1135 1294 l 1,9,-1
 1135 844 l 1,10,-1
 1864 844 l 1,11,-1
 1864 668 l 1,12,-1
 1135 668 l 1,13,-1
 1135 176 l 1,14,-1
 1948 176 l 1,15,-1
 1948 0 l 1,16,-1
 936 0 l 1,17,-1
 936 428 l 1,18,-1
 391 428 l 1,19,-1
 229 0 l 1,4,-1
EndSplineSet
Validated: 1
EndChar

StartChar: Ccedilla
Encoding: 199 199 59
Width: 1481
GlyphClass: 2
Flags: W
LayerCount: 2
Fore
SplineSet
1188 1028 m 1,0,1
 1155 1178 1155 1178 1049.5 1255.5 c 128,-1,2
 944 1333 944 1333 776 1333 c 0,3,4
 559 1333 559 1333 427 1175.5 c 128,-1,5
 295 1018 295 1018 295 750 c 0,6,7
 295 440 295 440 420 288.5 c 128,-1,8
 545 137 545 137 782 137 c 0,9,10
 938 137 938 137 1050.5 240.5 c 128,-1,11
 1163 344 1163 344 1202 541 c 1,12,-1
 1395 541 l 1,13,14
 1356 258 1356 258 1188 115.5 c 128,-1,15
 1020 -27 1020 -27 801 -37 c 1,16,-1
 735 -127 l 1,17,18
 770 -119 770 -119 799 -119 c 0,19,20
 881 -119 881 -119 926 -162 c 128,-1,21
 971 -205 971 -205 971 -272 c 0,22,23
 971 -352 971 -352 906.5 -406.5 c 128,-1,24
 842 -461 842 -461 729 -461 c 0,25,26
 635 -461 635 -461 532 -416 c 1,27,-1
 567 -334 l 1,28,29
 604 -348 604 -348 633 -356.5 c 128,-1,30
 662 -365 662 -365 700 -365 c 0,31,32
 750 -365 750 -365 782.5 -343.5 c 128,-1,33
 815 -322 815 -322 815 -279 c 0,34,35
 815 -242 815 -242 784.5 -220.5 c 128,-1,36
 754 -199 754 -199 717 -199 c 0,37,38
 688 -199 688 -199 637 -215 c 1,39,-1
 602 -176 l 1,40,-1
 705 -39 l 1,41,42
 436 -25 436 -25 263 175 c 128,-1,43
 90 375 90 375 90 743 c 0,44,45
 90 1098 90 1098 278.5 1303.5 c 128,-1,46
 467 1509 467 1509 776 1509 c 0,47,48
 1032 1509 1032 1509 1191 1377 c 128,-1,49
 1350 1245 1350 1245 1380 1028 c 1,50,-1
 1188 1028 l 1,0,1
EndSplineSet
Validated: 1
EndChar

StartChar: Dcroat
Encoding: 272 272 62
Width: 1495
GlyphClass: 2
Flags: W
LayerCount: 2
Fore
SplineSet
20 840 m 1,0,-1
 184 840 l 1,1,-1
 184 1470 l 1,2,-1
 780 1470 l 2,3,4
 1071 1470 1071 1470 1235 1271.5 c 128,-1,5
 1399 1073 1399 1073 1399 756 c 0,6,7
 1399 416 1399 416 1235 208 c 128,-1,8
 1071 0 1071 0 772 0 c 2,9,-1
 184 0 l 1,10,-1
 184 674 l 1,11,-1
 20 674 l 1,12,-1
 20 840 l 1,0,-1
383 170 m 1,13,-1
 768 170 l 2,14,15
 971 170 971 170 1082.5 323.5 c 128,-1,16
 1194 477 1194 477 1194 743 c 0,17,18
 1194 1006 1194 1006 1081.5 1152 c 128,-1,19
 969 1298 969 1298 754 1300 c 2,20,-1
 383 1300 l 1,21,-1
 383 840 l 1,22,-1
 809 840 l 1,23,-1
 809 674 l 1,24,-1
 383 674 l 1,25,-1
 383 170 l 1,13,-1
EndSplineSet
Validated: 1
EndChar

StartChar: Eogonek
Encoding: 280 280 78
Width: 1331
GlyphClass: 2
Flags: W
LayerCount: 2
Fore
SplineSet
176 1470 m 1,0,-1
 1247 1470 l 1,1,-1
 1247 1294 l 1,2,-1
 375 1294 l 1,3,-1
 375 844 l 1,4,-1
 1180 844 l 1,5,-1
 1180 668 l 1,6,-1
 375 668 l 1,7,-1
 375 176 l 1,8,-1
 1262 176 l 1,9,-1
 1262 0 l 1,10,11
 1184 -12 1184 -12 1137 -66.5 c 128,-1,12
 1090 -121 1090 -121 1090 -180 c 0,13,14
 1090 -223 1090 -223 1113.5 -249.5 c 128,-1,15
 1137 -276 1137 -276 1180 -276 c 0,16,17
 1221 -276 1221 -276 1264 -256 c 1,18,-1
 1264 -385 l 1,19,20
 1204 -414 1204 -414 1130 -414 c 0,21,22
 1038 -414 1038 -414 983 -365.5 c 128,-1,23
 928 -317 928 -317 928 -231 c 0,24,25
 928 -100 928 -100 1067 0 c 1,26,-1
 176 0 l 1,27,-1
 176 1470 l 1,0,-1
EndSplineSet
Validated: 1
EndChar

StartChar: Hbar
Encoding: 294 294 86
Width: 1516
GlyphClass: 2
Flags: W
LayerCount: 2
Fore
SplineSet
1141 821 m 1,0,-1
 1141 1061 l 1,1,-1
 373 1061 l 1,2,-1
 373 821 l 1,3,-1
 1141 821 l 1,0,-1
55 1217 m 1,4,-1
 174 1217 l 1,5,-1
 174 1470 l 1,6,-1
 373 1470 l 1,7,-1
 373 1217 l 1,8,-1
 1141 1217 l 1,9,-1
 1141 1470 l 1,10,-1
 1339 1470 l 1,11,-1
 1339 1217 l 1,12,-1
 1460 1217 l 1,13,-1
 1460 1061 l 1,14,-1
 1339 1061 l 1,15,-1
 1339 0 l 1,16,-1
 1141 0 l 1,17,-1
 1141 655 l 1,18,-1
 373 655 l 1,19,-1
 373 0 l 1,20,-1
 174 0 l 1,21,-1
 174 1061 l 1,22,-1
 55 1061 l 1,23,-1
 55 1217 l 1,4,-1
EndSplineSet
Validated: 1
EndChar

StartChar: Iogonek
Encoding: 302 302 96
Width: 528
GlyphClass: 2
Flags: W
LayerCount: 2
Fore
SplineSet
365 0 m 1,0,1
 238 -78 238 -78 238 -180 c 0,2,3
 238 -223 238 -223 261.5 -249.5 c 128,-1,4
 285 -276 285 -276 328 -276 c 0,5,6
 369 -276 369 -276 412 -256 c 1,7,-1
 412 -385 l 1,8,9
 352 -414 352 -414 279 -414 c 0,10,11
 186 -414 186 -414 131 -365.5 c 128,-1,12
 76 -317 76 -317 76 -231 c 0,13,14
 76 -94 76 -94 215 0 c 1,15,-1
 166 0 l 1,16,-1
 166 1470 l 1,17,-1
 365 1470 l 1,18,-1
 365 0 l 1,0,1
EndSplineSet
Validated: 1
EndChar

StartChar: Lslash
Encoding: 321 321 105
Width: 1159
GlyphClass: 2
Flags: W
LayerCount: 2
Fore
SplineSet
375 846 m 1,0,-1
 793 1010 l 1,1,-1
 793 852 l 1,2,-1
 375 686 l 1,3,-1
 375 176 l 1,4,-1
 1120 176 l 1,5,-1
 1120 0 l 1,6,-1
 176 0 l 1,7,-1
 176 608 l 1,8,-1
 43 557 l 1,9,-1
 43 715 l 1,10,-1
 176 768 l 1,11,-1
 176 1470 l 1,12,-1
 375 1470 l 1,13,-1
 375 846 l 1,0,-1
EndSplineSet
Validated: 1
EndChar

StartChar: Ohorn
Encoding: 416 416 125
Width: 1716
GlyphClass: 2
Flags: W
LayerCount: 2
Fore
SplineSet
1309 735 m 0,0,1
 1309 993 1309 993 1172.5 1163 c 128,-1,2
 1036 1333 1036 1333 797 1333 c 0,3,4
 561 1333 561 1333 423 1163 c 128,-1,5
 285 993 285 993 285 735 c 0,6,7
 285 469 285 469 425 303 c 128,-1,8
 565 137 565 137 797 137 c 0,9,10
 1024 137 1024 137 1166.5 299 c 128,-1,11
 1309 461 1309 461 1309 735 c 0,0,1
1513 735 m 0,12,13
 1513 406 1513 406 1323 183.5 c 128,-1,14
 1133 -39 1133 -39 797 -39 c 0,15,16
 459 -39 459 -39 269.5 183.5 c 128,-1,17
 80 406 80 406 80 735 c 0,18,19
 80 1065 80 1065 269.5 1287 c 128,-1,20
 459 1509 459 1509 797 1509 c 0,21,22
 1143 1509 1143 1509 1328 1283 c 0,23,24
 1354 1251 1354 1251 1376 1217 c 1,25,26
 1455 1217 1455 1217 1484 1260 c 128,-1,27
 1513 1303 1513 1303 1513 1382 c 0,28,29
 1513 1420 1513 1420 1506 1470 c 1,30,-1
 1675 1470 l 1,31,32
 1686 1418 1686 1418 1686 1360 c 0,33,34
 1686 1222 1686 1222 1623.5 1156.5 c 128,-1,35
 1561 1091 1561 1091 1447 1085 c 1,36,37
 1513 926 1513 926 1513 735 c 0,12,13
EndSplineSet
Validated: 1
EndChar

StartChar: Oslash
Encoding: 216 216 131
Width: 1593
GlyphClass: 2
Flags: W
LayerCount: 2
Fore
SplineSet
1513 735 m 0,0,1
 1513 406 1513 406 1323 183.5 c 128,-1,2
 1133 -39 1133 -39 797 -39 c 0,3,4
 496 -39 496 -39 311 137 c 1,5,-1
 150 -39 l 1,6,-1
 84 18 l 1,7,-1
 254 203 l 1,8,9
 80 420 80 420 80 735 c 0,10,11
 80 1065 80 1065 269.5 1287 c 128,-1,12
 459 1509 459 1509 797 1509 c 0,13,14
 1106 1509 1106 1509 1286 1327 c 1,15,-1
 1452 1509 l 1,16,-1
 1516 1448 l 1,17,-1
 1343 1262 l 1,18,19
 1513 1042 1513 1042 1513 735 c 0,0,1
797 1333 m 0,20,21
 561 1333 561 1333 423 1163 c 128,-1,22
 285 993 285 993 285 735 c 0,23,24
 285 506 285 506 389 350 c 1,25,-1
 1153 1184 l 1,26,27
 1020 1333 1020 1333 797 1333 c 0,20,21
1309 735 m 0,28,29
 1309 956 1309 956 1208 1112 c 1,30,-1
 444 281 l 1,31,32
 582 137 582 137 797 137 c 0,33,34
 1024 137 1024 137 1166.5 299 c 128,-1,35
 1309 461 1309 461 1309 735 c 0,28,29
EndSplineSet
Validated: 1
EndChar

StartChar: OE
Encoding: 338 338 133
Width: 2073
GlyphClass: 2
Flags: W
LayerCount: 2
Fore
SplineSet
1075 1008 m 2,0,1
 1075 1157 1075 1157 977 1248 c 128,-1,2
 879 1339 879 1339 721 1339 c 0,3,4
 510 1339 510 1339 402.5 1170 c 128,-1,5
 295 1001 295 1001 295 694 c 0,6,7
 295 449 295 449 394.5 290 c 128,-1,8
 494 131 494 131 737 131 c 0,9,10
 877 131 877 131 976 220 c 128,-1,11
 1075 309 1075 309 1075 471 c 2,12,-1
 1075 1008 l 2,0,1
1087 1470 m 1,13,-1
 1989 1470 l 1,14,-1
 1989 1294 l 1,15,-1
 1274 1294 l 1,16,-1
 1274 844 l 1,17,-1
 1956 844 l 1,18,-1
 1956 668 l 1,19,-1
 1274 668 l 1,20,-1
 1274 176 l 1,21,-1
 1993 176 l 1,22,-1
 1993 0 l 1,23,-1
 1085 0 l 1,24,-1
 1085 154 l 1,25,-1
 1081 154 l 1,26,27
 954 -39 954 -39 696 -39 c 0,28,29
 414 -39 414 -39 252 172 c 128,-1,30
 90 383 90 383 90 727 c 0,31,32
 90 1055 90 1055 249 1282 c 128,-1,33
 408 1509 408 1509 719 1509 c 0,34,35
 971 1509 971 1509 1083 1321 c 1,36,-1
 1087 1321 l 1,37,-1
 1087 1470 l 1,13,-1
EndSplineSet
Validated: 1
EndChar

StartChar: Scedilla
Encoding: 350 350 140
Width: 1356
GlyphClass: 2
Flags: W
LayerCount: 2
Fore
SplineSet
1032 1040 m 1,0,1
 1026 1180 1026 1180 927.5 1259.5 c 128,-1,2
 829 1339 829 1339 668 1339 c 0,3,4
 506 1339 506 1339 419 1272.5 c 128,-1,5
 332 1206 332 1206 332 1081 c 0,6,7
 332 1014 332 1014 370 966 c 128,-1,8
 408 918 408 918 506 895 c 2,9,-1
 926 799 l 2,10,11
 1096 762 1096 762 1178 658.5 c 128,-1,12
 1260 555 1260 555 1260 406 c 0,13,14
 1260 195 1260 195 1109 81 c 128,-1,15
 958 -33 958 -33 725 -39 c 1,16,-1
 659 -127 l 1,17,18
 694 -119 694 -119 723 -119 c 0,19,20
 805 -119 805 -119 850 -162 c 128,-1,21
 895 -205 895 -205 895 -272 c 0,22,23
 895 -352 895 -352 830.5 -406.5 c 128,-1,24
 766 -461 766 -461 653 -461 c 0,25,26
 557 -461 557 -461 457 -416 c 1,27,-1
 492 -334 l 1,28,29
 528 -348 528 -348 557 -356.5 c 128,-1,30
 586 -365 586 -365 625 -365 c 0,31,32
 674 -365 674 -365 706.5 -343.5 c 128,-1,33
 739 -322 739 -322 739 -279 c 0,34,35
 739 -242 739 -242 708.5 -220.5 c 128,-1,36
 678 -199 678 -199 639 -199 c 0,37,38
 612 -199 612 -199 561 -215 c 1,39,-1
 526 -176 l 1,40,-1
 629 -39 l 1,41,42
 473 -31 473 -31 368.5 15 c 128,-1,43
 264 61 264 61 177 170 c 128,-1,44
 90 279 90 279 90 475 c 1,45,-1
 276 475 l 1,46,47
 276 311 276 311 385 221 c 128,-1,48
 494 131 494 131 682 131 c 0,49,50
 864 131 864 131 965.5 195.5 c 128,-1,51
 1067 260 1067 260 1067 379 c 0,52,53
 1067 487 1067 487 1006.5 540.5 c 128,-1,54
 946 594 946 594 770 635 c 2,55,-1
 453 709 l 2,56,57
 295 745 295 745 217 834.5 c 128,-1,58
 139 924 139 924 139 1055 c 0,59,60
 139 1253 139 1253 272.5 1381 c 128,-1,61
 406 1509 406 1509 645 1509 c 0,62,63
 915 1509 915 1509 1061.5 1396.5 c 128,-1,64
 1208 1284 1208 1284 1219 1040 c 1,65,-1
 1032 1040 l 1,0,1
EndSplineSet
Validated: 1
EndChar

StartChar: Tbar
Encoding: 358 358 146
Width: 1244
GlyphClass: 2
Flags: W
LayerCount: 2
Fore
SplineSet
248 805 m 1,0,-1
 526 805 l 1,1,-1
 526 1294 l 1,2,-1
 29 1294 l 1,3,-1
 29 1470 l 1,4,-1
 1223 1470 l 1,5,-1
 1223 1294 l 1,6,-1
 725 1294 l 1,7,-1
 725 805 l 1,8,-1
 1006 805 l 1,9,-1
 1006 639 l 1,10,-1
 725 639 l 1,11,-1
 725 0 l 1,12,-1
 526 0 l 1,13,-1
 526 639 l 1,14,-1
 248 639 l 1,15,-1
 248 805 l 1,0,-1
EndSplineSet
Validated: 1
EndChar

StartChar: Uogonek
Encoding: 370 370 157
Width: 1466
GlyphClass: 2
Flags: W
LayerCount: 2
Fore
SplineSet
1313 1470 m 1,0,-1
 1313 516 l 2,1,2
 1313 287 1313 287 1185 147.5 c 128,-1,3
 1057 8 1057 8 874 -25 c 1,4,5
 778 -82 778 -82 778 -180 c 0,6,7
 778 -223 778 -223 801.5 -249.5 c 128,-1,8
 825 -276 825 -276 868 -276 c 0,9,10
 909 -276 909 -276 952 -256 c 1,11,-1
 952 -385 l 1,12,13
 895 -414 895 -414 819 -414 c 0,14,15
 727 -414 727 -414 671.5 -365.5 c 128,-1,16
 616 -317 616 -317 616 -231 c 0,17,18
 616 -125 616 -125 707 -39 c 1,19,20
 453 -35 453 -35 304.5 107.5 c 128,-1,21
 156 250 156 250 156 489 c 2,22,-1
 156 1470 l 1,23,-1
 352 1470 l 1,24,-1
 352 545 l 2,25,26
 352 342 352 342 453.5 239.5 c 128,-1,27
 555 137 555 137 725 137 c 0,28,29
 907 137 907 137 1009.5 239.5 c 128,-1,30
 1112 342 1112 342 1112 541 c 2,31,-1
 1112 1470 l 1,32,-1
 1313 1470 l 1,0,-1
EndSplineSet
Validated: 1
EndChar

StartChar: Uhorn
Encoding: 431 431 159
Width: 1696
GlyphClass: 2
Flags: W
LayerCount: 2
Fore
SplineSet
156 1470 m 1,0,-1
 352 1470 l 1,1,-1
 352 545 l 2,2,3
 352 342 352 342 453.5 239.5 c 128,-1,4
 555 137 555 137 725 137 c 0,5,6
 907 137 907 137 1009.5 239.5 c 128,-1,7
 1112 342 1112 342 1112 541 c 2,8,-1
 1112 1470 l 1,9,-1
 1313 1470 l 1,10,-1
 1313 1221 l 1,11,12
 1336 1217 1336 1217 1362 1217 c 0,13,14
 1434 1217 1434 1217 1463.5 1260 c 128,-1,15
 1493 1303 1493 1303 1493 1382 c 0,16,17
 1493 1420 1493 1420 1486 1470 c 1,18,-1
 1655 1470 l 1,19,20
 1666 1418 1666 1418 1666 1360 c 0,21,22
 1666 1222 1666 1222 1600.5 1153.5 c 128,-1,23
 1535 1085 1535 1085 1401 1085 c 0,24,25
 1361 1085 1361 1085 1313 1090 c 1,26,-1
 1313 516 l 2,27,28
 1313 272 1313 272 1158.5 116.5 c 128,-1,29
 1004 -39 1004 -39 721 -39 c 0,30,31
 457 -39 457 -39 306.5 104.5 c 128,-1,32
 156 248 156 248 156 489 c 2,33,-1
 156 1470 l 1,0,-1
EndSplineSet
Validated: 1
EndChar

StartChar: Thorn
Encoding: 222 222 181
Width: 1324
GlyphClass: 2
Flags: W
LayerCount: 2
Fore
SplineSet
375 547 m 1,0,-1
 770 547 l 2,1,2
 922 547 922 547 995.5 612.5 c 128,-1,3
 1069 678 1069 678 1069 811 c 0,4,5
 1069 930 1069 930 997.5 993.5 c 128,-1,6
 926 1057 926 1057 778 1057 c 2,7,-1
 375 1057 l 1,8,-1
 375 547 l 1,0,-1
176 1470 m 1,9,-1
 375 1470 l 1,10,-1
 375 1227 l 1,11,-1
 838 1227 l 2,12,13
 1040 1227 1040 1227 1157 1109 c 128,-1,14
 1274 991 1274 991 1274 813 c 0,15,16
 1274 627 1274 627 1159 502 c 128,-1,17
 1044 377 1044 377 838 377 c 2,18,-1
 375 377 l 1,19,-1
 375 0 l 1,20,-1
 176 0 l 1,21,-1
 176 1470 l 1,9,-1
EndSplineSet
Validated: 1
EndChar

StartChar: Eng
Encoding: 330 330 182
Width: 1497
GlyphClass: 2
Flags: W
LayerCount: 2
Fore
SplineSet
1323 -8 m 2,0,1
 1323 -217 1323 -217 1213.5 -330.5 c 128,-1,2
 1104 -444 1104 -444 889 -444 c 1,3,-1
 889 -274 l 1,4,5
 1008 -274 1008 -274 1066 -214 c 128,-1,6
 1124 -154 1124 -154 1124 -23 c 1,7,-1
 1124 -23 l 1,8,-1
 352 1188 l 1,9,-1
 348 1188 l 1,10,-1
 348 0 l 1,11,-1
 156 0 l 1,12,-1
 156 1470 l 1,13,-1
 391 1470 l 1,14,-1
 1126 299 l 1,15,-1
 1130 299 l 1,16,-1
 1130 1470 l 1,17,-1
 1323 1470 l 1,18,-1
 1323 -8 l 2,0,1
EndSplineSet
Validated: 5
EndChar

StartChar: a
Encoding: 97 97 183
Width: 1125
GlyphClass: 2
Flags: W
LayerCount: 2
Fore
SplineSet
786 547 m 1,0,1
 766 526 766 526 707.5 513 c 128,-1,2
 649 500 649 500 489 479 c 0,3,4
 371 465 371 465 315.5 421 c 128,-1,5
 260 377 260 377 260 305 c 0,6,7
 260 217 260 217 307 168 c 128,-1,8
 354 119 354 119 457 119 c 0,9,10
 586 119 586 119 686 192.5 c 128,-1,11
 786 266 786 266 786 371 c 2,12,-1
 786 547 l 1,0,1
127 745 m 1,13,14
 133 926 133 926 244.5 1014 c 128,-1,15
 356 1102 356 1102 569 1102 c 0,16,17
 739 1102 739 1102 854 1025 c 128,-1,18
 969 948 969 948 969 803 c 2,19,-1
 969 186 l 2,20,21
 969 123 969 123 1026 123 c 0,22,23
 1049 123 1049 123 1085 131 c 1,24,-1
 1085 0 l 1,25,26
 1036 -20 1036 -20 983 -20 c 0,27,28
 891 -20 891 -20 846 19.5 c 128,-1,29
 801 59 801 59 799 143 c 1,30,31
 645 -31 645 -31 412 -31 c 0,32,33
 260 -31 260 -31 168 55 c 128,-1,34
 76 141 76 141 76 279 c 0,35,36
 76 420 76 420 156 507 c 128,-1,37
 236 594 236 594 389 612 c 2,38,-1
 707 651 l 2,39,40
 793 664 793 664 793 778 c 0,41,42
 793 862 793 862 730.5 907 c 128,-1,43
 668 952 668 952 541 952 c 0,44,45
 428 952 428 952 367.5 902 c 128,-1,46
 307 852 307 852 295 745 c 1,47,-1
 127 745 l 1,13,14
EndSplineSet
Validated: 1
EndChar

StartChar: b
Encoding: 98 98 184
Width: 1157
GlyphClass: 2
Flags: W
LayerCount: 2
Fore
SplineSet
889 539 m 0,0,1
 889 754 889 754 813 847 c 128,-1,2
 737 940 737 940 596 940 c 0,3,4
 453 938 453 938 380 828.5 c 128,-1,5
 307 719 307 719 307 512 c 0,6,7
 307 301 307 301 395 213 c 128,-1,8
 483 125 483 125 600 125 c 0,9,10
 733 125 733 125 811 234.5 c 128,-1,11
 889 344 889 344 889 539 c 0,0,1
135 0 m 1,12,-1
 135 1470 l 1,13,-1
 315 1470 l 1,14,-1
 315 936 l 1,15,-1
 319 936 l 1,16,17
 434 1102 434 1102 629 1102 c 0,18,19
 829 1102 829 1102 952 953.5 c 128,-1,20
 1075 805 1075 805 1075 567 c 0,21,22
 1075 299 1075 299 951 134 c 128,-1,23
 827 -31 827 -31 604 -31 c 0,24,25
 408 -31 408 -31 309 133 c 1,26,-1
 305 133 l 1,27,-1
 305 0 l 1,28,-1
 135 0 l 1,12,-1
EndSplineSet
Validated: 1
EndChar

StartChar: c
Encoding: 99 99 185
Width: 1050
GlyphClass: 2
Flags: W
LayerCount: 2
Fore
SplineSet
811 711 m 1,0,1
 772 940 772 940 557 940 c 0,2,3
 424 940 424 940 343 833.5 c 128,-1,4
 262 727 262 727 262 537 c 0,5,6
 262 330 262 330 337 227.5 c 128,-1,7
 412 125 412 125 555 125 c 0,8,9
 651 125 651 125 721 195.5 c 128,-1,10
 791 266 791 266 811 379 c 1,11,-1
 985 379 l 1,12,13
 958 180 958 180 844.5 74.5 c 128,-1,14
 731 -31 731 -31 551 -31 c 0,15,16
 340 -31 340 -31 205 113.5 c 128,-1,17
 70 258 70 258 70 506 c 0,18,19
 70 778 70 778 205 940 c 128,-1,20
 340 1102 340 1102 584 1102 c 0,21,22
 762 1102 762 1102 867.5 995.5 c 128,-1,23
 973 889 973 889 985 711 c 1,24,-1
 811 711 l 1,0,1
EndSplineSet
Validated: 1
EndChar

StartChar: d
Encoding: 100 100 186
Width: 1167
GlyphClass: 2
Flags: W
LayerCount: 2
Fore
SplineSet
268 539 m 0,0,1
 268 340 268 340 347 232.5 c 128,-1,2
 426 125 426 125 557 125 c 0,3,4
 682 125 682 125 766 217 c 128,-1,5
 850 309 850 309 850 485 c 0,6,7
 850 711 850 711 778.5 825.5 c 128,-1,8
 707 940 707 940 561 940 c 0,9,10
 422 940 422 940 345 849 c 128,-1,11
 268 758 268 758 268 539 c 0,0,1
1032 0 m 1,12,-1
 862 0 l 1,13,-1
 862 147 l 1,14,-1
 858 147 l 1,15,16
 756 -31 756 -31 549 -31 c 0,17,18
 326 -31 326 -31 204 139 c 128,-1,19
 82 309 82 309 82 567 c 0,20,21
 82 805 82 805 203 953.5 c 128,-1,22
 324 1102 324 1102 528 1102 c 0,23,24
 729 1102 729 1102 848 920 c 1,25,-1
 852 932 l 1,26,-1
 852 1470 l 1,27,-1
 1032 1470 l 1,28,-1
 1032 0 l 1,12,-1
EndSplineSet
Validated: 1
EndChar

StartChar: e
Encoding: 101 101 187
Width: 1135
GlyphClass: 2
Flags: W
LayerCount: 2
Fore
SplineSet
870 621 m 1,0,1
 856 795 856 795 778 867.5 c 128,-1,2
 700 940 700 940 571 940 c 0,3,4
 440 940 440 940 359.5 848 c 128,-1,5
 279 756 279 756 274 621 c 1,6,-1
 870 621 l 1,0,1
1042 336 m 1,7,8
 1012 170 1012 170 879 61 c 0,9,10
 762 -31 762 -31 571 -33 c 0,11,12
 346 -31 346 -31 214 114.5 c 128,-1,13
 82 260 82 260 82 506 c 0,14,15
 82 788 82 788 218 945 c 128,-1,16
 354 1102 354 1102 596 1102 c 0,17,18
 813 1102 813 1102 935 940 c 128,-1,19
 1057 778 1057 778 1057 477 c 1,20,-1
 274 477 l 1,21,22
 274 309 274 309 352 217 c 128,-1,23
 430 125 430 125 586 125 c 0,24,25
 696 125 696 125 775 191.5 c 128,-1,26
 854 258 854 258 862 336 c 1,27,-1
 1042 336 l 1,7,8
EndSplineSet
Validated: 1
EndChar

StartChar: f
Encoding: 102 102 188
Width: 567
GlyphClass: 2
Flags: W
HStem: 0 21G<172 352> 922 149<25 172 352 532> 1329 162<371.703 532>
VStem: 172 180<0 922 1071 1298.57>
LayerCount: 2
Fore
SplineSet
352 922 m 1,0,-1
 352 0 l 1,1,-1
 172 0 l 1,2,-1
 172 922 l 1,3,-1
 25 922 l 1,4,-1
 25 1071 l 1,5,-1
 172 1071 l 1,6,-1
 172 1255 l 2,7,8
 172 1376 172 1376 245.5 1433.5 c 128,-1,9
 319 1491 319 1491 451 1491 c 0,10,11
 496 1491 496 1491 532 1487 c 1,12,-1
 532 1325 l 1,13,14
 500 1329 500 1329 459 1329 c 0,15,16
 399 1329 399 1329 375.5 1299.5 c 128,-1,17
 352 1270 352 1270 352 1204 c 2,18,-1
 352 1071 l 1,19,-1
 532 1071 l 1,20,-1
 532 922 l 1,21,-1
 352 922 l 1,0,-1
EndSplineSet
Validated: 1
EndChar

StartChar: g
Encoding: 103 103 189
Width: 1145
GlyphClass: 2
Flags: W
LayerCount: 2
Fore
SplineSet
266 539 m 0,0,1
 266 342 266 342 344 233.5 c 128,-1,2
 422 125 422 125 555 125 c 0,3,4
 684 125 684 125 766 219 c 128,-1,5
 848 313 848 313 848 485 c 0,6,7
 848 711 848 711 776.5 825.5 c 128,-1,8
 705 940 705 940 559 940 c 0,9,10
 412 940 412 940 339 842.5 c 128,-1,11
 266 745 266 745 266 539 c 0,0,1
1020 61 m 2,12,13
 1020 -197 1020 -197 896 -324 c 128,-1,14
 772 -451 772 -451 522 -451 c 0,15,16
 342 -451 342 -451 235.5 -368 c 128,-1,17
 129 -285 129 -285 113 -131 c 1,18,-1
 293 -131 l 1,19,20
 307 -209 307 -209 365.5 -255 c 128,-1,21
 424 -301 424 -301 535 -301 c 0,22,23
 686 -301 686 -301 763 -220 c 128,-1,24
 840 -139 840 -139 840 43 c 2,25,-1
 840 119 l 1,26,-1
 836 119 l 1,27,28
 735 -31 735 -31 551 -31 c 0,29,30
 322 -31 322 -31 201 138 c 128,-1,31
 80 307 80 307 80 567 c 0,32,33
 80 805 80 805 202 953.5 c 128,-1,34
 324 1102 324 1102 526 1102 c 0,35,36
 729 1102 729 1102 846 920 c 1,37,-1
 850 920 l 1,38,-1
 850 1071 l 1,39,-1
 1020 1071 l 1,40,-1
 1020 61 l 2,12,13
EndSplineSet
Validated: 1
EndChar

StartChar: h
Encoding: 104 104 190
Width: 1130
GlyphClass: 2
Flags: W
LayerCount: 2
Fore
SplineSet
1008 0 m 1,0,-1
 827 0 l 1,1,-1
 827 700 l 2,2,3
 827 829 827 829 777 884.5 c 128,-1,4
 727 940 727 940 614 940 c 0,5,6
 475 940 475 940 395 850 c 128,-1,7
 315 760 315 760 315 584 c 2,8,-1
 315 0 l 1,9,-1
 135 0 l 1,10,-1
 135 1470 l 1,11,-1
 315 1470 l 1,12,-1
 315 928 l 1,13,-1
 319 928 l 1,14,15
 442 1102 442 1102 633 1102 c 0,16,17
 809 1102 809 1102 908.5 1010 c 128,-1,18
 1008 918 1008 918 1008 729 c 2,19,-1
 1008 0 l 1,0,-1
EndSplineSet
Validated: 1
EndChar

StartChar: i
Encoding: 105 105 191
Width: 451
GlyphClass: 2
Flags: W
HStem: 0 21G<135 315> 1051 20G<135 315> 1266 204<135 315>
VStem: 135 180<0 1071 1266 1470>
LayerCount: 2
Fore
SplineSet
135 1266 m 1,0,-1
 135 1470 l 1,1,-1
 315 1470 l 1,2,-1
 315 1266 l 1,3,-1
 135 1266 l 1,0,-1
315 0 m 1,4,-1
 135 0 l 1,5,-1
 135 1071 l 1,6,-1
 315 1071 l 1,7,-1
 315 0 l 1,4,-1
EndSplineSet
Validated: 1
EndChar

StartChar: j
Encoding: 106 106 192
Width: 451
GlyphClass: 2
Flags: W
LayerCount: 2
Fore
SplineSet
315 1266 m 1,0,-1
 135 1266 l 1,1,-1
 135 1470 l 1,2,-1
 315 1470 l 1,3,-1
 315 1266 l 1,0,-1
315 -158 m 2,4,5
 315 -311 315 -311 242.5 -370.5 c 128,-1,6
 170 -430 170 -430 41 -430 c 0,7,8
 4 -430 4 -430 -35 -424 c 1,9,-1
 -35 -268 l 1,10,-1
 12 -268 l 2,11,12
 88 -268 88 -268 111.5 -245.5 c 128,-1,13
 135 -223 135 -223 135 -137 c 2,14,-1
 135 1071 l 1,15,-1
 315 1071 l 1,16,-1
 315 -158 l 2,4,5
EndSplineSet
Validated: 1
EndChar

StartChar: k
Encoding: 107 107 193
Width: 1024
GlyphClass: 2
Flags: W
HStem: 0 21G<135 309 780.652 1024> 1051 20G<749.647 999> 1450 20G<135 309>
VStem: 135 174<0 406 618 1470>
LayerCount: 2
Fore
SplineSet
1024 0 m 1,0,-1
 793 0 l 1,1,-1
 459 541 l 1,2,-1
 309 406 l 1,3,-1
 309 0 l 1,4,-1
 135 0 l 1,5,-1
 135 1470 l 1,6,-1
 309 1470 l 1,7,-1
 309 618 l 1,8,-1
 770 1071 l 1,9,-1
 999 1071 l 1,10,-1
 590 672 l 1,11,-1
 1024 0 l 1,0,-1
EndSplineSet
Validated: 1
EndChar

StartChar: l
Encoding: 108 108 194
Width: 451
GlyphClass: 2
Flags: W
HStem: 0 21G<135 315> 1450 20G<135 315>
VStem: 135 180<0 1470>
LayerCount: 2
Fore
SplineSet
315 0 m 1,0,-1
 135 0 l 1,1,-1
 135 1470 l 1,2,-1
 315 1470 l 1,3,-1
 315 0 l 1,0,-1
EndSplineSet
Validated: 1
EndChar

StartChar: m
Encoding: 109 109 195
Width: 1700
GlyphClass: 2
Flags: W
HStem: 0 21G<135 315 766 946 1397 1577> 940 162<454.821 715.691 1062.58 1332.77> 1051 20G<135 305>
VStem: 135 180<0 791.75 920 1071> 766 180<0 814.719> 1397 180<0 871.914>
CounterMasks: 1 1c
LayerCount: 2
Fore
SplineSet
135 1071 m 1,0,-1
 305 1071 l 1,1,-1
 305 920 l 1,2,-1
 309 920 l 1,3,4
 430 1102 430 1102 633 1102 c 0,5,6
 834 1102 834 1102 918 928 c 1,7,8
 995 1022 995 1022 1067 1062 c 128,-1,9
 1139 1102 1139 1102 1245 1102 c 0,10,11
 1384 1102 1384 1102 1480.5 1011 c 128,-1,12
 1577 920 1577 920 1577 741 c 2,13,-1
 1577 0 l 1,14,-1
 1397 0 l 1,15,-1
 1397 692 l 2,16,17
 1397 817 1397 817 1350 878.5 c 128,-1,18
 1303 940 1303 940 1198 940 c 0,19,20
 1092 940 1092 940 1019 854 c 128,-1,21
 946 768 946 768 946 653 c 2,22,-1
 946 0 l 1,23,-1
 766 0 l 1,24,-1
 766 741 l 2,25,26
 766 834 766 834 723 887 c 128,-1,27
 680 940 680 940 598 940 c 0,28,29
 469 940 469 940 392 844 c 128,-1,30
 315 748 315 748 315 584 c 2,31,-1
 315 0 l 1,32,-1
 135 0 l 1,33,-1
 135 1071 l 1,0,-1
EndSplineSet
Validated: 1
EndChar

StartChar: n
Encoding: 110 110 196
Width: 1130
GlyphClass: 2
Flags: W
LayerCount: 2
Fore
SplineSet
1008 0 m 1,0,-1
 827 0 l 1,1,-1
 827 659 l 2,2,3
 827 811 827 811 774 875.5 c 128,-1,4
 721 940 721 940 598 940 c 0,5,6
 477 940 477 940 396 848 c 128,-1,7
 315 756 315 756 315 584 c 2,8,-1
 315 0 l 1,9,-1
 135 0 l 1,10,-1
 135 1071 l 1,11,-1
 305 1071 l 1,12,-1
 305 920 l 1,13,-1
 309 920 l 1,14,15
 436 1102 436 1102 633 1102 c 0,16,17
 815 1102 815 1102 911.5 1005.5 c 128,-1,18
 1008 909 1008 909 1008 729 c 2,19,-1
 1008 0 l 1,0,-1
EndSplineSet
Validated: 1
EndChar

StartChar: o
Encoding: 111 111 197
Width: 1145
GlyphClass: 2
Flags: W
LayerCount: 2
Fore
SplineSet
260 537 m 0,0,1
 260 358 260 358 341 242.5 c 128,-1,2
 422 127 422 127 571 127 c 0,3,4
 725 127 725 127 805 248 c 128,-1,5
 885 369 885 369 885 537 c 0,6,7
 885 707 885 707 805 825.5 c 128,-1,8
 725 944 725 944 571 944 c 0,9,10
 428 944 428 944 344 832.5 c 128,-1,11
 260 721 260 721 260 537 c 0,0,1
76 537 m 0,12,13
 76 776 76 776 209 939 c 128,-1,14
 342 1102 342 1102 571 1102 c 0,15,16
 805 1102 805 1102 937 937 c 128,-1,17
 1069 772 1069 772 1069 537 c 0,18,19
 1069 301 1069 301 938 135 c 128,-1,20
 807 -31 807 -31 571 -31 c 0,21,22
 344 -31 344 -31 210 130 c 128,-1,23
 76 291 76 291 76 537 c 0,12,13
EndSplineSet
Validated: 1
EndChar

StartChar: p
Encoding: 112 112 198
Width: 1157
GlyphClass: 2
Flags: W
LayerCount: 2
Fore
SplineSet
307 485 m 0,0,1
 307 313 307 313 391 219 c 128,-1,2
 475 125 475 125 600 125 c 0,3,4
 737 125 737 125 813 236.5 c 128,-1,5
 889 348 889 348 889 539 c 0,6,7
 889 748 889 748 816 844 c 128,-1,8
 743 940 743 940 596 940 c 0,9,10
 453 940 453 940 380 827.5 c 128,-1,11
 307 715 307 715 307 485 c 0,0,1
135 1071 m 1,12,-1
 305 1071 l 1,13,-1
 305 920 l 1,14,-1
 309 920 l 1,15,16
 424 1102 424 1102 629 1102 c 0,17,18
 836 1102 836 1102 955.5 951.5 c 128,-1,19
 1075 801 1075 801 1075 567 c 0,20,21
 1075 305 1075 305 953 137 c 128,-1,22
 831 -31 831 -31 604 -31 c 0,23,24
 418 -31 418 -31 319 113 c 1,25,-1
 315 113 l 1,26,-1
 315 -424 l 1,27,-1
 135 -424 l 1,28,-1
 135 1071 l 1,12,-1
EndSplineSet
Validated: 1
EndChar

StartChar: q
Encoding: 113 113 199
Width: 1157
GlyphClass: 2
Flags: W
LayerCount: 2
Fore
SplineSet
850 485 m 0,0,1
 850 713 850 713 778.5 826.5 c 128,-1,2
 707 940 707 940 561 940 c 0,3,4
 420 940 420 940 344 848 c 128,-1,5
 268 756 268 756 268 539 c 0,6,7
 268 346 268 346 345 235.5 c 128,-1,8
 422 125 422 125 557 125 c 0,9,10
 676 125 676 125 763 215 c 128,-1,11
 850 305 850 305 850 485 c 0,0,1
1022 -424 m 1,12,-1
 842 -424 l 1,13,-1
 842 113 l 1,14,-1
 838 113 l 1,15,16
 735 -31 735 -31 553 -31 c 0,17,18
 328 -31 328 -31 205 136 c 128,-1,19
 82 303 82 303 82 567 c 0,20,21
 82 801 82 801 203 951.5 c 128,-1,22
 324 1102 324 1102 528 1102 c 0,23,24
 731 1102 731 1102 848 920 c 1,25,-1
 852 920 l 1,26,-1
 852 1071 l 1,27,-1
 1022 1071 l 1,28,-1
 1022 -424 l 1,12,-1
EndSplineSet
Validated: 1
EndChar

StartChar: r
Encoding: 114 114 200
Width: 667
GlyphClass: 2
Flags: W
LayerCount: 2
Fore
SplineSet
315 0 m 1,0,-1
 135 0 l 1,1,-1
 135 1071 l 1,2,-1
 305 1071 l 1,3,-1
 305 893 l 1,4,-1
 309 893 l 1,5,6
 426 1102 426 1102 610 1102 c 0,7,8
 639 1102 639 1102 657 1096 c 1,9,-1
 657 909 l 1,10,-1
 590 909 l 2,11,12
 469 909 469 909 392 827 c 128,-1,13
 315 745 315 745 315 623 c 2,14,-1
 315 0 l 1,0,-1
EndSplineSet
Validated: 1
EndChar

StartChar: s
Encoding: 115 115 201
Width: 1024
GlyphClass: 2
Flags: W
LayerCount: 2
Fore
SplineSet
739 766 m 1,0,1
 735 862 735 862 670.5 904 c 128,-1,2
 606 946 606 946 485 946 c 0,3,4
 397 946 397 946 334.5 907 c 128,-1,5
 272 868 272 868 272 795 c 0,6,7
 272 737 272 737 309 709.5 c 128,-1,8
 346 682 346 682 469 651 c 2,9,-1
 647 606 l 2,10,11
 809 565 809 565 878.5 501.5 c 128,-1,12
 948 438 948 438 948 324 c 0,13,14
 948 166 948 166 832.5 67.5 c 128,-1,15
 717 -31 717 -31 524 -31 c 0,16,17
 299 -31 299 -31 183.5 62.5 c 128,-1,18
 68 156 68 156 66 344 c 1,19,-1
 240 344 l 1,20,21
 244 233 244 233 313.5 179 c 128,-1,22
 383 125 383 125 522 125 c 0,23,24
 635 125 635 125 701.5 170 c 128,-1,25
 768 215 768 215 768 295 c 0,26,27
 768 352 768 352 725 386 c 128,-1,28
 682 420 682 420 555 449 c 2,29,-1
 346 500 l 2,30,31
 219 532 219 532 158.5 595.5 c 128,-1,32
 98 659 98 659 98 760 c 0,33,34
 98 918 98 918 211 1010 c 128,-1,35
 324 1102 324 1102 506 1102 c 0,36,37
 700 1102 700 1102 803.5 1007.5 c 128,-1,38
 907 913 907 913 913 766 c 1,39,-1
 739 766 l 1,0,1
EndSplineSet
Validated: 1
EndChar

StartChar: t
Encoding: 116 116 202
Width: 567
GlyphClass: 2
Flags: W
HStem: -14 155<375.212 524> 922 149<27 172 352 524>
VStem: 172 180<163.177 922 1071 1370>
LayerCount: 2
Fore
SplineSet
352 922 m 1,0,-1
 352 225 l 2,1,2
 352 184 352 184 374.5 162.5 c 128,-1,3
 397 141 397 141 455 141 c 2,4,-1
 524 141 l 1,5,-1
 524 0 l 1,6,7
 426 -14 426 -14 389 -14 c 0,8,9
 276 -14 276 -14 224 40 c 128,-1,10
 172 94 172 94 172 215 c 2,11,-1
 172 922 l 1,12,-1
 27 922 l 1,13,-1
 27 1071 l 1,14,-1
 172 1071 l 1,15,-1
 172 1370 l 1,16,-1
 352 1370 l 1,17,-1
 352 1071 l 1,18,-1
 524 1071 l 1,19,-1
 524 922 l 1,20,-1
 352 922 l 1,0,-1
EndSplineSet
Validated: 1
EndChar

StartChar: u
Encoding: 117 117 203
Width: 1122
GlyphClass: 2
Flags: W
LayerCount: 2
Fore
SplineSet
125 1071 m 1,0,-1
 305 1071 l 1,1,-1
 305 360 l 2,2,3
 305 242 305 242 358.5 183.5 c 128,-1,4
 412 125 412 125 512 125 c 0,5,6
 651 125 651 125 729 223.5 c 128,-1,7
 807 322 807 322 807 481 c 2,8,-1
 807 1071 l 1,9,-1
 987 1071 l 1,10,-1
 987 0 l 1,11,-1
 817 0 l 1,12,-1
 817 156 l 1,13,-1
 813 160 l 1,14,15
 711 -31 711 -31 473 -31 c 0,16,17
 319 -31 319 -31 222 53 c 128,-1,18
 125 137 125 137 125 301 c 2,19,-1
 125 1071 l 1,0,-1
EndSplineSet
Validated: 1
EndChar

StartChar: v
Encoding: 118 118 204
Width: 1016
GlyphClass: 2
Flags: W
LayerCount: 2
Fore
SplineSet
807 1071 m 1,0,-1
 1004 1071 l 1,1,-1
 596 0 l 1,2,-1
 403 0 l 1,3,-1
 12 1071 l 1,4,-1
 221 1071 l 1,5,-1
 500 199 l 1,6,-1
 504 199 l 1,7,-1
 807 1071 l 1,0,-1
EndSplineSet
Validated: 1
EndChar

StartChar: w
Encoding: 119 119 205
Width: 1483
GlyphClass: 2
Flags: W
LayerCount: 2
Fore
SplineSet
524 0 m 1,0,-1
 340 0 l 1,1,-1
 31 1071 l 1,2,-1
 225 1071 l 1,3,-1
 430 229 l 1,4,-1
 434 229 l 1,5,-1
 641 1071 l 1,6,-1
 844 1071 l 1,7,-1
 1053 229 l 1,8,-1
 1057 229 l 1,9,-1
 1274 1071 l 1,10,-1
 1452 1071 l 1,11,-1
 1143 0 l 1,12,-1
 954 0 l 1,13,-1
 737 829 l 1,14,-1
 733 829 l 1,15,-1
 524 0 l 1,0,-1
EndSplineSet
Validated: 1
EndChar

StartChar: x
Encoding: 120 120 206
Width: 1024
GlyphClass: 2
Flags: W
LayerCount: 2
Fore
SplineSet
1004 0 m 1,0,-1
 772 0 l 1,1,-1
 508 403 l 1,2,-1
 250 0 l 1,3,-1
 23 0 l 1,4,-1
 397 551 l 1,5,-1
 41 1071 l 1,6,-1
 270 1071 l 1,7,-1
 518 694 l 1,8,-1
 768 1071 l 1,9,-1
 987 1071 l 1,10,-1
 627 551 l 1,11,-1
 1004 0 l 1,0,-1
EndSplineSet
Validated: 1
EndChar

StartChar: y
Encoding: 121 121 207
Width: 1016
GlyphClass: 2
Flags: W
LayerCount: 2
Fore
SplineSet
799 1071 m 1,0,-1
 995 1071 l 1,1,-1
 612 20 l 2,2,3
 602 -8 602 -8 592 -33 c 0,4,5
 505 -265 505 -265 442 -351.5 c 128,-1,6
 379 -438 379 -438 238 -438 c 0,7,8
 164 -438 164 -438 117 -422 c 1,9,-1
 117 -258 l 1,10,11
 168 -276 168 -276 229 -276 c 0,12,13
 295 -276 295 -276 325.5 -234.5 c 128,-1,14
 356 -193 356 -193 416 -31 c 1,15,-1
 18 1071 l 1,16,-1
 221 1071 l 1,17,-1
 508 199 l 1,18,-1
 512 199 l 1,19,-1
 799 1071 l 1,0,-1
EndSplineSet
Validated: 1
EndChar

StartChar: z
Encoding: 122 122 208
Width: 1008
GlyphClass: 2
Flags: W
LayerCount: 2
Fore
SplineSet
289 150 m 1,0,-1
 948 150 l 1,1,-1
 948 0 l 1,2,-1
 49 0 l 1,3,-1
 49 141 l 1,4,-1
 697 922 l 1,5,-1
 101 922 l 1,6,-1
 101 1071 l 1,7,-1
 928 1071 l 1,8,-1
 928 924 l 1,9,-1
 289 150 l 1,0,-1
EndSplineSet
Validated: 1
EndChar

StartChar: aogonek
Encoding: 261 261 229
Width: 1125
GlyphClass: 2
Flags: W
LayerCount: 2
Fore
SplineSet
1085 0 m 1,0,1
 956 -29 956 -29 909 -75 c 128,-1,2
 862 -121 862 -121 862 -180 c 0,3,4
 862 -223 862 -223 885.5 -249.5 c 128,-1,5
 909 -276 909 -276 952 -276 c 0,6,7
 993 -276 993 -276 1036 -256 c 1,8,-1
 1036 -385 l 1,9,10
 979 -414 979 -414 903 -414 c 0,11,12
 811 -414 811 -414 755.5 -365.5 c 128,-1,13
 700 -317 700 -317 700 -231 c 0,14,15
 700 -92 700 -92 858 10 c 1,16,17
 801 51 801 51 799 143 c 1,18,19
 645 -31 645 -31 412 -31 c 0,20,21
 260 -31 260 -31 168 55 c 128,-1,22
 76 141 76 141 76 279 c 0,23,24
 76 420 76 420 156 507 c 128,-1,25
 236 594 236 594 389 612 c 2,26,-1
 707 651 l 2,27,28
 793 664 793 664 793 778 c 0,29,30
 793 862 793 862 730.5 907 c 128,-1,31
 668 952 668 952 541 952 c 0,32,33
 428 952 428 952 367.5 902 c 128,-1,34
 307 852 307 852 295 745 c 1,35,-1
 127 745 l 1,36,37
 133 926 133 926 244.5 1014 c 128,-1,38
 356 1102 356 1102 569 1102 c 0,39,40
 739 1102 739 1102 854 1025 c 128,-1,41
 969 948 969 948 969 803 c 2,42,-1
 969 186 l 2,43,44
 969 123 969 123 1026 123 c 0,45,46
 1049 123 1049 123 1085 131 c 1,47,-1
 1085 0 l 1,0,1
786 547 m 1,48,49
 766 526 766 526 707.5 513 c 128,-1,50
 649 500 649 500 489 479 c 0,51,52
 371 465 371 465 315.5 421 c 128,-1,53
 260 377 260 377 260 305 c 0,54,55
 260 217 260 217 307 168 c 128,-1,56
 354 119 354 119 457 119 c 0,57,58
 586 119 586 119 686 192.5 c 128,-1,59
 786 266 786 266 786 371 c 2,60,-1
 786 547 l 1,48,49
EndSplineSet
Validated: 1
EndChar

StartChar: ae
Encoding: 230 230 231
Width: 1815
GlyphClass: 2
Flags: W
LayerCount: 2
Fore
SplineSet
1548 621 m 1,0,1
 1538 780 1538 780 1462 860 c 128,-1,2
 1386 940 1386 940 1249 940 c 0,3,4
 1126 940 1126 940 1042 849 c 128,-1,5
 958 758 958 758 952 621 c 1,6,-1
 1548 621 l 1,0,1
786 547 m 1,7,8
 756 524 756 524 694.5 511 c 128,-1,9
 633 498 633 498 489 479 c 0,10,11
 365 463 365 463 312.5 420 c 128,-1,12
 260 377 260 377 260 305 c 0,13,14
 260 217 260 217 307 168 c 128,-1,15
 354 119 354 119 457 119 c 0,16,17
 584 119 584 119 685 192.5 c 128,-1,18
 786 266 786 266 786 371 c 2,19,-1
 786 547 l 1,7,8
1720 336 m 1,20,21
 1698 197 1698 197 1581 83 c 128,-1,22
 1464 -31 1464 -31 1249 -31 c 0,23,24
 969 -31 969 -31 848 193 c 1,25,26
 705 -31 705 -31 414 -31 c 0,27,28
 262 -31 262 -31 169 55 c 128,-1,29
 76 141 76 141 76 279 c 0,30,31
 76 416 76 416 154.5 505 c 128,-1,32
 233 594 233 594 399 614 c 2,33,-1
 707 651 l 2,34,35
 752 657 752 657 772.5 691 c 128,-1,36
 793 725 793 725 793 778 c 0,37,38
 793 862 793 862 730.5 907 c 128,-1,39
 668 952 668 952 541 952 c 0,40,41
 420 952 420 952 360.5 895 c 128,-1,42
 301 838 301 838 295 745 c 1,43,-1
 127 745 l 1,44,45
 131 918 131 918 239.5 1010 c 128,-1,46
 348 1102 348 1102 569 1102 c 0,47,48
 698 1102 698 1102 777 1063 c 128,-1,49
 856 1024 856 1024 918 950 c 1,50,51
 1049 1102 1049 1102 1270 1102 c 0,52,53
 1497 1102 1497 1102 1617 938 c 128,-1,54
 1737 774 1737 774 1737 477 c 1,55,-1
 952 477 l 1,56,57
 952 309 952 309 1031 217 c 128,-1,58
 1110 125 1110 125 1270 125 c 0,59,60
 1374 125 1374 125 1450 186.5 c 128,-1,61
 1526 248 1526 248 1540 336 c 1,62,-1
 1720 336 l 1,20,21
EndSplineSet
Validated: 1
EndChar

StartChar: ccedilla
Encoding: 231 231 238
Width: 1050
GlyphClass: 2
Flags: W
LayerCount: 2
Fore
SplineSet
811 711 m 1,0,1
 772 940 772 940 557 940 c 0,2,3
 424 940 424 940 343 833.5 c 128,-1,4
 262 727 262 727 262 537 c 0,5,6
 262 330 262 330 337 227.5 c 128,-1,7
 412 125 412 125 555 125 c 0,8,9
 651 125 651 125 722 194.5 c 128,-1,10
 793 264 793 264 811 379 c 1,11,-1
 985 379 l 1,12,13
 958 180 958 180 847.5 76.5 c 128,-1,14
 737 -27 737 -27 571 -31 c 1,15,-1
 500 -127 l 1,16,17
 537 -119 537 -119 563 -119 c 0,18,19
 645 -119 645 -119 690 -162 c 128,-1,20
 735 -205 735 -205 735 -272 c 0,21,22
 735 -352 735 -352 670.5 -406.5 c 128,-1,23
 606 -461 606 -461 494 -461 c 0,24,25
 399 -461 399 -461 297 -416 c 1,26,-1
 332 -334 l 1,27,28
 371 -348 371 -348 398.5 -356.5 c 128,-1,29
 426 -365 426 -365 465 -365 c 0,30,31
 514 -365 514 -365 547 -343.5 c 128,-1,32
 580 -322 580 -322 580 -279 c 0,33,34
 580 -242 580 -242 549 -220.5 c 128,-1,35
 518 -199 518 -199 481 -199 c 0,36,37
 453 -199 453 -199 401 -215 c 1,38,-1
 367 -176 l 1,39,-1
 477 -27 l 1,40,41
 324 -12 324 -12 197 123 c 128,-1,42
 70 258 70 258 70 506 c 0,43,44
 70 778 70 778 205 940 c 128,-1,45
 340 1102 340 1102 584 1102 c 0,46,47
 762 1102 762 1102 867.5 995.5 c 128,-1,48
 973 889 973 889 985 711 c 1,49,-1
 811 711 l 1,0,1
EndSplineSet
Validated: 1
EndChar

StartChar: dcroat
Encoding: 273 273 241
Width: 1188
GlyphClass: 2
Flags: W
LayerCount: 2
Fore
SplineSet
258 510 m 0,0,1
 258 332 258 332 334 228.5 c 128,-1,2
 410 125 410 125 547 125 c 0,3,4
 670 125 670 125 755 210 c 128,-1,5
 840 295 840 295 840 459 c 0,6,7
 840 670 840 670 769 776.5 c 128,-1,8
 698 883 698 883 551 883 c 0,9,10
 399 883 399 883 328.5 790.5 c 128,-1,11
 258 698 258 698 258 510 c 0,0,1
1022 1317 m 1,12,-1
 1139 1317 l 1,13,-1
 1139 1204 l 1,14,-1
 1022 1204 l 1,15,-1
 1022 0 l 1,16,-1
 852 0 l 1,17,-1
 852 147 l 1,18,-1
 848 147 l 1,19,20
 752 -31 752 -31 543 -31 c 0,21,22
 315 -31 315 -31 193.5 128 c 128,-1,23
 72 287 72 287 72 537 c 0,24,25
 72 764 72 764 193.5 904 c 128,-1,26
 315 1044 315 1044 518 1044 c 0,27,28
 725 1044 725 1044 840 868 c 1,29,-1
 842 874 l 1,30,-1
 842 1204 l 1,31,-1
 451 1204 l 1,32,-1
 451 1317 l 1,33,-1
 842 1317 l 1,34,-1
 842 1470 l 1,35,-1
 1022 1470 l 1,36,-1
 1022 1317 l 1,12,-1
EndSplineSet
Validated: 1
EndChar

StartChar: eogonek
Encoding: 281 281 257
Width: 1135
GlyphClass: 2
Flags: W
LayerCount: 2
Fore
SplineSet
1042 336 m 1,0,1
 1012 170 1012 170 879 61 c 0,2,3
 825 18 825 18 783 -42 c 128,-1,4
 741 -102 741 -102 741 -180 c 0,5,6
 741 -223 741 -223 764.5 -249.5 c 128,-1,7
 788 -276 788 -276 831 -276 c 0,8,9
 872 -276 872 -276 915 -256 c 1,10,-1
 915 -385 l 1,11,12
 856 -414 856 -414 782 -414 c 0,13,14
 690 -414 690 -414 635 -365.5 c 128,-1,15
 580 -317 580 -317 580 -231 c 0,16,17
 580 -113 580 -113 690 -20 c 1,18,19
 635 -31 635 -31 571 -33 c 0,20,21
 346 -31 346 -31 214 114.5 c 128,-1,22
 82 260 82 260 82 506 c 0,23,24
 82 788 82 788 218 945 c 128,-1,25
 354 1102 354 1102 596 1102 c 0,26,27
 813 1102 813 1102 935 940 c 128,-1,28
 1057 778 1057 778 1057 477 c 1,29,-1
 274 477 l 1,30,31
 274 309 274 309 352 217 c 128,-1,32
 430 125 430 125 586 125 c 0,33,34
 696 125 696 125 775 191.5 c 128,-1,35
 854 258 854 258 862 336 c 1,36,-1
 1042 336 l 1,0,1
870 621 m 1,37,38
 856 795 856 795 778 867.5 c 128,-1,39
 700 940 700 940 571 940 c 0,40,41
 440 940 440 940 359.5 848 c 128,-1,42
 279 756 279 756 274 621 c 1,43,-1
 870 621 l 1,37,38
EndSplineSet
Validated: 1
EndChar

StartChar: hbar
Encoding: 295 295 265
Width: 1151
GlyphClass: 2
Flags: W
LayerCount: 2
Fore
SplineSet
350 870 m 1,0,-1
 354 870 l 1,1,2
 483 1044 483 1044 670 1044 c 0,3,4
 844 1044 844 1044 944 951 c 128,-1,5
 1044 858 1044 858 1044 672 c 2,6,-1
 1044 0 l 1,7,-1
 862 0 l 1,8,-1
 862 641 l 2,9,10
 862 776 862 776 811 829.5 c 128,-1,11
 760 883 760 883 649 883 c 0,12,13
 514 883 514 883 432 791.5 c 128,-1,14
 350 700 350 700 350 526 c 2,15,-1
 350 0 l 1,16,-1
 170 0 l 1,17,-1
 170 1204 l 1,18,-1
 39 1204 l 1,19,-1
 39 1317 l 1,20,-1
 170 1317 l 1,21,-1
 170 1470 l 1,22,-1
 350 1470 l 1,23,-1
 350 1317 l 1,24,-1
 727 1317 l 1,25,-1
 727 1204 l 1,26,-1
 350 1204 l 1,27,-1
 350 870 l 1,0,-1
EndSplineSet
Validated: 1
EndChar

StartChar: igrave
Encoding: 236 236 266
Width: 479
GlyphClass: 2
Flags: W
LayerCount: 2
Fore
SplineSet
346 0 m 1,0,-1
 166 0 l 1,1,-1
 166 1071 l 1,2,-1
 346 1071 l 1,3,-1
 346 0 l 1,0,-1
-16 1503 m 1,4,-1
 197 1503 l 1,5,-1
 344 1214 l 1,6,-1
 207 1214 l 1,7,-1
 -16 1503 l 1,4,-1
EndSplineSet
Validated: 1
EndChar

StartChar: iacute
Encoding: 237 237 267
Width: 479
GlyphClass: 2
Flags: W
LayerCount: 2
Fore
SplineSet
315 0 m 1,0,-1
 135 0 l 1,1,-1
 135 1071 l 1,2,-1
 315 1071 l 1,3,-1
 315 0 l 1,0,-1
272 1214 m 1,4,-1
 137 1214 l 1,5,-1
 282 1503 l 1,6,-1
 497 1503 l 1,7,-1
 272 1214 l 1,4,-1
EndSplineSet
Validated: 1
EndChar

StartChar: icircumflex
Encoding: 238 238 268
Width: 563
GlyphClass: 2
Flags: W
LayerCount: 2
Fore
SplineSet
370 0 m 1,0,-1
 190 0 l 1,1,-1
 190 1071 l 1,2,-1
 370 1071 l 1,3,-1
 370 0 l 1,0,-1
146 1214 m 1,4,-1
 -16 1214 l 1,5,-1
 187 1503 l 1,6,-1
 377 1503 l 1,7,-1
 580 1214 l 1,8,-1
 416 1214 l 1,9,-1
 281 1405 l 1,10,-1
 146 1214 l 1,4,-1
EndSplineSet
Validated: 1
EndChar

StartChar: itilde
Encoding: 297 297 269
Width: 561
GlyphClass: 2
Flags: W
LayerCount: 2
Fore
SplineSet
370 0 m 1,0,-1
 190 0 l 1,1,-1
 190 1071 l 1,2,-1
 370 1071 l 1,3,-1
 370 0 l 1,0,-1
641 1479 m 1,4,5
 629 1374 629 1374 573.5 1314.5 c 128,-1,6
 518 1255 518 1255 437 1255 c 0,7,8
 400 1255 400 1255 334 1276 c 2,9,-1
 234 1311 l 2,10,11
 170 1331 170 1331 138 1331 c 0,12,13
 64 1331 64 1331 41 1241 c 1,14,-1
 -57 1241 l 1,15,16
 -41 1350 -41 1350 13.5 1405 c 128,-1,17
 68 1460 68 1460 156 1460 c 0,18,19
 211 1460 211 1460 260 1442 c 2,20,-1
 371 1401 l 2,21,22
 418 1384 418 1384 441 1384 c 0,23,24
 525 1384 525 1384 541 1479 c 1,25,-1
 641 1479 l 1,4,5
EndSplineSet
Validated: 1
EndChar

StartChar: idieresis
Encoding: 239 239 270
Width: 561
GlyphClass: 2
Flags: W
LayerCount: 2
Fore
SplineSet
368 0 m 1,0,-1
 188 0 l 1,1,-1
 188 1071 l 1,2,-1
 368 1071 l 1,3,-1
 368 0 l 1,0,-1
539 1262 m 1,4,-1
 355 1262 l 1,5,-1
 355 1470 l 1,6,-1
 539 1470 l 1,7,-1
 539 1262 l 1,4,-1
207 1262 m 1,8,-1
 23 1262 l 1,9,-1
 23 1470 l 1,10,-1
 207 1470 l 1,11,-1
 207 1262 l 1,8,-1
EndSplineSet
Validated: 1
EndChar

StartChar: imacron
Encoding: 299 299 271
Width: 557
GlyphClass: 2
Flags: W
LayerCount: 2
Fore
SplineSet
368 0 m 1,0,-1
 188 0 l 1,1,-1
 188 1071 l 1,2,-1
 368 1071 l 1,3,-1
 368 0 l 1,0,-1
601 1274 m 1,4,-1
 -43 1274 l 1,5,-1
 -43 1391 l 1,6,-1
 601 1391 l 1,7,-1
 601 1274 l 1,4,-1
EndSplineSet
Validated: 1
EndChar

StartChar: ibreve
Encoding: 301 301 272
Width: 565
GlyphClass: 2
Flags: W
LayerCount: 2
Fore
SplineSet
372 0 m 1,0,-1
 192 0 l 1,1,-1
 192 1071 l 1,2,-1
 372 1071 l 1,3,-1
 372 0 l 1,0,-1
-24 1497 m 1,4,-1
 76 1497 l 1,5,6
 109 1335 109 1335 285 1335 c 256,7,8
 461 1335 461 1335 494 1497 c 1,9,-1
 594 1497 l 1,10,11
 580 1219 580 1219 285 1219 c 256,12,13
 -10 1219 -10 1219 -24 1497 c 1,4,-1
EndSplineSet
Validated: 1
EndChar

StartChar: uni1EC9
Encoding: 7881 7881 273
Width: 451
GlyphClass: 2
Flags: W
LayerCount: 2
Fore
SplineSet
315 0 m 1,0,-1
 135 0 l 1,1,-1
 135 1071 l 1,2,-1
 315 1071 l 1,3,-1
 315 0 l 1,0,-1
282 1211 m 1,4,-1
 168 1211 l 1,5,6
 168 1246 168 1246 184 1269 c 128,-1,7
 200 1292 200 1292 237 1312 c 0,8,9
 271 1330 271 1330 292 1346 c 128,-1,10
 313 1362 313 1362 313 1395 c 0,11,12
 313 1433 313 1433 288.5 1452 c 128,-1,13
 264 1471 264 1471 232 1471 c 0,14,15
 196 1471 196 1471 171 1450 c 128,-1,16
 146 1429 146 1429 141 1388 c 1,17,-1
 30 1388 l 1,18,19
 30 1474 30 1474 90.5 1522 c 128,-1,20
 151 1570 151 1570 235 1570 c 0,21,22
 320 1570 320 1570 375.5 1524 c 128,-1,23
 431 1478 431 1478 431 1399 c 0,24,25
 431 1360 431 1360 413 1330.5 c 128,-1,26
 395 1301 395 1301 352 1273 c 0,27,28
 319 1251 319 1251 301.5 1239 c 128,-1,29
 284 1227 284 1227 282 1211 c 1,4,-1
EndSplineSet
Validated: 1
EndChar

StartChar: iogonek
Encoding: 303 303 274
Width: 451
GlyphClass: 2
Flags: W
LayerCount: 2
Fore
SplineSet
315 0 m 1,0,1
 260 -31 260 -31 229.5 -76 c 128,-1,2
 199 -121 199 -121 199 -180 c 0,3,4
 199 -223 199 -223 222.5 -249.5 c 128,-1,5
 246 -276 246 -276 289 -276 c 0,6,7
 330 -276 330 -276 373 -256 c 1,8,-1
 373 -385 l 1,9,10
 313 -414 313 -414 240 -414 c 0,11,12
 147 -414 147 -414 92 -365.5 c 128,-1,13
 37 -317 37 -317 37 -231 c 0,14,15
 37 -100 37 -100 174 0 c 1,16,-1
 135 0 l 1,17,-1
 135 1071 l 1,18,-1
 315 1071 l 1,19,-1
 315 0 l 1,0,1
135 1266 m 1,20,-1
 135 1470 l 1,21,-1
 315 1470 l 1,22,-1
 315 1266 l 1,23,-1
 135 1266 l 1,20,-1
EndSplineSet
Validated: 1
EndChar

StartChar: dotlessi
Encoding: 305 305 276
Width: 451
GlyphClass: 2
Flags: W
LayerCount: 2
Fore
SplineSet
315 0 m 1,0,-1
 135 0 l 1,1,-1
 135 1071 l 1,2,-1
 315 1071 l 1,3,-1
 315 0 l 1,0,-1
EndSplineSet
Validated: 1
EndChar

StartChar: jcircumflex
Encoding: 309 309 278
Width: 563
GlyphClass: 2
Flags: W
LayerCount: 2
Fore
SplineSet
145 1214 m 1,0,-1
 -16 1214 l 1,1,-1
 186 1503 l 1,2,-1
 377 1503 l 1,3,-1
 580 1214 l 1,4,-1
 416 1214 l 1,5,-1
 281 1405 l 1,6,-1
 145 1214 l 1,0,-1
369 -158 m 2,7,8
 369 -311 369 -311 296 -370.5 c 128,-1,9
 223 -430 223 -430 94 -430 c 0,10,11
 57 -430 57 -430 18 -424 c 1,12,-1
 18 -268 l 1,13,-1
 66 -268 l 2,14,15
 141 -268 141 -268 164.5 -245.5 c 128,-1,16
 188 -223 188 -223 188 -137 c 2,17,-1
 188 1071 l 1,18,-1
 369 1071 l 1,19,-1
 369 -158 l 2,7,8
EndSplineSet
Validated: 1
EndChar

StartChar: kgreenlandic
Encoding: 312 312 280
Width: 1024
GlyphClass: 2
Flags: W
LayerCount: 2
Fore
SplineSet
1026 0 m 1,0,-1
 795 0 l 1,1,-1
 461 541 l 1,2,-1
 311 406 l 1,3,-1
 311 0 l 1,4,-1
 137 0 l 1,5,-1
 137 1071 l 1,6,-1
 311 1071 l 1,7,-1
 311 618 l 1,8,-1
 772 1071 l 1,9,-1
 1001 1071 l 1,10,-1
 592 672 l 1,11,-1
 1026 0 l 1,0,-1
EndSplineSet
Validated: 1
EndChar

StartChar: lslash
Encoding: 322 322 285
Width: 489
GlyphClass: 2
Flags: W
LayerCount: 2
Fore
SplineSet
336 932 m 1,0,-1
 473 1014 l 1,1,-1
 473 866 l 1,2,-1
 336 784 l 1,3,-1
 336 0 l 1,4,-1
 156 0 l 1,5,-1
 156 682 l 1,6,-1
 33 608 l 1,7,-1
 33 758 l 1,8,-1
 156 829 l 1,9,-1
 156 1470 l 1,10,-1
 336 1470 l 1,11,-1
 336 932 l 1,0,-1
EndSplineSet
Validated: 1
EndChar

StartChar: ohorn
Encoding: 417 417 306
Width: 1346
GlyphClass: 2
Flags: W
LayerCount: 2
Fore
SplineSet
260 537 m 0,0,1
 260 358 260 358 341 242.5 c 128,-1,2
 422 127 422 127 571 127 c 0,3,4
 725 127 725 127 805 248 c 128,-1,5
 885 369 885 369 885 537 c 0,6,7
 885 707 885 707 805 825.5 c 128,-1,8
 725 944 725 944 571 944 c 0,9,10
 428 944 428 944 344 832.5 c 128,-1,11
 260 721 260 721 260 537 c 0,0,1
76 537 m 0,12,13
 76 776 76 776 209 939 c 128,-1,14
 342 1102 342 1102 571 1102 c 0,15,16
 733 1102 733 1102 842.5 1025 c 128,-1,17
 952 948 952 948 1013 813 c 1,18,19
 1081 813 1081 813 1109 857 c 128,-1,20
 1137 901 1137 901 1137 981 c 0,21,22
 1137 1007 1137 1007 1131 1071 c 1,23,-1
 1291 1071 l 1,24,25
 1301 1017 1301 1017 1301 957 c 0,26,27
 1301 814 1301 814 1236 751.5 c 128,-1,28
 1171 689 1171 689 1054 687 c 1,29,30
 1069 618 1069 618 1069 537 c 0,31,32
 1069 301 1069 301 938 135 c 128,-1,33
 807 -31 807 -31 571 -31 c 0,34,35
 344 -31 344 -31 210 130 c 128,-1,36
 76 291 76 291 76 537 c 0,12,13
EndSplineSet
Validated: 1
EndChar

StartChar: oslash
Encoding: 248 248 312
Width: 1145
GlyphClass: 2
Flags: W
LayerCount: 2
Fore
SplineSet
76 537 m 0,0,1
 76 776 76 776 209 939 c 128,-1,2
 342 1102 342 1102 571 1102 c 0,3,4
 778 1102 778 1102 907 971 c 1,5,-1
 1036 1116 l 1,6,-1
 1100 1063 l 1,7,-1
 961 905 l 1,8,9
 1069 752 1069 752 1069 537 c 0,10,11
 1069 301 1069 301 938 135 c 128,-1,12
 807 -31 807 -31 571 -31 c 0,13,14
 373 -31 373 -31 244 94 c 1,15,-1
 121 -45 l 1,16,-1
 57 8 l 1,17,-1
 188 158 l 1,18,19
 76 309 76 309 76 537 c 0,0,1
260 537 m 0,20,21
 260 395 260 395 309 295 c 1,22,-1
 793 842 l 1,23,24
 715 944 715 944 571 944 c 0,25,26
 428 944 428 944 344 832.5 c 128,-1,27
 260 721 260 721 260 537 c 0,20,21
571 127 m 0,28,29
 725 127 725 127 805 248 c 128,-1,30
 885 369 885 369 885 537 c 0,31,32
 885 666 885 666 838 766 c 1,33,-1
 356 221 l 1,34,35
 434 127 434 127 571 127 c 0,28,29
EndSplineSet
Validated: 1
EndChar

StartChar: oe
Encoding: 339 339 314
Width: 1927
GlyphClass: 2
Flags: W
LayerCount: 2
Fore
SplineSet
1663 621 m 1,0,1
 1655 774 1655 774 1580 857 c 128,-1,2
 1505 940 1505 940 1366 940 c 0,3,4
 1235 940 1235 940 1151 842.5 c 128,-1,5
 1067 745 1067 745 1067 621 c 1,6,-1
 1663 621 l 1,0,1
260 537 m 0,7,8
 260 350 260 350 344 238.5 c 128,-1,9
 428 127 428 127 571 127 c 0,10,11
 721 127 721 127 803 241.5 c 128,-1,12
 885 356 885 356 885 537 c 0,13,14
 885 707 885 707 805 826.5 c 128,-1,15
 725 946 725 946 571 946 c 0,16,17
 422 946 422 946 341 830.5 c 128,-1,18
 260 715 260 715 260 537 c 0,7,8
1835 336 m 1,19,20
 1802 174 1802 174 1686.5 71.5 c 128,-1,21
 1571 -31 1571 -31 1356 -31 c 0,22,23
 1102 -31 1102 -31 956 176 c 1,24,25
 846 -31 846 -31 571 -29 c 0,26,27
 342 -29 342 -29 209 133 c 128,-1,28
 76 295 76 295 76 537 c 0,29,30
 76 766 76 766 206 934 c 128,-1,31
 336 1102 336 1102 571 1102 c 0,32,33
 836 1102 836 1102 975 885 c 1,34,35
 1038 989 1038 989 1138.5 1045.5 c 128,-1,36
 1239 1102 1239 1102 1389 1102 c 0,37,38
 1604 1102 1604 1102 1726.5 943 c 128,-1,39
 1849 784 1849 784 1849 477 c 1,40,-1
 1067 477 l 1,41,42
 1067 309 1067 309 1145 217 c 128,-1,43
 1223 125 1223 125 1380 125 c 0,44,45
 1487 125 1487 125 1566 187.5 c 128,-1,46
 1645 250 1645 250 1657 336 c 1,47,-1
 1835 336 l 1,19,20
EndSplineSet
Validated: 33
EndChar

StartChar: scedilla
Encoding: 351 351 321
Width: 1024
GlyphClass: 2
Flags: W
LayerCount: 2
Fore
SplineSet
739 766 m 1,0,1
 735 862 735 862 670.5 904 c 128,-1,2
 606 946 606 946 485 946 c 0,3,4
 397 946 397 946 334.5 907 c 128,-1,5
 272 868 272 868 272 795 c 0,6,7
 272 737 272 737 309 709.5 c 128,-1,8
 346 682 346 682 469 651 c 2,9,-1
 647 606 l 2,10,11
 809 565 809 565 878.5 501.5 c 128,-1,12
 948 438 948 438 948 324 c 0,13,14
 948 166 948 166 838.5 71.5 c 128,-1,15
 729 -23 729 -23 547 -31 c 1,16,-1
 475 -127 l 1,17,18
 512 -119 512 -119 539 -119 c 0,19,20
 621 -119 621 -119 666 -162 c 128,-1,21
 711 -205 711 -205 711 -272 c 0,22,23
 711 -352 711 -352 646.5 -406.5 c 128,-1,24
 582 -461 582 -461 469 -461 c 0,25,26
 375 -461 375 -461 272 -416 c 1,27,-1
 307 -334 l 1,28,29
 344 -348 344 -348 372.5 -356.5 c 128,-1,30
 401 -365 401 -365 440 -365 c 0,31,32
 489 -365 489 -365 522 -343.5 c 128,-1,33
 555 -322 555 -322 555 -279 c 0,34,35
 555 -242 555 -242 524.5 -220.5 c 128,-1,36
 494 -199 494 -199 457 -199 c 0,37,38
 428 -199 428 -199 377 -215 c 1,39,-1
 342 -176 l 1,40,-1
 453 -29 l 1,41,42
 281 -18 281 -18 175.5 69 c 128,-1,43
 70 156 70 156 66 344 c 1,44,-1
 240 344 l 1,45,46
 244 233 244 233 313.5 179 c 128,-1,47
 383 125 383 125 522 125 c 0,48,49
 635 125 635 125 701.5 170 c 128,-1,50
 768 215 768 215 768 295 c 0,51,52
 768 352 768 352 725 386 c 128,-1,53
 682 420 682 420 555 449 c 2,54,-1
 346 500 l 2,55,56
 219 532 219 532 158.5 595.5 c 128,-1,57
 98 659 98 659 98 760 c 0,58,59
 98 918 98 918 211 1010 c 128,-1,60
 324 1102 324 1102 506 1102 c 0,61,62
 700 1102 700 1102 803.5 1007.5 c 128,-1,63
 907 913 907 913 913 766 c 1,64,-1
 739 766 l 1,0,1
EndSplineSet
Validated: 1
EndChar

StartChar: longs
Encoding: 383 383 324
Width: 518
GlyphClass: 2
Flags: W
LayerCount: 2
Fore
SplineSet
315 0 m 1,0,-1
 135 0 l 1,1,-1
 135 1255 l 2,2,3
 135 1376 135 1376 209 1433.5 c 128,-1,4
 283 1491 283 1491 414 1491 c 0,5,6
 451 1491 451 1491 496 1487 c 1,7,-1
 496 1325 l 1,8,9
 459 1329 459 1329 422 1329 c 0,10,11
 362 1329 362 1329 338.5 1299.5 c 128,-1,12
 315 1270 315 1270 315 1204 c 2,13,-1
 315 0 l 1,0,-1
EndSplineSet
Validated: 1
EndChar

StartChar: germandbls
Encoding: 223 223 325
Width: 1233
GlyphClass: 2
Flags: W
LayerCount: 2
Fore
SplineSet
129 1090 m 2,0,1
 129 1278 129 1278 256 1384.5 c 128,-1,2
 383 1491 383 1491 598 1491 c 0,3,4
 819 1491 819 1491 951 1391.5 c 128,-1,5
 1083 1292 1083 1292 1083 1122 c 0,6,7
 1083 922 1083 922 909 819 c 1,8,9
 1024 782 1024 782 1087.5 682 c 128,-1,10
 1151 582 1151 582 1151 479 c 0,11,12
 1151 246 1151 246 1019 107.5 c 128,-1,13
 887 -31 887 -31 637 -31 c 0,14,15
 580 -31 580 -31 528 -16 c 1,16,-1
 528 137 l 1,17,18
 573 131 573 131 618 131 c 0,19,20
 786 131 786 131 876.5 207 c 128,-1,21
 967 283 967 283 967 438 c 0,22,23
 967 582 967 582 882 653.5 c 128,-1,24
 797 725 797 725 618 725 c 0,25,26
 571 725 571 725 539 717 c 1,27,-1
 539 879 l 1,28,29
 567 874 567 874 586 874 c 0,30,31
 741 874 741 874 822 932.5 c 128,-1,32
 903 991 903 991 903 1106 c 0,33,34
 903 1208 903 1208 821 1271.5 c 128,-1,35
 739 1335 739 1335 596 1335 c 256,36,37
 453 1335 453 1335 381 1267.5 c 128,-1,38
 309 1200 309 1200 309 1044 c 2,39,-1
 309 0 l 1,40,-1
 129 0 l 1,41,-1
 129 1090 l 2,0,1
EndSplineSet
Validated: 1
EndChar

StartChar: tbar
Encoding: 359 359 329
Width: 567
GlyphClass: 2
Flags: W
LayerCount: 2
Fore
SplineSet
352 932 m 1,0,-1
 352 770 l 1,1,-1
 524 770 l 1,2,-1
 524 633 l 1,3,-1
 352 633 l 1,4,-1
 352 225 l 2,5,6
 352 184 352 184 374.5 162.5 c 128,-1,7
 397 141 397 141 455 141 c 2,8,-1
 524 141 l 1,9,-1
 524 0 l 1,10,11
 426 -14 426 -14 389 -14 c 0,12,13
 276 -14 276 -14 224 40 c 128,-1,14
 172 94 172 94 172 215 c 2,15,-1
 172 633 l 1,16,-1
 27 633 l 1,17,-1
 27 770 l 1,18,-1
 172 770 l 1,19,-1
 172 932 l 1,20,-1
 27 932 l 1,21,-1
 27 1071 l 1,22,-1
 172 1071 l 1,23,-1
 172 1370 l 1,24,-1
 352 1370 l 1,25,-1
 352 1071 l 1,26,-1
 524 1071 l 1,27,-1
 524 932 l 1,28,-1
 352 932 l 1,0,-1
EndSplineSet
Validated: 1
EndChar

StartChar: uogonek
Encoding: 371 371 340
Width: 1122
GlyphClass: 2
Flags: W
LayerCount: 2
Fore
SplineSet
987 0 m 1,0,1
 926 -16 926 -16 882 -68.5 c 128,-1,2
 838 -121 838 -121 838 -180 c 0,3,4
 838 -223 838 -223 862.5 -249.5 c 128,-1,5
 887 -276 887 -276 928 -276 c 256,6,7
 969 -276 969 -276 1012 -256 c 1,8,-1
 1012 -385 l 1,9,10
 954 -414 954 -414 879 -414 c 0,11,12
 788 -414 788 -414 732 -365.5 c 128,-1,13
 676 -317 676 -317 676 -231 c 0,14,15
 676 -98 676 -98 817 0 c 1,16,-1
 817 156 l 1,17,-1
 813 160 l 1,18,19
 711 -31 711 -31 473 -31 c 0,20,21
 319 -31 319 -31 222 53 c 128,-1,22
 125 137 125 137 125 301 c 2,23,-1
 125 1071 l 1,24,-1
 305 1071 l 1,25,-1
 305 360 l 2,26,27
 305 242 305 242 358.5 183.5 c 128,-1,28
 412 125 412 125 512 125 c 0,29,30
 651 125 651 125 729 223.5 c 128,-1,31
 807 322 807 322 807 481 c 2,32,-1
 807 1071 l 1,33,-1
 987 1071 l 1,34,-1
 987 0 l 1,0,1
EndSplineSet
Validated: 1
EndChar

StartChar: uhorn
Encoding: 432 432 342
Width: 1367
GlyphClass: 2
Flags: W
LayerCount: 2
Fore
SplineSet
817 156 m 1,0,-1
 813 160 l 1,1,2
 711 -31 711 -31 473 -31 c 0,3,4
 319 -31 319 -31 222 53 c 128,-1,5
 125 137 125 137 125 301 c 2,6,-1
 125 1071 l 1,7,-1
 305 1071 l 1,8,-1
 305 360 l 2,9,10
 305 242 305 242 358.5 183.5 c 128,-1,11
 412 125 412 125 512 125 c 0,12,13
 651 125 651 125 729 223.5 c 128,-1,14
 807 322 807 322 807 481 c 2,15,-1
 807 1071 l 1,16,-1
 987 1071 l 1,17,-1
 987 817 l 1,18,19
 1011 813 1011 813 1034 813 c 0,20,21
 1102 813 1102 813 1130 857 c 128,-1,22
 1158 901 1158 901 1158 981 c 0,23,24
 1158 1007 1158 1007 1152 1071 c 1,25,-1
 1312 1071 l 1,26,27
 1322 1017 1322 1017 1322 957 c 0,28,29
 1322 814 1322 814 1256 750.5 c 128,-1,30
 1190 687 1190 687 1067 687 c 0,31,32
 1033 687 1033 687 987 693 c 1,33,-1
 987 0 l 1,34,-1
 817 0 l 1,35,-1
 817 156 l 1,0,-1
EndSplineSet
Validated: 1
EndChar

StartChar: eth
Encoding: 240 240 363
Width: 1147
GlyphClass: 2
Flags: W
LayerCount: 2
Fore
SplineSet
256 506 m 0,0,1
 256 348 256 348 337 236.5 c 128,-1,2
 418 125 418 125 567 125 c 0,3,4
 717 125 717 125 797 238.5 c 128,-1,5
 877 352 877 352 877 506 c 0,6,7
 877 657 877 657 800 773 c 128,-1,8
 723 889 723 889 567 889 c 0,9,10
 412 889 412 889 334 777.5 c 128,-1,11
 256 666 256 666 256 506 c 0,0,1
739 1319 m 1,12,13
 1063 1024 1063 1024 1063 578 c 0,14,15
 1063 313 1063 313 931 141 c 128,-1,16
 799 -31 799 -31 571 -31 c 0,17,18
 346 -31 346 -31 208 121.5 c 128,-1,19
 70 274 70 274 70 506 c 0,20,21
 70 733 70 733 200 888.5 c 128,-1,22
 330 1044 330 1044 539 1044 c 0,23,24
 705 1044 705 1044 813 932 c 1,25,-1
 817 936 l 1,26,27
 752 1102 752 1102 590 1247 c 1,28,-1
 336 1120 l 1,29,-1
 250 1206 l 1,30,-1
 492 1323 l 1,31,32
 389 1401 389 1401 307 1436 c 1,33,-1
 459 1509 l 1,34,35
 553 1473 553 1473 645 1401 c 1,36,-1
 862 1503 l 1,37,-1
 958 1423 l 1,38,-1
 739 1319 l 1,12,13
EndSplineSet
Validated: 1
EndChar

StartChar: thorn
Encoding: 254 254 364
Width: 1157
GlyphClass: 2
Flags: W
LayerCount: 2
Fore
SplineSet
307 485 m 0,0,1
 307 301 307 301 395 213 c 128,-1,2
 483 125 483 125 600 125 c 0,3,4
 735 125 735 125 812 233.5 c 128,-1,5
 889 342 889 342 889 539 c 0,6,7
 889 750 889 750 815 845 c 128,-1,8
 741 940 741 940 596 940 c 256,9,10
 451 940 451 940 379 826.5 c 128,-1,11
 307 713 307 713 307 485 c 0,0,1
135 1470 m 1,12,-1
 315 1470 l 1,13,-1
 315 924 l 1,14,-1
 319 924 l 1,15,16
 426 1102 426 1102 629 1102 c 0,17,18
 834 1102 834 1102 954.5 952.5 c 128,-1,19
 1075 803 1075 803 1075 567 c 0,20,21
 1075 311 1075 311 954.5 140 c 128,-1,22
 834 -31 834 -31 604 -31 c 0,23,24
 420 -31 420 -31 319 113 c 1,25,-1
 315 113 l 1,26,-1
 315 -424 l 1,27,-1
 135 -424 l 1,28,-1
 135 1470 l 1,12,-1
EndSplineSet
Validated: 1
EndChar

StartChar: eng
Encoding: 331 331 365
Width: 1130
GlyphClass: 2
Flags: W
LayerCount: 2
Fore
SplineSet
135 1071 m 1,0,-1
 305 1071 l 1,1,-1
 305 920 l 1,2,-1
 309 920 l 1,3,4
 436 1102 436 1102 633 1102 c 0,5,6
 815 1102 815 1102 911.5 1005.5 c 128,-1,7
 1008 909 1008 909 1008 729 c 2,8,-1
 1008 -18 l 2,9,10
 1008 -223 1008 -223 898 -328.5 c 128,-1,11
 788 -434 788 -434 594 -434 c 1,12,-1
 594 -272 l 1,13,14
 717 -272 717 -272 772 -207.5 c 128,-1,15
 827 -143 827 -143 827 -31 c 2,16,-1
 827 659 l 2,17,18
 827 811 827 811 774 875.5 c 128,-1,19
 721 940 721 940 598 940 c 0,20,21
 477 940 477 940 396 848 c 128,-1,22
 315 756 315 756 315 584 c 2,23,-1
 315 0 l 1,24,-1
 135 0 l 1,25,-1
 135 1071 l 1,0,-1
EndSplineSet
Validated: 1
EndChar

StartChar: ampersand
Encoding: 38 38 371
Width: 1341
GlyphClass: 2
Flags: W
LayerCount: 2
Fore
SplineSet
582 899 m 1,0,1
 766 1014 766 1014 766 1153 c 0,2,3
 766 1233 766 1233 720 1274 c 128,-1,4
 674 1315 674 1315 606 1315 c 0,5,6
 522 1315 522 1315 478 1271 c 128,-1,7
 434 1227 434 1227 434 1155 c 0,8,9
 434 1044 434 1044 582 899 c 1,0,1
516 694 m 1,10,11
 389 616 389 616 326.5 546.5 c 128,-1,12
 264 477 264 477 264 369 c 0,13,14
 264 258 264 258 348 191.5 c 128,-1,15
 432 125 432 125 530 125 c 0,16,17
 725 125 725 125 850 289 c 1,18,-1
 516 694 l 1,10,11
1317 0 m 1,19,-1
 1081 0 l 1,20,-1
 944 168 l 1,21,22
 868 74 868 74 767 21.5 c 128,-1,23
 666 -31 666 -31 516 -31 c 0,24,25
 311 -31 311 -31 198.5 81 c 128,-1,26
 86 193 86 193 86 369 c 0,27,28
 86 530 86 530 172 631.5 c 128,-1,29
 258 733 258 733 418 817 c 1,30,31
 346 897 346 897 303 970.5 c 128,-1,32
 260 1044 260 1044 260 1143 c 0,33,34
 260 1284 260 1284 356.5 1377 c 128,-1,35
 453 1470 453 1470 608 1470 c 0,36,37
 764 1470 764 1470 851 1384 c 128,-1,38
 938 1298 938 1298 938 1167 c 0,39,40
 938 1044 938 1044 870.5 954 c 128,-1,41
 803 864 803 864 676 782 c 1,42,-1
 942 463 l 1,43,44
 985 555 985 555 1004 692 c 1,45,-1
 1174 692 l 1,46,47
 1151 498 1151 498 1055 317 c 1,48,-1
 1317 0 l 1,19,-1
EndSplineSet
Validated: 1
EndChar

StartChar: asuperior
Encoding: 63209 63209 372
Width: 716
GlyphClass: 2
Flags: W
LayerCount: 2
Fore
SplineSet
484 1198 m 1,0,1
 465 1184 465 1184 432.5 1177 c 128,-1,2
 400 1170 400 1170 312 1157 c 0,3,4
 243 1147 243 1147 212 1123 c 128,-1,5
 181 1099 181 1099 181 1060 c 0,6,7
 181 957 181 957 293 957 c 0,8,9
 365 957 365 957 424.5 997 c 128,-1,10
 484 1037 484 1037 484 1097 c 2,11,-1
 484 1198 l 1,0,1
81 1317 m 1,12,13
 84 1424 84 1424 155 1476.5 c 128,-1,14
 226 1529 226 1529 359 1529 c 0,15,16
 466 1529 466 1529 538 1484.5 c 128,-1,17
 610 1440 610 1440 610 1352 c 2,18,-1
 610 986 l 2,19,20
 610 949 610 949 648 949 c 0,21,22
 663 949 663 949 685 954 c 1,23,-1
 685 877 l 1,24,25
 651 862 651 862 616 862 c 0,26,27
 490 862 490 862 489 958 c 1,28,29
 395 858 395 858 252 858 c 0,30,31
 167 858 167 858 107.5 907 c 128,-1,32
 48 956 48 956 48 1044 c 0,33,34
 48 1129 48 1129 96.5 1180.5 c 128,-1,35
 145 1232 145 1232 245 1244 c 2,36,-1
 426 1264 l 2,37,38
 461 1268 461 1268 472.5 1287.5 c 128,-1,39
 484 1307 484 1307 484 1335 c 0,40,41
 484 1430 484 1430 340 1430 c 0,42,43
 274 1430 274 1430 241 1401.5 c 128,-1,44
 208 1373 208 1373 201 1317 c 1,45,-1
 81 1317 l 1,12,13
EndSplineSet
Validated: 1
EndChar

StartChar: bsuperior
Encoding: 63210 63210 373
Width: 729
GlyphClass: 2
Flags: W
LayerCount: 2
Fore
SplineSet
538 1193 m 0,0,1
 538 1313 538 1313 497 1368 c 128,-1,2
 456 1423 456 1423 374 1423 c 0,3,4
 284 1423 284 1423 248 1349.5 c 128,-1,5
 212 1276 212 1276 212 1163 c 0,6,7
 212 1060 212 1060 261 1009 c 128,-1,8
 310 958 310 958 376 958 c 0,9,10
 452 958 452 958 495 1020 c 128,-1,11
 538 1082 538 1082 538 1193 c 0,0,1
87 875 m 1,12,-1
 87 1740 l 1,13,-1
 216 1740 l 1,14,-1
 216 1429 l 1,15,-1
 218 1429 l 1,16,17
 290 1529 290 1529 405 1529 c 0,18,19
 522 1529 522 1529 599 1443 c 128,-1,20
 676 1357 676 1357 676 1210 c 0,21,22
 676 1051 676 1051 601 953.5 c 128,-1,23
 526 856 526 856 391 856 c 0,24,25
 269 856 269 856 212 953 c 1,26,-1
 210 953 l 1,27,-1
 210 875 l 1,28,-1
 87 875 l 1,12,-1
EndSplineSet
Validated: 1
EndChar

StartChar: c.superior
Encoding: 65537 -1 374
Width: 660
GlyphClass: 2
Flags: W
LayerCount: 2
Fore
SplineSet
497 1298 m 1,0,1
 475 1423 475 1423 351 1423 c 0,2,3
 266 1423 266 1423 223.5 1358.5 c 128,-1,4
 181 1294 181 1294 181 1195 c 0,5,6
 181 1076 181 1076 224.5 1016.5 c 128,-1,7
 268 957 268 957 349 957 c 0,8,9
 462 957 462 957 497 1098 c 1,10,-1
 622 1098 l 1,11,12
 611 993 611 993 539.5 924.5 c 128,-1,13
 468 856 468 856 346 856 c 0,14,15
 213 856 213 856 128.5 942 c 128,-1,16
 44 1028 44 1028 44 1177 c 0,17,18
 44 1339 44 1339 128 1434 c 128,-1,19
 212 1529 212 1529 369 1529 c 0,20,21
 481 1529 481 1529 546.5 1467 c 128,-1,22
 612 1405 612 1405 622 1298 c 1,23,-1
 497 1298 l 1,0,1
EndSplineSet
Validated: 1
EndChar

StartChar: dsuperior
Encoding: 63211 63211 375
Width: 736
GlyphClass: 2
Flags: W
LayerCount: 2
Fore
SplineSet
184 1190 m 0,0,1
 184 1079 184 1079 229 1018.5 c 128,-1,2
 274 958 274 958 351 958 c 0,3,4
 419 958 419 958 469.5 1009 c 128,-1,5
 520 1060 520 1060 520 1163 c 0,6,7
 520 1301 520 1301 477.5 1362 c 128,-1,8
 435 1423 435 1423 357 1423 c 0,9,10
 274 1423 274 1423 229 1367.5 c 128,-1,11
 184 1312 184 1312 184 1190 c 0,0,1
651 875 m 1,12,-1
 528 875 l 1,13,-1
 528 962 l 1,14,-1
 526 962 l 1,15,16
 467 857 467 857 338 857 c 0,17,18
 203 857 203 857 127 952.5 c 128,-1,19
 51 1048 51 1048 51 1207 c 0,20,21
 51 1351 51 1351 128 1440 c 128,-1,22
 205 1529 205 1529 327 1529 c 0,23,24
 451 1529 451 1529 519 1421 c 1,25,-1
 522 1425 l 1,26,-1
 522 1740 l 1,27,-1
 651 1740 l 1,28,-1
 651 875 l 1,12,-1
EndSplineSet
Validated: 1
EndChar

StartChar: esuperior
Encoding: 63212 63212 376
Width: 716
GlyphClass: 2
Flags: W
LayerCount: 2
Fore
SplineSet
533 1252 m 1,0,1
 529 1330 529 1330 487 1376.5 c 128,-1,2
 445 1423 445 1423 360 1423 c 0,3,4
 287 1423 287 1423 237.5 1371.5 c 128,-1,5
 188 1320 188 1320 188 1252 c 1,6,-1
 533 1252 l 1,0,1
657 1072 m 1,7,8
 631 963 631 963 554.5 909 c 128,-1,9
 478 855 478 855 354 855 c 0,10,11
 215 855 215 855 133 944 c 128,-1,12
 51 1033 51 1033 51 1177 c 0,13,14
 51 1336 51 1336 136 1432.5 c 128,-1,15
 221 1529 221 1529 375 1529 c 0,16,17
 507 1529 507 1529 586.5 1436.5 c 128,-1,18
 666 1344 666 1344 666 1159 c 1,19,-1
 188 1159 l 1,20,21
 188 956 188 956 369 956 c 0,22,23
 431 956 431 956 475.5 989.5 c 128,-1,24
 520 1023 520 1023 528 1072 c 1,25,-1
 657 1072 l 1,7,8
EndSplineSet
Validated: 1
EndChar

StartChar: f.superior
Encoding: 65538 -1 377
Width: 373
GlyphClass: 2
Flags: W
LayerCount: 2
Fore
SplineSet
238 1413 m 1,0,-1
 238 875 l 1,1,-1
 109 875 l 1,2,-1
 109 1413 l 1,3,-1
 16 1413 l 1,4,-1
 16 1509 l 1,5,-1
 109 1509 l 1,6,-1
 109 1608 l 2,7,8
 109 1680 109 1680 160 1714 c 128,-1,9
 211 1748 211 1748 300 1748 c 0,10,11
 321 1748 321 1748 351 1745 c 1,12,-1
 351 1639 l 1,13,14
 324 1642 324 1642 305 1642 c 0,15,16
 268 1642 268 1642 253 1625.5 c 128,-1,17
 238 1609 238 1609 238 1572 c 2,18,-1
 238 1509 l 1,19,-1
 351 1509 l 1,20,-1
 351 1413 l 1,21,-1
 238 1413 l 1,0,-1
EndSplineSet
Validated: 1
EndChar

StartChar: g.superior
Encoding: 65539 -1 378
Width: 722
GlyphClass: 2
Flags: W
LayerCount: 2
Fore
SplineSet
183 1195 m 0,0,1
 183 1078 183 1078 229.5 1018.5 c 128,-1,2
 276 959 276 959 350 959 c 0,3,4
 421 959 421 959 470 1011.5 c 128,-1,5
 519 1064 519 1064 519 1164 c 0,6,7
 519 1293 519 1293 476.5 1358 c 128,-1,8
 434 1423 434 1423 352 1423 c 0,9,10
 266 1423 266 1423 224.5 1365.5 c 128,-1,11
 183 1308 183 1308 183 1195 c 0,0,1
643 928 m 2,12,13
 643 752 643 752 562.5 678 c 128,-1,14
 482 604 482 604 329 604 c 0,15,16
 220 604 220 604 150 656 c 128,-1,17
 80 708 80 708 71 798 c 1,18,-1
 200 798 l 1,19,20
 207 756 207 756 244.5 729 c 128,-1,21
 282 702 282 702 339 702 c 0,22,23
 425 702 425 702 469.5 747.5 c 128,-1,24
 514 793 514 793 514 902 c 2,25,-1
 514 946 l 1,26,-1
 511 946 l 1,27,28
 456 858 456 858 338 858 c 0,29,30
 198 858 198 858 124 958 c 128,-1,31
 50 1058 50 1058 50 1212 c 0,32,33
 50 1349 50 1349 122 1439 c 128,-1,34
 194 1529 194 1529 323 1529 c 0,35,36
 446 1529 446 1529 518 1420 c 1,37,-1
 520 1420 l 1,38,-1
 520 1509 l 1,39,-1
 643 1509 l 1,40,-1
 643 928 l 2,12,13
EndSplineSet
Validated: 1
EndChar

StartChar: h.superior
Encoding: 65540 -1 379
Width: 712
GlyphClass: 2
Flags: W
LayerCount: 2
Fore
SplineSet
635 875 m 1,0,-1
 506 875 l 1,1,-1
 506 1284 l 2,2,3
 506 1360 506 1360 477 1391.5 c 128,-1,4
 448 1423 448 1423 384 1423 c 0,5,6
 305 1423 305 1423 259.5 1370 c 128,-1,7
 214 1317 214 1317 214 1216 c 2,8,-1
 214 875 l 1,9,-1
 85 875 l 1,10,-1
 85 1740 l 1,11,-1
 214 1740 l 1,12,-1
 214 1426 l 1,13,-1
 216 1426 l 1,14,15
 293 1529 293 1529 407 1529 c 0,16,17
 514 1529 514 1529 574.5 1473 c 128,-1,18
 635 1417 635 1417 635 1309 c 2,19,-1
 635 875 l 1,0,-1
EndSplineSet
Validated: 1
EndChar

StartChar: isuperior
Encoding: 63213 63213 380
Width: 299
GlyphClass: 2
Flags: W
LayerCount: 2
Fore
SplineSet
85 1619 m 1,0,-1
 85 1740 l 1,1,-1
 214 1740 l 1,2,-1
 214 1619 l 1,3,-1
 85 1619 l 1,0,-1
214 875 m 1,4,-1
 85 875 l 1,5,-1
 85 1509 l 1,6,-1
 214 1509 l 1,7,-1
 214 875 l 1,4,-1
EndSplineSet
Validated: 1
EndChar

StartChar: j.superior
Encoding: 65541 -1 381
Width: 299
GlyphClass: 2
Flags: W
LayerCount: 2
Fore
SplineSet
214 1619 m 1,0,-1
 85 1619 l 1,1,-1
 85 1740 l 1,2,-1
 214 1740 l 1,3,-1
 214 1619 l 1,0,-1
214 757 m 2,4,5
 213 683 213 683 167.5 646 c 128,-1,6
 122 609 122 609 26 609 c 0,7,8
 3 609 3 609 -22 612 c 1,9,-1
 -22 715 l 1,10,-1
 8 715 l 2,11,12
 60 715 60 715 72.5 729.5 c 128,-1,13
 85 744 85 744 85 790 c 2,14,-1
 85 1509 l 1,15,-1
 214 1509 l 1,16,-1
 214 757 l 2,4,5
EndSplineSet
Validated: 1
EndChar

StartChar: k.superior
Encoding: 65542 -1 382
Width: 646
GlyphClass: 2
Flags: W
LayerCount: 2
Fore
SplineSet
646 875 m 1,0,-1
 484 875 l 1,1,-1
 281 1182 l 1,2,-1
 210 1122 l 1,3,-1
 210 875 l 1,4,-1
 85 875 l 1,5,-1
 85 1740 l 1,6,-1
 210 1740 l 1,7,-1
 210 1269 l 1,8,-1
 469 1509 l 1,9,-1
 633 1509 l 1,10,-1
 373 1268 l 1,11,-1
 646 875 l 1,0,-1
EndSplineSet
Validated: 1
EndChar

StartChar: lsuperior
Encoding: 63214 63214 383
Width: 304
GlyphClass: 2
Flags: W
LayerCount: 2
Fore
SplineSet
216 875 m 1,0,-1
 87 875 l 1,1,-1
 87 1741 l 1,2,-1
 216 1741 l 1,3,-1
 216 875 l 1,0,-1
EndSplineSet
Validated: 1
EndChar

StartChar: msuperior
Encoding: 63215 63215 384
Width: 1071
GlyphClass: 2
Flags: W
LayerCount: 2
Fore
SplineSet
85 1509 m 1,0,-1
 208 1509 l 1,1,-1
 208 1421 l 1,2,-1
 210 1421 l 1,3,4
 282 1529 282 1529 410 1529 c 0,5,6
 535 1529 535 1529 586 1426 c 1,7,8
 637 1483 637 1483 681 1506 c 128,-1,9
 725 1529 725 1529 789 1529 c 0,10,11
 873 1529 873 1529 933.5 1475 c 128,-1,12
 994 1421 994 1421 994 1315 c 2,13,-1
 994 875 l 1,14,-1
 865 875 l 1,15,-1
 865 1280 l 2,16,17
 865 1423 865 1423 751 1423 c 0,18,19
 688 1423 688 1423 646 1374.5 c 128,-1,20
 604 1326 604 1326 604 1256 c 2,21,-1
 604 875 l 1,22,-1
 475 875 l 1,23,-1
 475 1308 l 2,24,25
 475 1364 475 1364 449 1393.5 c 128,-1,26
 423 1423 423 1423 378 1423 c 0,27,28
 310 1423 310 1423 262 1371.5 c 128,-1,29
 214 1320 214 1320 214 1216 c 2,30,-1
 214 875 l 1,31,-1
 85 875 l 1,32,-1
 85 1509 l 1,0,-1
EndSplineSet
Validated: 1
EndChar

StartChar: nsuperior
Encoding: 8319 8319 385
Width: 712
GlyphClass: 2
Flags: W
LayerCount: 2
Fore
SplineSet
635 875 m 1,0,-1
 506 875 l 1,1,-1
 506 1260 l 2,2,3
 506 1342 506 1342 478 1382.5 c 128,-1,4
 450 1423 450 1423 375 1423 c 0,5,6
 304 1423 304 1423 259 1368.5 c 128,-1,7
 214 1314 214 1314 214 1216 c 2,8,-1
 214 875 l 1,9,-1
 85 875 l 1,10,-1
 85 1509 l 1,11,-1
 192 1509 l 1,12,-1
 192 1421 l 1,13,-1
 195 1421 l 1,14,15
 274 1529 274 1529 399 1529 c 0,16,17
 509 1529 509 1529 572 1473 c 128,-1,18
 635 1417 635 1417 635 1309 c 2,19,-1
 635 875 l 1,0,-1
EndSplineSet
Validated: 1
EndChar

StartChar: osuperior
Encoding: 63216 63216 386
Width: 722
GlyphClass: 2
Flags: W
LayerCount: 2
Fore
SplineSet
180 1194 m 0,0,1
 180 1086 180 1086 229.5 1021.5 c 128,-1,2
 279 957 279 957 361 957 c 0,3,4
 453 957 453 957 497.5 1029 c 128,-1,5
 542 1101 542 1101 542 1194 c 0,6,7
 542 1289 542 1289 497 1357.5 c 128,-1,8
 452 1426 452 1426 361 1426 c 0,9,10
 275 1426 275 1426 227.5 1363 c 128,-1,11
 180 1300 180 1300 180 1194 c 0,0,1
48 1194 m 256,12,13
 48 1338 48 1338 132.5 1433.5 c 128,-1,14
 217 1529 217 1529 361 1529 c 0,15,16
 509 1528 509 1528 591.5 1431 c 128,-1,17
 674 1334 674 1334 674 1194 c 0,18,19
 674 1053 674 1053 591.5 954.5 c 128,-1,20
 509 856 509 856 361 856 c 0,21,22
 215 856 215 856 131.5 953 c 128,-1,23
 48 1050 48 1050 48 1194 c 256,12,13
EndSplineSet
Validated: 1
EndChar

StartChar: p.superior
Encoding: 65543 -1 387
Width: 729
GlyphClass: 2
Flags: W
LayerCount: 2
Fore
SplineSet
210 1165 m 0,0,1
 210 1067 210 1067 257.5 1012.5 c 128,-1,2
 305 958 305 958 378 958 c 0,3,4
 456 958 456 958 500 1021 c 128,-1,5
 544 1084 544 1084 544 1196 c 0,6,7
 544 1314 544 1314 501.5 1368.5 c 128,-1,8
 459 1423 459 1423 375 1423 c 0,9,10
 296 1423 296 1423 253 1361.5 c 128,-1,11
 210 1300 210 1300 210 1165 c 0,0,1
85 1509 m 1,12,-1
 208 1509 l 1,13,-1
 208 1421 l 1,14,-1
 210 1421 l 1,15,16
 283 1529 283 1529 404 1529 c 0,17,18
 526 1529 526 1529 602 1441.5 c 128,-1,19
 678 1354 678 1354 678 1212 c 0,20,21
 678 1059 678 1059 602.5 957.5 c 128,-1,22
 527 856 527 856 391 856 c 0,23,24
 278 856 278 856 216 942 c 1,25,-1
 214 942 l 1,26,-1
 214 624 l 1,27,-1
 85 624 l 1,28,-1
 85 1509 l 1,12,-1
EndSplineSet
Validated: 1
EndChar

StartChar: q.superior
Encoding: 65544 -1 388
Width: 729
GlyphClass: 2
Flags: W
LayerCount: 2
Fore
SplineSet
520 1162 m 0,0,1
 520 1296 520 1296 479 1359.5 c 128,-1,2
 438 1423 438 1423 357 1423 c 0,3,4
 269 1423 269 1423 226.5 1365 c 128,-1,5
 184 1307 184 1307 184 1190 c 256,6,7
 184 1073 184 1073 230.5 1015 c 128,-1,8
 277 957 277 957 351 957 c 0,9,10
 421 957 421 957 470.5 1008.5 c 128,-1,11
 520 1060 520 1060 520 1162 c 0,0,1
644 624 m 1,12,-1
 515 624 l 1,13,-1
 515 941 l 1,14,-1
 512 941 l 1,15,16
 450 856 450 856 339 856 c 0,17,18
 203 856 203 856 127 952 c 128,-1,19
 51 1048 51 1048 51 1207 c 0,20,21
 51 1349 51 1349 127 1439 c 128,-1,22
 203 1529 203 1529 327 1529 c 0,23,24
 449 1529 449 1529 519 1421 c 1,25,-1
 522 1421 l 1,26,-1
 522 1509 l 1,27,-1
 644 1509 l 1,28,-1
 644 624 l 1,12,-1
EndSplineSet
Validated: 1
EndChar

StartChar: rsuperior
Encoding: 63217 63217 389
Width: 430
GlyphClass: 2
Flags: W
LayerCount: 2
Fore
SplineSet
214 875 m 1,0,-1
 85 875 l 1,1,-1
 85 1509 l 1,2,-1
 208 1509 l 1,3,-1
 208 1405 l 1,4,-1
 210 1405 l 1,5,6
 280 1528 280 1528 395 1528 c 0,7,8
 409 1528 409 1528 424 1525 c 1,9,-1
 424 1404 l 1,10,-1
 382 1404 l 2,11,12
 309 1404 309 1404 261.5 1356.5 c 128,-1,13
 214 1309 214 1309 214 1238 c 2,14,-1
 214 875 l 1,0,-1
EndSplineSet
Validated: 1
EndChar

StartChar: ssuperior
Encoding: 63218 63218 390
Width: 646
GlyphClass: 2
Flags: W
LayerCount: 2
Fore
SplineSet
451 1330 m 1,0,1
 451 1378 451 1378 416.5 1403.5 c 128,-1,2
 382 1429 382 1429 307 1429 c 0,3,4
 254 1429 254 1429 220.5 1406.5 c 128,-1,5
 187 1384 187 1384 187 1346 c 0,6,7
 187 1310 187 1310 215.5 1294.5 c 128,-1,8
 244 1279 244 1279 306 1264 c 2,9,-1
 415 1237 l 2,10,11
 512 1213 512 1213 555 1174.5 c 128,-1,12
 598 1136 598 1136 598 1066 c 0,13,14
 598 973 598 973 526 914.5 c 128,-1,15
 454 856 454 856 331 856 c 0,16,17
 183 856 183 856 113.5 913.5 c 128,-1,18
 44 971 44 971 41 1078 c 1,19,-1
 166 1078 l 1,20,21
 168 1020 168 1020 206.5 987.5 c 128,-1,22
 245 955 245 955 329 955 c 0,23,24
 392 955 392 955 430.5 980.5 c 128,-1,25
 469 1006 469 1006 469 1050 c 0,26,27
 469 1076 469 1076 449 1094.5 c 128,-1,28
 429 1113 429 1113 339 1135 c 2,29,-1
 213 1166 l 2,30,31
 62 1203 62 1203 62 1327 c 0,32,33
 62 1419 62 1419 132.5 1474 c 128,-1,34
 203 1529 203 1529 318 1529 c 0,35,36
 440 1529 440 1529 506 1474 c 128,-1,37
 572 1419 572 1419 576 1330 c 1,38,-1
 451 1330 l 1,0,1
EndSplineSet
Validated: 1
EndChar

StartChar: tsuperior
Encoding: 63219 63219 391
Width: 358
GlyphClass: 2
Flags: W
LayerCount: 2
Fore
SplineSet
238 1413 m 1,0,-1
 238 1016 l 2,1,2
 238 988 238 988 255.5 977.5 c 128,-1,3
 273 967 273 967 307 967 c 2,4,-1
 346 967 l 1,5,-1
 346 875 l 1,6,7
 293 865 293 865 261 865 c 0,8,9
 187 865 187 865 148 894.5 c 128,-1,10
 109 924 109 924 109 1001 c 2,11,-1
 109 1413 l 1,12,-1
 17 1413 l 1,13,-1
 17 1509 l 1,14,-1
 109 1509 l 1,15,-1
 109 1685 l 1,16,-1
 238 1685 l 1,17,-1
 238 1509 l 1,18,-1
 346 1509 l 1,19,-1
 346 1413 l 1,20,-1
 238 1413 l 1,0,-1
EndSplineSet
Validated: 1
EndChar

StartChar: u.superior
Encoding: 65545 -1 392
Width: 707
GlyphClass: 2
Flags: W
LayerCount: 2
Fore
SplineSet
500 875 m 1,0,-1
 500 966 l 1,1,-1
 497 969 l 1,2,3
 434 856 434 856 290 856 c 0,4,5
 197 856 197 856 138 905.5 c 128,-1,6
 79 955 79 955 79 1052 c 2,7,-1
 79 1509 l 1,8,-1
 208 1509 l 1,9,-1
 208 1095 l 2,10,11
 208 1019 208 1019 240.5 988 c 128,-1,12
 273 957 273 957 326 957 c 0,13,14
 406 957 406 957 450 1015 c 128,-1,15
 494 1073 494 1073 494 1164 c 2,16,-1
 494 1509 l 1,17,-1
 623 1509 l 1,18,-1
 623 875 l 1,19,-1
 500 875 l 1,0,-1
EndSplineSet
Validated: 1
EndChar

StartChar: v.superior
Encoding: 65546 -1 393
Width: 640
GlyphClass: 2
Flags: W
LayerCount: 2
Fore
SplineSet
495 1509 m 1,0,-1
 633 1509 l 1,1,-1
 383 875 l 1,2,-1
 247 875 l 1,3,-1
 8 1509 l 1,4,-1
 154 1509 l 1,5,-1
 316 1005 l 1,6,-1
 319 1005 l 1,7,-1
 495 1509 l 1,0,-1
EndSplineSet
Validated: 1
EndChar

StartChar: w.superior
Encoding: 65547 -1 394
Width: 935
GlyphClass: 2
Flags: W
LayerCount: 2
Fore
SplineSet
339 875 m 1,0,-1
 206 875 l 1,1,-1
 18 1509 l 1,2,-1
 157 1509 l 1,3,-1
 275 1025 l 1,4,-1
 277 1025 l 1,5,-1
 397 1509 l 1,6,-1
 539 1509 l 1,7,-1
 661 1025 l 1,8,-1
 663 1025 l 1,9,-1
 788 1509 l 1,10,-1
 916 1509 l 1,11,-1
 727 875 l 1,12,-1
 595 875 l 1,13,-1
 466 1360 l 1,14,-1
 463 1360 l 1,15,-1
 339 875 l 1,0,-1
EndSplineSet
Validated: 1
EndChar

StartChar: x.superior
Encoding: 65548 -1 395
Width: 655
GlyphClass: 2
Flags: W
LayerCount: 2
Fore
SplineSet
410 1204 m 1,0,-1
 642 875 l 1,1,-1
 482 875 l 1,2,-1
 321 1103 l 1,3,-1
 167 875 l 1,4,-1
 9 875 l 1,5,-1
 243 1199 l 1,6,-1
 25 1509 l 1,7,-1
 185 1509 l 1,8,-1
 334 1298 l 1,9,-1
 483 1509 l 1,10,-1
 637 1509 l 1,11,-1
 410 1204 l 1,0,-1
EndSplineSet
Validated: 1
EndChar

StartChar: y.superior
Encoding: 65549 -1 396
Width: 640
GlyphClass: 2
Flags: W
LayerCount: 2
Fore
SplineSet
489 1509 m 1,0,-1
 628 1509 l 1,1,-1
 393 888 l 2,2,3
 327 713 327 713 280.5 660.5 c 128,-1,4
 234 608 234 608 140 608 c 0,5,6
 90 608 90 608 62 620 c 1,7,-1
 62 729 l 1,8,9
 95 718 95 718 131 718 c 0,10,11
 175 718 175 718 197 740.5 c 128,-1,12
 219 763 219 763 259 866 c 1,13,-1
 12 1509 l 1,14,-1
 154 1509 l 1,15,-1
 320 1018 l 1,16,-1
 322 1018 l 1,17,-1
 489 1509 l 1,0,-1
EndSplineSet
Validated: 1
EndChar

StartChar: z.superior
Encoding: 65550 -1 397
Width: 642
GlyphClass: 2
Flags: W
LayerCount: 2
Fore
SplineSet
201 974 m 1,0,-1
 604 974 l 1,1,-1
 604 876 l 1,2,-1
 38 876 l 1,3,-1
 38 969 l 1,4,-1
 434 1411 l 1,5,-1
 69 1411 l 1,6,-1
 69 1509 l 1,7,-1
 592 1509 l 1,8,-1
 592 1413 l 1,9,-1
 201 974 l 1,0,-1
EndSplineSet
Validated: 1
EndChar

StartChar: commasuperior
Encoding: 63202 63202 398
Width: 346
GlyphClass: 2
Flags: W
LayerCount: 2
Fore
SplineSet
106 1013 m 1,0,-1
 242 1013 l 1,1,-1
 242 885 l 2,2,3
 242 795 242 795 200 748 c 128,-1,4
 158 701 158 701 106 697 c 1,5,-1
 106 753 l 1,6,7
 170 761 170 761 170 875 c 1,8,-1
 106 875 l 1,9,-1
 106 1013 l 1,0,-1
EndSplineSet
Validated: 1
EndChar

StartChar: periodsuperior
Encoding: 63208 63208 399
Width: 346
GlyphClass: 2
Flags: W
LayerCount: 2
Fore
SplineSet
242 875 m 1,0,-1
 106 875 l 1,1,-1
 106 1013 l 1,2,-1
 242 1013 l 1,3,-1
 242 875 l 1,0,-1
EndSplineSet
Validated: 1
EndChar

StartChar: hyphensuperior
Encoding: 63206 63206 400
Width: 413
GlyphClass: 2
Flags: W
LayerCount: 2
Fore
SplineSet
360 1146 m 1,0,-1
 53 1146 l 1,1,-1
 53 1265 l 1,2,-1
 360 1265 l 1,3,-1
 360 1146 l 1,0,-1
EndSplineSet
Validated: 1
EndChar

StartChar: comma
Encoding: 44 44 401
Width: 569
GlyphClass: 2
Flags: W
LayerCount: 2
Fore
SplineSet
178 217 m 1,0,-1
 391 217 l 1,1,-1
 391 16 l 2,2,3
 391 -136 391 -136 328 -213 c 128,-1,4
 265 -290 265 -290 178 -301 c 1,5,-1
 178 -207 l 1,6,7
 287 -193 287 -193 287 0 c 1,8,-1
 178 0 l 1,9,-1
 178 217 l 1,0,-1
EndSplineSet
Validated: 1
EndChar

StartChar: period
Encoding: 46 46 404
Width: 569
GlyphClass: 2
Flags: W
LayerCount: 2
Fore
SplineSet
391 0 m 1,0,-1
 178 0 l 1,1,-1
 178 217 l 1,2,-1
 391 217 l 1,3,-1
 391 0 l 1,0,-1
EndSplineSet
Validated: 1
EndChar

StartChar: hyphen
Encoding: 45 45 406
AltUni2: 0000ad.ffffffff.0
Width: 682
GlyphClass: 2
Flags: W
LayerCount: 2
Fore
SplineSet
592 475 m 1,0,-1
 90 475 l 1,1,-1
 90 659 l 1,2,-1
 592 659 l 1,3,-1
 592 475 l 1,0,-1
EndSplineSet
Validated: 1
EndChar

StartChar: exclam
Encoding: 33 33 408
Width: 569
GlyphClass: 2
Flags: W
LayerCount: 2
Fore
SplineSet
383 0 m 1,0,-1
 184 0 l 1,1,-1
 184 209 l 1,2,-1
 383 209 l 1,3,-1
 383 0 l 1,0,-1
233 350 m 1,4,-1
 184 985 l 1,5,-1
 184 1470 l 1,6,-1
 383 1470 l 1,7,-1
 383 985 l 1,8,-1
 334 350 l 1,9,-1
 233 350 l 1,4,-1
EndSplineSet
Validated: 1
EndChar

StartChar: exclamdown
Encoding: 161 161 409
Width: 569
GlyphClass: 2
Flags: W
LayerCount: 2
Fore
SplineSet
186 1071 m 1,0,-1
 383 1071 l 1,1,-1
 383 862 l 1,2,-1
 186 862 l 1,3,-1
 186 1071 l 1,0,-1
336 721 m 1,4,-1
 383 86 l 1,5,-1
 383 -399 l 1,6,-1
 186 -399 l 1,7,-1
 186 86 l 1,8,-1
 236 721 l 1,9,-1
 336 721 l 1,4,-1
EndSplineSet
Validated: 1
EndChar

StartChar: question
Encoding: 63 63 412
Width: 1139
GlyphClass: 2
Flags: W
LayerCount: 2
Fore
SplineSet
651 0 m 1,0,-1
 453 0 l 1,1,-1
 453 209 l 1,2,-1
 651 209 l 1,3,-1
 651 0 l 1,0,-1
115 1010 m 1,4,5
 115 1260 115 1260 248 1374.5 c 128,-1,6
 381 1489 381 1489 573 1489 c 0,7,8
 766 1489 766 1489 887 1378.5 c 128,-1,9
 1008 1268 1008 1268 1008 1087 c 0,10,11
 1008 993 1008 993 969 926.5 c 128,-1,12
 930 860 930 860 815 750 c 0,13,14
 686 625 686 625 661.5 563.5 c 128,-1,15
 637 502 637 502 637 375 c 1,16,-1
 457 375 l 1,17,18
 457 516 457 516 486.5 598 c 128,-1,19
 516 680 516 680 651 815 c 0,20,21
 745 909 745 909 780 957.5 c 128,-1,22
 815 1006 815 1006 815 1100 c 0,23,24
 815 1198 815 1198 749.5 1265.5 c 128,-1,25
 684 1333 684 1333 567 1333 c 0,26,27
 434 1333 434 1333 364.5 1253.5 c 128,-1,28
 295 1174 295 1174 295 1010 c 1,29,-1
 115 1010 l 1,4,5
EndSplineSet
Validated: 1
EndChar

StartChar: questiondown
Encoding: 191 191 413
Width: 1139
GlyphClass: 2
Flags: W
LayerCount: 2
Fore
SplineSet
487 1075 m 1,0,-1
 686 1075 l 1,1,-1
 686 866 l 1,2,-1
 487 866 l 1,3,-1
 487 1075 l 1,0,-1
1024 68 m 1,4,5
 1024 -180 1024 -180 891 -296 c 128,-1,6
 758 -412 758 -412 565 -412 c 0,7,8
 375 -412 375 -412 253 -300 c 128,-1,9
 131 -188 131 -188 131 -8 c 0,10,11
 131 84 131 84 170 150.5 c 128,-1,12
 209 217 209 217 324 328 c 0,13,14
 453 453 453 453 477.5 514 c 128,-1,15
 502 575 502 575 502 702 c 1,16,-1
 682 702 l 1,17,18
 682 561 682 561 652.5 479 c 128,-1,19
 623 397 623 397 487 262 c 0,20,21
 393 170 393 170 358.5 122 c 128,-1,22
 324 74 324 74 324 -23 c 0,23,24
 324 -121 324 -121 389.5 -188.5 c 128,-1,25
 455 -256 455 -256 571 -256 c 0,26,27
 705 -256 705 -256 774.5 -176 c 128,-1,28
 844 -96 844 -96 844 68 c 1,29,-1
 1024 68 l 1,4,5
EndSplineSet
Validated: 1
EndChar

StartChar: quoteleft
Encoding: 8216 8216 415
Width: 455
GlyphClass: 2
Flags: W
LayerCount: 2
Fore
SplineSet
346 963 m 1,0,-1
 133 963 l 1,1,-1
 133 1163 l 2,2,3
 133 1305 133 1305 183 1381.5 c 128,-1,4
 233 1458 233 1458 346 1485 c 1,5,-1
 346 1389 l 1,6,7
 238 1374 238 1374 238 1180 c 1,8,-1
 346 1180 l 1,9,-1
 346 963 l 1,0,-1
EndSplineSet
Validated: 1
EndChar

StartChar: quoteright
Encoding: 8217 8217 416
Width: 455
GlyphClass: 2
Flags: W
LayerCount: 2
Fore
SplineSet
109 1470 m 1,0,-1
 322 1470 l 1,1,-1
 322 1270 l 2,2,3
 322 1128 322 1128 271.5 1051.5 c 128,-1,4
 221 975 221 975 109 948 c 1,5,-1
 109 1044 l 1,6,7
 217 1059 217 1059 217 1253 c 1,8,-1
 109 1253 l 1,9,-1
 109 1470 l 1,0,-1
EndSplineSet
Validated: 1
EndChar

StartChar: guilsinglleft
Encoding: 8249 8249 421
Width: 682
GlyphClass: 2
Flags: W
LayerCount: 2
Fore
SplineSet
502 221 m 1,0,-1
 180 473 l 1,1,-1
 180 662 l 1,2,-1
 502 913 l 1,3,-1
 502 733 l 1,4,-1
 287 567 l 1,5,-1
 502 401 l 1,6,-1
 502 221 l 1,0,-1
EndSplineSet
Validated: 1
EndChar

StartChar: guilsinglright
Encoding: 8250 8250 422
Width: 682
GlyphClass: 2
Flags: W
LayerCount: 2
Fore
SplineSet
180 401 m 1,0,-1
 395 567 l 1,1,-1
 180 733 l 1,2,-1
 180 913 l 1,3,-1
 502 662 l 1,4,-1
 502 473 l 1,5,-1
 180 221 l 1,6,-1
 180 401 l 1,0,-1
EndSplineSet
Validated: 1
EndChar

StartChar: slash
Encoding: 47 47 429
Width: 569
GlyphClass: 2
Flags: W
LayerCount: 2
Fore
SplineSet
102 -39 m 1,0,-1
 -35 -39 l 1,1,-1
 469 1509 l 1,2,-1
 604 1509 l 1,3,-1
 102 -39 l 1,0,-1
EndSplineSet
Validated: 1
EndChar

StartChar: bar
Encoding: 124 124 430
Width: 532
GlyphClass: 2
Flags: W
LayerCount: 2
Fore
SplineSet
193 1509 m 1,0,-1
 342 1509 l 1,1,-1
 342 -39 l 1,2,-1
 193 -39 l 1,3,-1
 193 1509 l 1,0,-1
EndSplineSet
Validated: 1
EndChar

StartChar: endash
Encoding: 8211 8211 431
Width: 1024
GlyphClass: 2
Flags: W
LayerCount: 2
Fore
SplineSet
1024 492 m 1,0,-1
 0 492 l 1,1,-1
 0 641 l 1,2,-1
 1024 641 l 1,3,-1
 1024 492 l 1,0,-1
EndSplineSet
Validated: 1
EndChar

StartChar: threequartersemdash
Encoding: 63198 63198 433
Width: 1536
GlyphClass: 2
Flags: W
LayerCount: 2
Fore
SplineSet
1536 492 m 1,0,-1
 0 492 l 1,1,-1
 0 641 l 1,2,-1
 1536 641 l 1,3,-1
 1536 492 l 1,0,-1
EndSplineSet
Validated: 1
EndChar

StartChar: emdash
Encoding: 8212 8212 435
Width: 2048
GlyphClass: 2
Flags: W
LayerCount: 2
Fore
SplineSet
2048 492 m 1,0,-1
 0 492 l 1,1,-1
 0 641 l 1,2,-1
 2048 641 l 1,3,-1
 2048 492 l 1,0,-1
EndSplineSet
Validated: 1
EndChar

StartChar: uni2015
Encoding: 8213 8213 437
Width: 1649
GlyphClass: 2
Flags: W
LayerCount: 2
Fore
SplineSet
49 492 m 1,0,-1
 49 639 l 1,1,-1
 1597 639 l 1,2,-1
 1597 492 l 1,3,-1
 49 492 l 1,0,-1
EndSplineSet
Validated: 1
EndChar

StartChar: bullet
Encoding: 8226 8226 439
Width: 801
GlyphClass: 2
Flags: W
LayerCount: 2
Fore
SplineSet
723 735 m 256,0,1
 723 598 723 598 629 506 c 128,-1,2
 535 414 535 414 397 414 c 0,3,4
 260 414 260 414 169 506 c 128,-1,5
 78 598 78 598 78 735 c 256,6,7
 78 872 78 872 169 965.5 c 128,-1,8
 260 1059 260 1059 397 1059 c 0,9,10
 535 1059 535 1059 629 965.5 c 128,-1,11
 723 872 723 872 723 735 c 256,0,1
EndSplineSet
Validated: 1
EndChar

StartChar: parenleft
Encoding: 40 40 442
Width: 682
GlyphClass: 2
Flags: W
LayerCount: 2
Fore
SplineSet
610 1501 m 1,0,1
 428 1176 428 1176 380 972 c 128,-1,2
 332 768 332 768 332 522 c 0,3,4
 332 279 332 279 397.5 69 c 128,-1,5
 463 -141 463 -141 612 -424 c 1,6,-1
 492 -424 l 1,7,8
 322 -176 322 -176 230.5 45 c 128,-1,9
 139 266 139 266 139 535 c 0,10,11
 139 788 139 788 222 1017.5 c 128,-1,12
 305 1247 305 1247 485 1501 c 1,13,-1
 610 1501 l 1,0,1
EndSplineSet
Validated: 1
EndChar

StartChar: parenright
Encoding: 41 41 443
Width: 682
GlyphClass: 2
Flags: W
LayerCount: 2
Fore
SplineSet
72 -424 m 1,0,1
 252 -98 252 -98 300 105.5 c 128,-1,2
 348 309 348 309 348 555 c 0,3,4
 348 799 348 799 283.5 1009 c 128,-1,5
 219 1219 219 1219 70 1501 c 1,6,-1
 188 1501 l 1,7,8
 360 1253 360 1253 451.5 1032 c 128,-1,9
 543 811 543 811 543 543 c 0,10,11
 543 289 543 289 460 59.5 c 128,-1,12
 377 -170 377 -170 197 -424 c 1,13,-1
 72 -424 l 1,0,1
EndSplineSet
Validated: 1
EndChar

StartChar: bracketleft
Encoding: 91 91 446
Width: 569
GlyphClass: 2
Flags: W
LayerCount: 2
Fore
SplineSet
291 -256 m 1,0,-1
 512 -256 l 1,1,-1
 512 -401 l 1,2,-1
 129 -401 l 1,3,-1
 129 1479 l 1,4,-1
 512 1479 l 1,5,-1
 512 1333 l 1,6,-1
 291 1333 l 1,7,-1
 291 -256 l 1,0,-1
EndSplineSet
Validated: 1
EndChar

StartChar: bracketright
Encoding: 93 93 447
Width: 569
GlyphClass: 2
Flags: W
LayerCount: 2
Fore
SplineSet
279 1333 m 1,0,-1
 57 1333 l 1,1,-1
 57 1479 l 1,2,-1
 440 1479 l 1,3,-1
 440 -401 l 1,4,-1
 57 -401 l 1,5,-1
 57 -256 l 1,6,-1
 279 -256 l 1,7,-1
 279 1333 l 1,0,-1
EndSplineSet
Validated: 1
EndChar

StartChar: braceleft
Encoding: 123 123 450
Width: 684
GlyphClass: 2
Flags: W
LayerCount: 2
Fore
SplineSet
86 602 m 1,0,1
 154 602 154 602 203 676 c 128,-1,2
 252 750 252 750 252 862 c 2,3,-1
 252 1214 l 2,4,5
 252 1331 252 1331 313.5 1405 c 128,-1,6
 375 1479 375 1479 461 1479 c 2,7,-1
 598 1479 l 1,8,-1
 598 1346 l 1,9,-1
 508 1346 l 2,10,11
 459 1346 459 1346 436.5 1300.5 c 128,-1,12
 414 1255 414 1255 414 1178 c 2,13,-1
 414 840 l 2,14,15
 414 743 414 743 368 659 c 128,-1,16
 322 575 322 575 233 543 c 1,17,-1
 233 539 l 1,18,19
 322 506 322 506 368 424 c 128,-1,20
 414 342 414 342 414 236 c 2,21,-1
 414 -100 l 2,22,23
 414 -180 414 -180 437.5 -224 c 128,-1,24
 461 -268 461 -268 508 -268 c 2,25,-1
 598 -268 l 1,26,-1
 598 -401 l 1,27,-1
 461 -401 l 2,28,29
 373 -401 373 -401 312.5 -327.5 c 128,-1,30
 252 -254 252 -254 252 -137 c 2,31,-1
 252 213 l 2,32,33
 252 332 252 332 204 405.5 c 128,-1,34
 156 479 156 479 86 479 c 1,35,-1
 86 602 l 1,0,1
EndSplineSet
Validated: 1
EndChar

StartChar: braceright
Encoding: 125 125 451
Width: 684
GlyphClass: 2
Flags: W
LayerCount: 2
Fore
SplineSet
598 479 m 1,0,1
 528 479 528 479 480 405.5 c 128,-1,2
 432 332 432 332 432 213 c 2,3,-1
 432 -137 l 2,4,5
 432 -254 432 -254 371.5 -327.5 c 128,-1,6
 311 -401 311 -401 223 -401 c 2,7,-1
 86 -401 l 1,8,-1
 86 -268 l 1,9,-1
 176 -268 l 2,10,11
 223 -268 223 -268 246.5 -224 c 128,-1,12
 270 -180 270 -180 270 -100 c 2,13,-1
 270 236 l 2,14,15
 270 342 270 342 316 424 c 128,-1,16
 362 506 362 506 451 539 c 1,17,-1
 451 543 l 1,18,19
 362 575 362 575 316 659 c 128,-1,20
 270 743 270 743 270 840 c 2,21,-1
 270 1178 l 2,22,23
 270 1255 270 1255 247.5 1300.5 c 128,-1,24
 225 1346 225 1346 176 1346 c 2,25,-1
 86 1346 l 1,26,-1
 86 1479 l 1,27,-1
 223 1479 l 2,28,29
 309 1479 309 1479 370.5 1405 c 128,-1,30
 432 1331 432 1331 432 1214 c 2,31,-1
 432 862 l 2,32,33
 432 750 432 750 481 676 c 128,-1,34
 530 602 530 602 598 602 c 1,35,-1
 598 479 l 1,0,1
EndSplineSet
Validated: 1
EndChar

StartChar: asterisk
Encoding: 42 42 454
Width: 797
GlyphClass: 2
Flags: W
LayerCount: 2
Fore
SplineSet
121 1323 m 1,0,-1
 336 1245 l 1,1,-1
 336 1470 l 1,2,-1
 459 1470 l 1,3,-1
 459 1245 l 1,4,-1
 674 1323 l 1,5,-1
 715 1210 l 1,6,-1
 494 1141 l 1,7,-1
 631 952 l 1,8,-1
 530 883 l 1,9,-1
 397 1075 l 1,10,-1
 264 883 l 1,11,-1
 164 952 l 1,12,-1
 301 1141 l 1,13,-1
 80 1210 l 1,14,-1
 121 1323 l 1,0,-1
EndSplineSet
Validated: 1
EndChar

StartChar: dagger
Encoding: 8224 8224 455
Width: 1139
GlyphClass: 2
Flags: W
LayerCount: 2
Fore
SplineSet
668 -326 m 1,0,-1
 475 -326 l 1,1,-1
 475 883 l 1,2,-1
 88 883 l 1,3,-1
 88 1038 l 1,4,-1
 475 1038 l 1,5,-1
 475 1470 l 1,6,-1
 668 1470 l 1,7,-1
 668 1038 l 1,8,-1
 1053 1038 l 1,9,-1
 1053 883 l 1,10,-1
 668 883 l 1,11,-1
 668 -326 l 1,0,-1
EndSplineSet
Validated: 1
EndChar

StartChar: daggerdbl
Encoding: 8225 8225 456
Width: 1139
GlyphClass: 2
Flags: W
LayerCount: 2
Fore
SplineSet
668 244 m 1,0,-1
 1053 244 l 1,1,-1
 1053 88 l 1,2,-1
 668 88 l 1,3,-1
 668 -326 l 1,4,-1
 475 -326 l 1,5,-1
 475 88 l 1,6,-1
 88 88 l 1,7,-1
 88 244 l 1,8,-1
 475 244 l 1,9,-1
 475 899 l 1,10,-1
 88 899 l 1,11,-1
 88 1055 l 1,12,-1
 475 1055 l 1,13,-1
 475 1470 l 1,14,-1
 668 1470 l 1,15,-1
 668 1055 l 1,16,-1
 1053 1055 l 1,17,-1
 1053 899 l 1,18,-1
 668 899 l 1,19,-1
 668 244 l 1,0,-1
EndSplineSet
Validated: 1
EndChar

StartChar: section
Encoding: 167 167 457
Width: 1139
GlyphClass: 2
Flags: W
LayerCount: 2
Fore
SplineSet
395 877 m 1,0,1
 258 807 258 807 258 678 c 0,2,3
 258 612 258 612 285.5 570 c 128,-1,4
 313 528 313 528 350 504 c 2,5,-1
 737 254 l 1,6,7
 879 334 879 334 879 461 c 0,8,9
 879 516 879 516 847 567 c 128,-1,10
 815 618 815 618 752 657 c 2,11,-1
 395 877 l 1,0,1
768 1135 m 1,12,13
 768 1235 768 1235 720 1294.5 c 128,-1,14
 672 1354 672 1354 565 1354 c 0,15,16
 485 1354 485 1354 431 1310 c 128,-1,17
 377 1266 377 1266 377 1188 c 0,18,19
 377 1130 377 1130 417 1087 c 128,-1,20
 457 1044 457 1044 526 1004 c 2,21,-1
 825 827 l 2,22,23
 971 739 971 739 1010 660.5 c 128,-1,24
 1049 582 1049 582 1049 500 c 0,25,26
 1049 295 1049 295 838 172 c 1,27,28
 944 70 944 70 944 -61 c 0,29,30
 944 -207 944 -207 831.5 -299 c 128,-1,31
 719 -391 719 -391 573 -391 c 0,32,33
 381 -391 381 -391 275.5 -290.5 c 128,-1,34
 170 -190 170 -190 170 -6 c 1,35,-1
 350 -6 l 1,36,37
 350 -121 350 -121 403.5 -178.5 c 128,-1,38
 457 -236 457 -236 553 -236 c 256,39,40
 649 -236 649 -236 706.5 -191.5 c 128,-1,41
 764 -147 764 -147 764 -66 c 0,42,43
 764 -12 764 -12 734.5 24.5 c 128,-1,44
 705 61 705 61 651 96 c 2,45,-1
 221 383 l 2,46,47
 150 430 150 430 119 496.5 c 128,-1,48
 88 563 88 563 88 633 c 0,49,50
 88 854 88 854 293 956 c 1,51,52
 197 1047 197 1047 197 1161 c 0,53,54
 197 1303 197 1303 294 1406 c 128,-1,55
 391 1509 391 1509 565 1509 c 0,56,57
 748 1509 748 1509 845 1411 c 128,-1,58
 942 1313 942 1313 942 1135 c 1,59,-1
 768 1135 l 1,12,13
EndSplineSet
Validated: 1
EndChar

StartChar: paragraph
Encoding: 182 182 458
Width: 1100
GlyphClass: 2
Flags: W
LayerCount: 2
Fore
SplineSet
475 705 m 1,0,1
 289 705 289 705 163 807 c 128,-1,2
 37 909 37 909 37 1081 c 0,3,4
 37 1266 37 1266 152.5 1368 c 128,-1,5
 268 1470 268 1470 510 1470 c 2,6,-1
 1018 1470 l 1,7,-1
 1018 -354 l 1,8,-1
 868 -354 l 1,9,-1
 868 1348 l 1,10,-1
 625 1348 l 1,11,-1
 625 -354 l 1,12,-1
 475 -354 l 1,13,-1
 475 705 l 1,0,1
EndSplineSet
Validated: 1
EndChar

StartChar: Gamma
Encoding: 915 915 461
Width: 1133
GlyphClass: 2
Flags: W
LayerCount: 2
Fore
SplineSet
166 1470 m 1,0,-1
 1108 1470 l 1,1,-1
 1108 1290 l 1,2,-1
 362 1290 l 1,3,-1
 362 0 l 1,4,-1
 166 0 l 1,5,-1
 166 1470 l 1,0,-1
EndSplineSet
Validated: 1
EndChar

StartChar: Delta
Encoding: 916 916 462
Width: 1352
GlyphClass: 2
Flags: W
LayerCount: 2
Fore
SplineSet
301 176 m 1,0,-1
 1038 176 l 1,1,-1
 680 1245 l 1,2,-1
 676 1245 l 1,3,-1
 301 176 l 1,0,-1
31 0 m 1,4,-1
 586 1470 l 1,5,-1
 786 1470 l 1,6,-1
 1321 0 l 1,7,-1
 31 0 l 1,4,-1
EndSplineSet
Validated: 1
EndChar

StartChar: Theta
Encoding: 920 920 466
Width: 1593
GlyphClass: 2
Flags: W
LayerCount: 2
Fore
SplineSet
469 848 m 1,0,-1
 1124 848 l 1,1,-1
 1124 672 l 1,2,-1
 469 672 l 1,3,-1
 469 848 l 1,0,-1
1309 735 m 0,4,5
 1309 993 1309 993 1172.5 1163 c 128,-1,6
 1036 1333 1036 1333 797 1333 c 0,7,8
 561 1333 561 1333 423 1163 c 128,-1,9
 285 993 285 993 285 735 c 0,10,11
 285 469 285 469 425 303 c 128,-1,12
 565 137 565 137 797 137 c 0,13,14
 1024 137 1024 137 1166.5 299 c 128,-1,15
 1309 461 1309 461 1309 735 c 0,4,5
1513 735 m 0,16,17
 1513 406 1513 406 1323 183.5 c 128,-1,18
 1133 -39 1133 -39 797 -39 c 0,19,20
 459 -39 459 -39 269.5 183.5 c 128,-1,21
 80 406 80 406 80 735 c 0,22,23
 80 1065 80 1065 269.5 1287 c 128,-1,24
 459 1509 459 1509 797 1509 c 0,25,26
 1143 1509 1143 1509 1328 1283 c 128,-1,27
 1513 1057 1513 1057 1513 735 c 0,16,17
EndSplineSet
Validated: 1
EndChar

StartChar: Lambda
Encoding: 923 923 469
Width: 1370
GlyphClass: 2
Flags: W
LayerCount: 2
Fore
SplineSet
233 0 m 1,0,-1
 31 0 l 1,1,-1
 584 1470 l 1,2,-1
 809 1470 l 1,3,-1
 1339 0 l 1,4,-1
 1122 0 l 1,5,-1
 688 1251 l 1,6,-1
 684 1251 l 1,7,-1
 233 0 l 1,0,-1
EndSplineSet
Validated: 1
EndChar

StartChar: Xi
Encoding: 926 926 472
Width: 1274
GlyphClass: 2
Flags: W
LayerCount: 2
Fore
SplineSet
183 844 m 1,0,-1
 1094 844 l 1,1,-1
 1094 670 l 1,2,-1
 183 670 l 1,3,-1
 183 844 l 1,0,-1
125 1470 m 1,4,-1
 1151 1470 l 1,5,-1
 1151 1298 l 1,6,-1
 125 1298 l 1,7,-1
 125 1470 l 1,4,-1
90 178 m 1,8,-1
 1184 178 l 1,9,-1
 1184 0 l 1,10,-1
 90 0 l 1,11,-1
 90 178 l 1,8,-1
EndSplineSet
Validated: 1
EndChar

StartChar: Pi
Encoding: 928 928 474
Width: 1434
GlyphClass: 2
Flags: W
HStem: 0 21G<166 365 1069 1270> 1294 176<365 1069>
VStem: 166 199<0 1294> 1069 201<0 1294>
LayerCount: 2
Fore
SplineSet
166 1470 m 1,0,-1
 1270 1470 l 1,1,-1
 1270 0 l 1,2,-1
 1069 0 l 1,3,-1
 1069 1294 l 1,4,-1
 365 1294 l 1,5,-1
 365 0 l 1,6,-1
 166 0 l 1,7,-1
 166 1470 l 1,0,-1
EndSplineSet
Validated: 1
EndChar

StartChar: Sigma
Encoding: 931 931 476
Width: 1251
GlyphClass: 2
Flags: W
LayerCount: 2
Fore
SplineSet
88 0 m 1,0,-1
 88 156 l 1,1,-1
 662 762 l 1,2,-1
 115 1315 l 1,3,-1
 115 1470 l 1,4,-1
 1147 1470 l 1,5,-1
 1147 1294 l 1,6,-1
 399 1294 l 1,7,-1
 915 772 l 1,8,-1
 918 764 l 1,9,-1
 362 176 l 1,10,-1
 1182 176 l 1,11,-1
 1182 0 l 1,12,-1
 88 0 l 1,0,-1
EndSplineSet
Validated: 1
EndChar

StartChar: Upsilon1
Encoding: 978 978 479
Width: 1294
GlyphClass: 2
Flags: W
LayerCount: 2
Fore
SplineSet
549 414 m 2,0,1
 549 752 549 752 421 1020 c 128,-1,2
 293 1288 293 1288 31 1311 c 1,3,-1
 31 1481 l 1,4,5
 41 1483 41 1483 61 1483 c 0,6,7
 264 1483 264 1483 418.5 1319 c 128,-1,8
 573 1155 573 1155 645 842 c 1,9,-1
 649 842 l 1,10,11
 717 1155 717 1155 873.5 1319 c 128,-1,12
 1030 1483 1030 1483 1233 1483 c 0,13,14
 1253 1483 1253 1483 1264 1481 c 1,15,-1
 1264 1311 l 1,16,17
 1006 1288 1006 1288 875.5 1019 c 128,-1,18
 745 750 745 750 745 414 c 2,19,-1
 745 0 l 1,20,-1
 549 0 l 1,21,-1
 549 414 l 2,0,1
EndSplineSet
Validated: 1
EndChar

StartChar: Phi
Encoding: 934 934 480
Width: 1565
GlyphClass: 2
Flags: W
LayerCount: 2
Fore
SplineSet
874 319 m 1,0,1
 1077 319 1077 319 1192 438 c 128,-1,2
 1307 557 1307 557 1307 737 c 0,3,4
 1307 922 1307 922 1193 1038.5 c 128,-1,5
 1079 1155 1079 1155 874 1155 c 1,6,-1
 874 319 l 1,0,1
692 1155 m 1,7,8
 487 1155 487 1155 373.5 1037.5 c 128,-1,9
 260 920 260 920 260 737 c 0,10,11
 260 557 260 557 373.5 438 c 128,-1,12
 487 319 487 319 692 319 c 1,13,-1
 692 1155 l 1,7,8
690 1499 m 1,14,-1
 874 1499 l 1,15,-1
 874 1323 l 1,16,17
 1167 1313 1167 1313 1337 1158.5 c 128,-1,18
 1507 1004 1507 1004 1507 739 c 0,19,20
 1507 469 1507 469 1337 316.5 c 128,-1,21
 1167 164 1167 164 874 154 c 1,22,-1
 874 -31 l 1,23,-1
 690 -31 l 1,24,-1
 690 154 l 1,25,26
 403 164 403 164 230 316.5 c 128,-1,27
 57 469 57 469 57 739 c 0,28,29
 57 1006 57 1006 230 1159.5 c 128,-1,30
 403 1313 403 1313 690 1323 c 1,31,-1
 690 1499 l 1,14,-1
EndSplineSet
Validated: 1
EndChar

StartChar: Psi
Encoding: 936 936 482
Width: 1655
GlyphClass: 2
Flags: W
LayerCount: 2
Fore
SplineSet
729 1470 m 1,0,-1
 926 1470 l 1,1,-1
 926 502 l 1,2,3
 1149 518 1149 518 1240 607 c 128,-1,4
 1331 696 1331 696 1331 889 c 2,5,-1
 1331 1470 l 1,6,-1
 1530 1470 l 1,7,-1
 1530 907 l 2,8,9
 1530 625 1530 625 1396 487.5 c 128,-1,10
 1262 350 1262 350 926 328 c 1,11,-1
 926 0 l 1,12,-1
 729 0 l 1,13,-1
 729 328 l 1,14,15
 393 350 393 350 259 488.5 c 128,-1,16
 125 627 125 627 125 907 c 2,17,-1
 125 1470 l 1,18,-1
 324 1470 l 1,19,-1
 324 889 l 2,20,21
 324 696 324 696 416 607 c 128,-1,22
 508 518 508 518 729 502 c 1,23,-1
 729 1470 l 1,0,-1
EndSplineSet
Validated: 1
EndChar

StartChar: Omega
Encoding: 937 937 483
Width: 1606
GlyphClass: 2
Flags: W
LayerCount: 2
Fore
SplineSet
1511 0 m 1,0,-1
 933 0 l 1,1,-1
 933 160 l 1,2,3
 1295 406 1295 406 1295 803 c 0,4,5
 1295 1034 1295 1034 1159 1183.5 c 128,-1,6
 1023 1333 1023 1333 804 1333 c 0,7,8
 581 1333 581 1333 445.5 1183.5 c 128,-1,9
 310 1034 310 1034 310 803 c 0,10,11
 310 406 310 406 673 160 c 1,12,-1
 673 0 l 1,13,-1
 95 0 l 1,14,-1
 95 176 l 1,15,-1
 444 176 l 1,16,-1
 444 184 l 1,17,18
 110 426 110 426 110 821 c 0,19,20
 110 1120 110 1120 306.5 1314.5 c 128,-1,21
 503 1509 503 1509 804 1509 c 0,22,23
 1109 1509 1109 1509 1302.5 1314.5 c 128,-1,24
 1496 1120 1496 1120 1496 821 c 0,25,26
 1496 426 1496 426 1160 184 c 1,27,-1
 1160 176 l 1,28,-1
 1511 176 l 1,29,-1
 1511 0 l 1,0,-1
EndSplineSet
Validated: 1
EndChar

StartChar: alpha
Encoding: 945 945 493
Width: 1199
GlyphClass: 2
Flags: W
LayerCount: 2
Fore
SplineSet
858 547 m 0,0,1
 858 709 858 709 779 825.5 c 128,-1,2
 700 942 700 942 563 942 c 0,3,4
 422 942 422 942 344 833.5 c 128,-1,5
 266 725 266 725 266 545 c 0,6,7
 266 354 266 354 347 239.5 c 128,-1,8
 428 125 428 125 567 125 c 0,9,10
 696 125 696 125 777 253 c 128,-1,11
 858 381 858 381 858 547 c 0,0,1
1040 225 m 2,12,13
 1040 180 1040 180 1051.5 159.5 c 128,-1,14
 1063 139 1063 139 1100 139 c 0,15,16
 1128 139 1128 139 1157 145 c 1,17,-1
 1157 -10 l 1,18,19
 1122 -23 1122 -23 1053 -23 c 0,20,21
 971 -23 971 -23 920.5 22.5 c 128,-1,22
 870 68 870 68 864 184 c 1,23,-1
 858 184 l 1,24,25
 813 86 813 86 721 26.5 c 128,-1,26
 629 -33 629 -33 516 -33 c 0,27,28
 322 -33 322 -33 201 126 c 128,-1,29
 80 285 80 285 80 526 c 0,30,31
 80 784 80 784 203 943 c 128,-1,32
 326 1102 326 1102 537 1102 c 0,33,34
 739 1102 739 1102 856 901 c 1,35,-1
 860 901 l 1,36,-1
 860 1071 l 1,37,-1
 1040 1071 l 1,38,-1
 1040 225 l 2,12,13
EndSplineSet
Validated: 1
EndChar

StartChar: beta
Encoding: 946 946 494
Width: 1163
GlyphClass: 2
Flags: W
LayerCount: 2
Fore
SplineSet
309 246 m 1,0,1
 414 127 414 127 594 127 c 0,2,3
 739 127 739 127 828.5 208 c 128,-1,4
 918 289 918 289 918 420 c 0,5,6
 918 557 918 557 825.5 634 c 128,-1,7
 733 711 733 711 573 711 c 0,8,9
 535 711 535 711 485 705 c 1,10,-1
 485 860 l 1,11,12
 526 854 526 854 559 856 c 0,13,14
 686 856 686 856 761 922.5 c 128,-1,15
 836 989 836 989 836 1108 c 0,16,17
 836 1210 836 1210 769 1272.5 c 128,-1,18
 702 1335 702 1335 584 1335 c 0,19,20
 440 1335 440 1335 374.5 1252 c 128,-1,21
 309 1169 309 1169 309 993 c 2,22,-1
 309 246 l 1,23,-1
 309 246 l 1,0,1
129 -424 m 1,24,-1
 129 1001 l 2,25,26
 129 1221 129 1221 249 1356 c 128,-1,27
 369 1491 369 1491 592 1491 c 0,28,29
 778 1491 778 1491 896 1391.5 c 128,-1,30
 1014 1292 1014 1292 1014 1122 c 0,31,32
 1014 901 1014 901 776 801 c 1,33,-1
 776 799 l 1,34,35
 934 768 934 768 1019 667.5 c 128,-1,36
 1104 567 1104 567 1104 428 c 0,37,38
 1104 231 1104 231 965.5 100 c 128,-1,39
 827 -31 827 -31 623 -31 c 0,40,41
 436 -31 436 -31 309 90 c 1,42,-1
 309 -424 l 1,43,-1
 129 -424 l 1,24,-1
EndSplineSet
Validated: 37
EndChar

StartChar: gamma
Encoding: 947 947 495
Width: 1137
GlyphClass: 2
Flags: W
LayerCount: 2
Fore
SplineSet
1051 1073 m 1,0,1
 989 514 989 514 637 -4 c 1,2,-1
 631 -424 l 1,3,-1
 442 -424 l 1,4,5
 457 -160 457 -160 457 -72 c 0,6,7
 457 231 457 231 331 584.5 c 128,-1,8
 205 938 205 938 63 938 c 0,9,10
 43 938 43 938 20 932 c 1,11,-1
 20 1077 l 1,12,13
 74 1092 74 1092 121 1092 c 0,14,15
 285 1092 285 1092 398.5 859.5 c 128,-1,16
 512 627 512 627 598 213 c 1,17,-1
 602 213 l 1,18,19
 815 578 815 578 870 1073 c 1,20,-1
 1051 1073 l 1,21,-1
 1051 1073 l 1,0,1
EndSplineSet
Validated: 5
EndChar

StartChar: delta
Encoding: 948 948 496
Width: 1145
GlyphClass: 2
Flags: W
LayerCount: 2
Fore
SplineSet
606 893 m 1,0,1
 262 778 262 778 262 481 c 0,2,3
 262 330 262 330 349 228.5 c 128,-1,4
 436 127 436 127 571 127 c 0,5,6
 715 127 715 127 800 234.5 c 128,-1,7
 885 342 885 342 885 496 c 0,8,9
 885 614 885 614 826.5 704.5 c 128,-1,10
 768 795 768 795 606 893 c 1,0,1
965 1288 m 1,11,12
 813 1341 813 1341 629 1341 c 0,13,14
 543 1341 543 1341 493.5 1316.5 c 128,-1,15
 444 1292 444 1292 444 1253 c 0,16,17
 444 1227 444 1227 463.5 1203.5 c 128,-1,18
 483 1180 483 1180 561 1128 c 2,19,-1
 762 1001 l 2,20,21
 940 885 940 885 1004.5 769 c 128,-1,22
 1069 653 1069 653 1069 510 c 0,23,24
 1069 276 1069 276 930 122.5 c 128,-1,25
 791 -31 791 -31 567 -31 c 0,26,27
 352 -31 352 -31 214 114.5 c 128,-1,28
 76 260 76 260 76 469 c 0,29,30
 76 651 76 651 185.5 790.5 c 128,-1,31
 295 930 295 930 467 987 c 1,32,33
 369 1053 369 1053 314.5 1118.5 c 128,-1,34
 260 1184 260 1184 260 1266 c 0,35,36
 260 1378 260 1378 364.5 1438.5 c 128,-1,37
 469 1499 469 1499 635 1499 c 0,38,39
 819 1499 819 1499 965 1462 c 1,40,-1
 965 1288 l 1,11,12
EndSplineSet
Validated: 1
EndChar

StartChar: epsilon
Encoding: 949 949 497
Width: 1043
GlyphClass: 2
Flags: W
LayerCount: 2
Fore
SplineSet
662 485 m 1,0,1
 614 492 614 492 522 492 c 0,2,3
 393 492 393 492 329.5 447.5 c 128,-1,4
 266 403 266 403 266 317 c 0,5,6
 266 223 266 223 342 172 c 128,-1,7
 418 121 418 121 531 121 c 0,8,9
 658 121 658 121 731.5 180.5 c 128,-1,10
 805 240 805 240 809 344 c 1,11,-1
 987 344 l 1,12,13
 985 168 985 168 862 65.5 c 128,-1,14
 739 -37 739 -37 524 -37 c 0,15,16
 324 -37 324 -37 201 53 c 128,-1,17
 78 143 78 143 78 303 c 0,18,19
 78 487 78 487 275 565 c 1,20,-1
 275 569 l 1,21,22
 121 653 121 653 121 797 c 0,23,24
 121 934 121 934 232.5 1019 c 128,-1,25
 344 1104 344 1104 537 1104 c 0,26,27
 711 1104 711 1104 827.5 1021 c 128,-1,28
 944 938 944 938 959 778 c 1,29,-1
 782 778 l 1,30,31
 770 856 770 856 709.5 901 c 128,-1,32
 649 946 649 946 543 946 c 0,33,34
 430 946 430 946 365.5 899 c 128,-1,35
 301 852 301 852 301 772 c 0,36,37
 301 705 301 705 357.5 668 c 128,-1,38
 414 631 414 631 551 631 c 0,39,40
 612 631 612 631 662 633 c 1,41,-1
 662 485 l 1,42,-1
 662 485 l 1,0,1
EndSplineSet
Validated: 5
EndChar

StartChar: zeta
Encoding: 950 950 498
Width: 919
GlyphClass: 2
Flags: W
LayerCount: 2
Fore
SplineSet
889 1343 m 1,0,1
 582 1161 582 1161 424 960.5 c 128,-1,2
 266 760 266 760 266 520 c 0,3,4
 266 371 266 371 341 287 c 128,-1,5
 416 203 416 203 641 166 c 0,6,7
 784 141 784 141 841.5 84 c 128,-1,8
 899 27 899 27 899 -66 c 0,9,10
 899 -188 899 -188 805 -401 c 1,11,-1
 655 -401 l 1,12,13
 725 -236 725 -236 725 -121 c 0,14,15
 725 -63 725 -63 695.5 -33.5 c 128,-1,16
 666 -4 666 -4 590 8 c 0,17,18
 301 57 301 57 188.5 177 c 128,-1,19
 76 297 76 297 76 485 c 0,20,21
 76 725 76 725 223.5 935 c 128,-1,22
 371 1145 371 1145 627 1315 c 1,23,-1
 627 1319 l 1,24,-1
 170 1319 l 1,25,-1
 170 1470 l 1,26,-1
 889 1470 l 1,27,-1
 889 1343 l 1,0,1
EndSplineSet
Validated: 1
EndChar

StartChar: eta
Encoding: 951 951 499
Width: 1166
GlyphClass: 2
Flags: W
LayerCount: 2
Fore
SplineSet
341 922 m 1,0,1
 472 1104 472 1104 667 1104 c 0,2,3
 847 1104 847 1104 944 1006.5 c 128,-1,4
 1041 909 1041 909 1041 729 c 2,5,-1
 1041 -424 l 1,6,-1
 861 -424 l 1,7,-1
 861 657 l 2,8,9
 861 811 861 811 808 875.5 c 128,-1,10
 755 940 755 940 632 940 c 256,11,12
 509 940 509 940 429 847 c 128,-1,13
 349 754 349 754 349 584 c 2,14,-1
 349 0 l 1,15,-1
 169 0 l 1,16,-1
 169 811 l 2,17,18
 169 891 169 891 148.5 913.5 c 128,-1,19
 128 936 128 936 79 936 c 0,20,21
 62 936 62 936 40 932 c 1,22,-1
 40 1075 l 1,23,24
 87 1090 87 1090 144 1090 c 0,25,26
 228 1090 228 1090 273 1050 c 128,-1,27
 318 1010 318 1010 337 922 c 1,28,-1
 341 922 l 1,0,1
EndSplineSet
Validated: 1
EndChar

StartChar: theta
Encoding: 952 952 500
Width: 1135
GlyphClass: 2
Flags: W
LayerCount: 2
Fore
SplineSet
864 823 m 1,0,1
 856 1061 856 1061 781.5 1198 c 128,-1,2
 707 1335 707 1335 567 1335 c 0,3,4
 428 1335 428 1335 352 1199 c 128,-1,5
 276 1063 276 1063 270 823 c 1,6,-1
 864 823 l 1,7,-1
 864 823 l 1,0,1
270 670 m 1,8,9
 276 406 276 406 351 265.5 c 128,-1,10
 426 125 426 125 567 125 c 0,11,12
 707 125 707 125 783.5 264 c 128,-1,13
 860 403 860 403 864 670 c 1,14,-1
 270 670 l 1,8,9
86 731 m 0,15,16
 86 1090 86 1090 208 1289.5 c 128,-1,17
 330 1489 330 1489 567 1489 c 0,18,19
 805 1489 805 1489 928 1289.5 c 128,-1,20
 1051 1090 1051 1090 1051 731 c 0,21,22
 1051 369 1051 369 927 169 c 128,-1,23
 803 -31 803 -31 567 -31 c 0,24,25
 330 -31 330 -31 208 171 c 128,-1,26
 86 373 86 373 86 731 c 0,15,16
EndSplineSet
Validated: 5
EndChar

StartChar: theta1
Encoding: 977 977 501
Width: 1161
GlyphClass: 2
Flags: W
LayerCount: 2
Fore
SplineSet
844 836 m 1,0,1
 838 1110 838 1110 763 1221.5 c 128,-1,2
 688 1333 688 1333 553 1333 c 0,3,4
 444 1333 444 1333 366.5 1265.5 c 128,-1,5
 289 1198 289 1198 289 1085 c 0,6,7
 289 952 289 952 382 890.5 c 128,-1,8
 475 829 475 829 700 829 c 0,9,10
 766 829 766 829 844 836 c 1,0,1
268 563 m 1,11,12
 268 371 268 371 345 249 c 128,-1,13
 422 127 422 127 569 127 c 0,14,15
 674 127 674 127 738.5 191.5 c 128,-1,16
 803 256 803 256 825.5 369.5 c 128,-1,17
 848 483 848 483 846 684 c 1,18,19
 762 678 762 678 682 678 c 0,20,21
 391 678 391 678 252 773 c 128,-1,22
 113 868 113 868 113 1073 c 0,23,24
 113 1257 113 1257 237.5 1372 c 128,-1,25
 362 1487 362 1487 555 1487 c 0,26,27
 778 1487 778 1487 894 1330.5 c 128,-1,28
 1010 1174 1010 1174 1028 856 c 1,29,30
 1067 860 1067 860 1130 870 c 1,31,-1
 1130 721 l 1,32,33
 1083 713 1083 713 1032 705 c 1,34,35
 1032 330 1032 330 914.5 149.5 c 128,-1,36
 797 -31 797 -31 555 -31 c 0,37,38
 336 -31 336 -31 208 122.5 c 128,-1,39
 80 276 80 276 80 563 c 1,40,-1
 268 563 l 1,11,12
EndSplineSet
Validated: 33
EndChar

StartChar: iota
Encoding: 953 953 502
Width: 492
GlyphClass: 2
Flags: W
HStem: -23 162<330.001 477> 1051 20G<135 315>
VStem: 135 180<163.242 1071>
LayerCount: 2
Fore
SplineSet
315 1071 m 1,0,-1
 315 240 l 2,1,2
 315 186 315 186 335.5 162.5 c 128,-1,3
 356 139 356 139 406 139 c 0,4,5
 440 139 440 139 477 147 c 1,6,-1
 477 -10 l 1,7,8
 416 -23 416 -23 346 -23 c 0,9,10
 242 -23 242 -23 188.5 28.5 c 128,-1,11
 135 80 135 80 135 229 c 2,12,-1
 135 1071 l 1,13,-1
 315 1071 l 1,0,-1
EndSplineSet
Validated: 1
EndChar

StartChar: kappa
Encoding: 954 954 503
Width: 1077
GlyphClass: 2
Flags: W
HStem: 0 21G<135 315 814.441 1063> 936 154<816.033 1022> 1051 20G<135 315>
VStem: 135 180<0 383 584 1071>
LayerCount: 2
Fore
SplineSet
422 494 m 1,0,-1
 315 383 l 1,1,-1
 315 0 l 1,2,-1
 135 0 l 1,3,-1
 135 1071 l 1,4,-1
 315 1071 l 1,5,-1
 315 584 l 1,6,-1
 653 954 l 2,7,8
 731 1038 731 1038 789.5 1064 c 128,-1,9
 848 1090 848 1090 920 1090 c 0,10,11
 975 1090 975 1090 1022 1081 c 1,12,-1
 1022 930 l 1,13,14
 981 936 981 936 956 936 c 0,15,16
 883 936 883 936 842 910.5 c 128,-1,17
 801 885 801 885 727 809 c 2,18,-1
 549 623 l 1,19,-1
 1063 0 l 1,20,-1
 831 0 l 1,21,-1
 422 494 l 1,0,-1
EndSplineSet
Validated: 1
EndChar

StartChar: lambda
Encoding: 955 955 504
Width: 1132
GlyphClass: 2
Flags: W
LayerCount: 2
Fore
SplineSet
35 0 m 1,0,-1
 493 1026 l 1,1,-1
 420 1237 l 2,2,3
 401 1294 401 1294 365.5 1315.5 c 128,-1,4
 330 1337 330 1337 266 1337 c 0,5,6
 203 1337 203 1337 160 1329 c 1,7,-1
 160 1475 l 1,8,9
 242 1491 242 1491 323 1491 c 0,10,11
 420 1491 420 1491 477 1453 c 128,-1,12
 534 1415 534 1415 575 1307 c 2,13,-1
 676 1026 l 1,14,-1
 971 209 l 2,15,16
 985 174 985 174 1001.5 156.5 c 128,-1,17
 1018 139 1018 139 1057 139 c 0,18,19
 1098 139 1098 139 1118 145 c 1,20,-1
 1118 -12 l 1,21,22
 1067 -23 1067 -23 1012 -23 c 0,23,24
 936 -23 936 -23 884.5 8 c 128,-1,25
 833 39 833 39 809 113 c 2,26,-1
 569 805 l 1,27,-1
 233 0 l 1,28,-1
 35 0 l 1,0,-1
EndSplineSet
Validated: 1
EndChar

StartChar: mu
Encoding: 956 956 505
Width: 1167
GlyphClass: 2
Flags: W
LayerCount: 2
Fore
SplineSet
135 1071 m 1,0,-1
 315 1071 l 1,1,-1
 315 424 l 2,2,3
 315 287 315 287 384 211 c 128,-1,4
 453 135 453 135 573 135 c 0,5,6
 700 135 700 135 763.5 211 c 128,-1,7
 827 287 827 287 827 422 c 2,8,-1
 827 1071 l 1,9,-1
 1008 1071 l 1,10,-1
 1008 256 l 2,11,12
 1008 184 1008 184 1027.5 161.5 c 128,-1,13
 1047 139 1047 139 1087 139 c 0,14,15
 1116 139 1116 139 1143 143 c 1,16,-1
 1143 -6 l 1,17,18
 1090 -20 1090 -20 1032 -20 c 0,19,20
 868 -20 868 -20 840 125 c 1,21,22
 731 -31 731 -31 563 -31 c 0,23,24
 483 -31 483 -31 414.5 9 c 128,-1,25
 346 49 346 49 319 106 c 1,26,-1
 315 104 l 1,27,-1
 315 -424 l 1,28,-1
 135 -424 l 1,29,-1
 135 1071 l 1,0,-1
EndSplineSet
Validated: 1
EndChar

StartChar: nu
Encoding: 957 957 506
Width: 1106
GlyphClass: 2
Flags: W
LayerCount: 2
Fore
SplineSet
1036 1073 m 1,0,1
 987 600 987 600 653 0 c 1,2,-1
 485 0 l 1,3,-1
 180 823 l 2,4,5
 152 899 152 899 124 917.5 c 128,-1,6
 96 936 96 936 63 936 c 0,7,8
 47 936 47 936 25 932 c 1,9,-1
 25 1075 l 1,10,11
 70 1090 70 1090 111 1090 c 0,12,13
 201 1090 201 1090 249 1061 c 128,-1,14
 297 1032 297 1032 322 961 c 2,15,-1
 588 209 l 1,16,17
 805 631 805 631 850 1073 c 1,18,-1
 1036 1073 l 1,0,1
EndSplineSet
Validated: 1
EndChar

StartChar: xi
Encoding: 958 958 507
Width: 976
GlyphClass: 2
Flags: W
LayerCount: 2
Fore
SplineSet
920 1317 m 1,0,1
 858 1323 858 1323 723 1323 c 0,2,3
 512 1323 512 1323 419 1260.5 c 128,-1,4
 326 1198 326 1198 326 1083 c 0,5,6
 326 969 326 969 412 907.5 c 128,-1,7
 498 846 498 846 668 846 c 0,8,9
 727 846 727 846 797 850 c 1,10,-1
 797 694 l 1,11,12
 729 702 729 702 659 702 c 0,13,14
 463 702 463 702 359.5 635.5 c 128,-1,15
 256 569 256 569 256 442 c 0,16,17
 256 322 256 322 337 255 c 128,-1,18
 418 188 418 188 653 164 c 0,19,20
 840 143 840 143 893 84 c 128,-1,21
 946 25 946 25 946 -66 c 0,22,23
 946 -190 946 -190 850 -401 c 1,24,-1
 702 -401 l 1,25,26
 772 -229 772 -229 772 -121 c 0,27,28
 772 -53 772 -53 734 -30.5 c 128,-1,29
 696 -8 696 -8 559 6 c 0,30,31
 307 33 307 33 188.5 131 c 128,-1,32
 70 229 70 229 70 401 c 0,33,34
 70 547 70 547 156 646 c 128,-1,35
 242 745 242 745 387 782 c 1,36,-1
 387 786 l 1,37,38
 276 811 276 811 210.5 887 c 128,-1,39
 145 963 145 963 145 1063 c 0,40,41
 145 1235 145 1235 319 1321 c 1,42,-1
 319 1325 l 1,43,-1
 135 1321 l 1,44,-1
 135 1470 l 1,45,-1
 920 1470 l 1,46,-1
 920 1317 l 1,0,1
EndSplineSet
Validated: 1
EndChar

StartChar: pi
Encoding: 960 960 509
Width: 1251
GlyphClass: 2
Flags: W
HStem: -23 162<1044.75 1192> 0 21G<197 377> 913 158<25 197 377 850 1028 1206>
VStem: 197 180<0 913> 850 178<160.152 913>
LayerCount: 2
Fore
SplineSet
25 1071 m 1,0,-1
 1206 1071 l 1,1,-1
 1206 913 l 1,2,-1
 1028 913 l 1,3,-1
 1028 248 l 2,4,5
 1028 180 1028 180 1051.5 159.5 c 128,-1,6
 1075 139 1075 139 1118 139 c 0,7,8
 1153 139 1153 139 1192 147 c 1,9,-1
 1192 -10 l 1,10,11
 1128 -23 1128 -23 1065 -23 c 0,12,13
 950 -23 950 -23 900 30.5 c 128,-1,14
 850 84 850 84 850 221 c 2,15,-1
 850 913 l 1,16,-1
 377 913 l 1,17,-1
 377 0 l 1,18,-1
 197 0 l 1,19,-1
 197 913 l 1,20,-1
 25 913 l 1,21,-1
 25 1071 l 1,0,-1
EndSplineSet
Validated: 1
EndChar

StartChar: rho
Encoding: 961 961 510
Width: 1151
GlyphClass: 2
Flags: W
LayerCount: 2
Fore
SplineSet
295 522 m 0,0,1
 295 324 295 324 379 225.5 c 128,-1,2
 463 127 463 127 584 127 c 0,3,4
 729 127 729 127 808 244.5 c 128,-1,5
 887 362 887 362 887 547 c 0,6,7
 887 721 887 721 810 829.5 c 128,-1,8
 733 938 733 938 588 938 c 0,9,10
 442 938 442 938 368.5 828.5 c 128,-1,11
 295 719 295 719 295 522 c 0,0,1
115 -424 m 1,12,-1
 115 598 l 2,13,14
 115 821 115 821 252 959.5 c 128,-1,15
 389 1098 389 1098 608 1098 c 0,16,17
 825 1098 825 1098 948 947.5 c 128,-1,18
 1071 797 1071 797 1071 567 c 0,19,20
 1071 299 1071 299 942 134 c 128,-1,21
 813 -31 813 -31 594 -31 c 0,22,23
 500 -31 500 -31 419 12 c 128,-1,24
 338 55 338 55 293 131 c 1,25,-1
 293 -424 l 1,26,-1
 115 -424 l 1,12,-1
EndSplineSet
Validated: 1
EndChar

StartChar: sigma1
Encoding: 962 962 511
Width: 1067
GlyphClass: 2
Flags: W
LayerCount: 2
Fore
SplineSet
834 678 m 1,0,1
 817 801 817 801 749.5 870.5 c 128,-1,2
 682 940 682 940 569 940 c 0,3,4
 428 940 428 940 344 837.5 c 128,-1,5
 260 735 260 735 260 586 c 0,6,7
 260 434 260 434 333 342 c 128,-1,8
 406 250 406 250 623 190 c 0,9,10
 807 139 807 139 870.5 70.5 c 128,-1,11
 934 2 934 2 934 -102 c 0,12,13
 934 -213 934 -213 838 -401 c 1,14,-1
 692 -401 l 1,15,16
 766 -264 766 -264 766 -145 c 0,17,18
 766 -90 766 -90 731 -48 c 128,-1,19
 696 -6 696 -6 576 27 c 0,20,21
 313 96 313 96 191.5 219 c 128,-1,22
 70 342 70 342 70 569 c 0,23,24
 70 791 70 791 210 946.5 c 128,-1,25
 350 1102 350 1102 578 1102 c 0,26,27
 764 1102 764 1102 884 983 c 128,-1,28
 1004 864 1004 864 1008 678 c 1,29,-1
 834 678 l 1,0,1
EndSplineSet
Validated: 1
EndChar

StartChar: sigma
Encoding: 963 963 512
Width: 1204
GlyphClass: 2
Flags: W
LayerCount: 2
Fore
SplineSet
868 522 m 0,0,1
 868 709 868 709 790.5 811 c 128,-1,2
 713 913 713 913 571 913 c 0,3,4
 424 913 424 913 342 800.5 c 128,-1,5
 260 688 260 688 260 522 c 0,6,7
 260 340 260 340 343 233.5 c 128,-1,8
 426 127 426 127 565 127 c 0,9,10
 707 127 707 127 787.5 239.5 c 128,-1,11
 868 352 868 352 868 522 c 0,0,1
1176 913 m 1,12,-1
 874 913 l 1,13,-1
 874 909 l 1,14,15
 1051 774 1051 774 1051 524 c 0,16,17
 1051 283 1051 283 914.5 127 c 128,-1,18
 778 -29 778 -29 565 -29 c 0,19,20
 346 -29 346 -29 211 125 c 128,-1,21
 76 279 76 279 76 522 c 0,22,23
 76 762 76 762 215 916.5 c 128,-1,24
 354 1071 354 1071 580 1071 c 2,25,-1
 1176 1071 l 1,26,-1
 1176 913 l 1,12,-1
EndSplineSet
Validated: 1
EndChar

StartChar: tau
Encoding: 964 964 513
Width: 991
GlyphClass: 2
Flags: W
LayerCount: 2
Fore
SplineSet
31 1071 m 1,0,-1
 963 1071 l 1,1,-1
 963 913 l 1,2,-1
 557 913 l 1,3,-1
 557 248 l 2,4,5
 557 182 557 182 581.5 160.5 c 128,-1,6
 606 139 606 139 659 139 c 0,7,8
 698 139 698 139 739 147 c 1,9,-1
 739 -10 l 1,10,11
 674 -23 674 -23 606 -23 c 0,12,13
 487 -23 487 -23 433 30.5 c 128,-1,14
 379 84 379 84 379 223 c 2,15,-1
 379 913 l 1,16,-1
 31 913 l 1,17,-1
 31 1071 l 1,0,-1
EndSplineSet
Validated: 1
EndChar

StartChar: upsilon
Encoding: 965 965 514
Width: 1126
GlyphClass: 2
Flags: W
LayerCount: 2
Fore
SplineSet
956 1071 m 1,0,1
 1032 797 1032 797 1032 569 c 0,2,3
 1032 268 1032 268 912.5 118.5 c 128,-1,4
 793 -31 793 -31 557 -31 c 0,5,6
 383 -31 383 -31 275.5 60.5 c 128,-1,7
 168 152 168 152 168 334 c 2,8,-1
 168 821 l 2,9,10
 168 885 168 885 149.5 910.5 c 128,-1,11
 131 936 131 936 84 936 c 0,12,13
 61 936 61 936 41 932 c 1,14,-1
 41 1075 l 1,15,16
 88 1090 88 1090 139 1090 c 0,17,18
 238 1090 238 1090 293 1040.5 c 128,-1,19
 348 991 348 991 348 834 c 2,20,-1
 348 381 l 2,21,22
 348 262 348 262 407.5 194.5 c 128,-1,23
 467 127 467 127 571 127 c 0,24,25
 711 127 711 127 781.5 225.5 c 128,-1,26
 852 324 852 324 852 551 c 0,27,28
 852 831 852 831 766 1071 c 1,29,-1
 956 1071 l 1,0,1
EndSplineSet
Validated: 1
EndChar

StartChar: phi
Encoding: 966 966 515
Width: 1518
GlyphClass: 2
Flags: W
LayerCount: 2
Fore
SplineSet
670 942 m 1,0,1
 473 942 473 942 363.5 829.5 c 128,-1,2
 254 717 254 717 254 535 c 0,3,4
 254 350 254 350 362.5 237.5 c 128,-1,5
 471 125 471 125 670 125 c 1,6,-1
 670 942 l 1,0,1
850 125 m 1,7,8
 1044 125 1044 125 1154 238.5 c 128,-1,9
 1264 352 1264 352 1264 535 c 0,10,11
 1264 717 1264 717 1154 829.5 c 128,-1,12
 1044 942 1044 942 850 942 c 1,13,-1
 850 125 l 1,7,8
670 1364 m 1,14,-1
 850 1364 l 1,15,-1
 850 1096 l 1,16,17
 1128 1083 1128 1083 1286 934.5 c 128,-1,18
 1444 786 1444 786 1444 535 c 0,19,20
 1444 281 1444 281 1286 132.5 c 128,-1,21
 1128 -16 1128 -16 850 -29 c 1,22,-1
 850 -424 l 1,23,-1
 670 -424 l 1,24,-1
 670 -29 l 1,25,26
 389 -16 389 -16 232.5 133.5 c 128,-1,27
 76 283 76 283 76 535 c 0,28,29
 74 786 74 786 231.5 934.5 c 128,-1,30
 389 1083 389 1083 670 1096 c 1,31,-1
 670 1364 l 1,14,-1
EndSplineSet
Validated: 33
EndChar

StartChar: phi1
Encoding: 981 981 516
Width: 1495
GlyphClass: 2
Flags: W
LayerCount: 2
Fore
SplineSet
838 135 m 1,0,1
 1028 135 1028 135 1135.5 246.5 c 128,-1,2
 1243 358 1243 358 1243 535 c 0,3,4
 1243 702 1243 702 1138.5 815 c 128,-1,5
 1034 928 1034 928 838 928 c 1,6,-1
 838 135 l 1,0,1
657 -424 m 1,7,-1
 657 -18 l 1,8,9
 381 -6 381 -6 225.5 141.5 c 128,-1,10
 70 289 70 289 70 537 c 0,11,12
 70 737 70 737 180.5 873.5 c 128,-1,13
 291 1010 291 1010 494 1065 c 1,14,-1
 494 905 l 1,15,16
 383 866 383 866 317.5 769 c 128,-1,17
 252 672 252 672 252 537 c 0,18,19
 252 356 252 356 359.5 245.5 c 128,-1,20
 467 135 467 135 657 135 c 1,21,-1
 657 1081 l 1,22,23
 711 1085 711 1085 766 1085 c 0,24,25
 1083 1085 1083 1085 1254 935.5 c 128,-1,26
 1425 786 1425 786 1425 535 c 0,27,28
 1425 289 1425 289 1268.5 141.5 c 128,-1,29
 1112 -6 1112 -6 838 -18 c 1,30,-1
 838 -424 l 1,31,-1
 657 -424 l 1,7,-1
EndSplineSet
Validated: 1
EndChar

StartChar: chi
Encoding: 967 967 517
Width: 1196
GlyphClass: 2
Flags: W
LayerCount: 2
Fore
SplineSet
481 354 m 1,0,-1
 227 838 l 2,1,2
 195 899 195 899 169 918.5 c 128,-1,3
 143 938 143 938 104 938 c 0,4,5
 84 938 84 938 59 932 c 1,6,-1
 59 1077 l 1,7,8
 109 1092 109 1092 154 1092 c 0,9,10
 236 1092 236 1092 282 1067 c 128,-1,11
 328 1042 328 1042 365 971 c 2,12,-1
 598 526 l 1,13,-1
 913 1071 l 1,14,-1
 1122 1071 l 1,15,-1
 696 342 l 1,16,-1
 987 -211 l 2,17,18
 1006 -244 1006 -244 1026.5 -262.5 c 128,-1,19
 1047 -281 1047 -281 1085 -281 c 0,20,21
 1124 -281 1124 -281 1151 -272 c 1,22,-1
 1151 -430 l 1,23,24
 1096 -442 1096 -442 1051 -442 c 0,25,26
 969 -442 969 -442 916.5 -407.5 c 128,-1,27
 864 -373 864 -373 825 -297 c 2,28,-1
 582 168 l 1,29,-1
 238 -424 l 1,30,-1
 31 -424 l 1,31,-1
 481 354 l 1,0,-1
EndSplineSet
Validated: 1
EndChar

StartChar: psi
Encoding: 968 968 518
Width: 1509
GlyphClass: 2
Flags: W
LayerCount: 2
Fore
SplineSet
666 1364 m 1,0,-1
 846 1364 l 1,1,-1
 846 145 l 1,2,3
 1042 154 1042 154 1123 226.5 c 128,-1,4
 1204 299 1204 299 1204 479 c 2,5,-1
 1204 1071 l 1,6,-1
 1384 1071 l 1,7,-1
 1384 424 l 2,8,9
 1384 213 1384 213 1250 108.5 c 128,-1,10
 1116 4 1116 4 846 -8 c 1,11,-1
 846 -424 l 1,12,-1
 666 -424 l 1,13,-1
 666 -8 l 1,14,15
 393 4 393 4 259 108.5 c 128,-1,16
 125 213 125 213 125 424 c 2,17,-1
 125 1071 l 1,18,-1
 305 1071 l 1,19,-1
 305 479 l 2,20,21
 305 299 305 299 386 226.5 c 128,-1,22
 467 154 467 154 666 145 c 1,23,-1
 666 1364 l 1,0,-1
EndSplineSet
Validated: 1
EndChar

StartChar: omega
Encoding: 969 969 519
Width: 1530
GlyphClass: 2
Flags: W
LayerCount: 2
Fore
SplineSet
674 805 m 1,0,-1
 856 805 l 1,1,-1
 856 354 l 2,2,3
 856 246 856 246 902 186.5 c 128,-1,4
 948 127 948 127 1028 127 c 0,5,6
 1143 127 1143 127 1204.5 232.5 c 128,-1,7
 1266 338 1266 338 1266 494 c 0,8,9
 1266 795 1266 795 1077 1071 c 1,10,-1
 1274 1071 l 1,11,12
 1446 807 1446 807 1446 479 c 0,13,14
 1446 244 1446 244 1337.5 106.5 c 128,-1,15
 1229 -31 1229 -31 1049 -31 c 0,16,17
 942 -31 942 -31 863 28.5 c 128,-1,18
 784 88 784 88 768 178 c 1,19,-1
 764 178 l 1,20,21
 745 88 745 88 666.5 28.5 c 128,-1,22
 588 -31 588 -31 481 -31 c 0,23,24
 301 -31 301 -31 193.5 106.5 c 128,-1,25
 86 244 86 244 86 479 c 0,26,27
 86 807 86 807 256 1071 c 1,28,-1
 453 1071 l 1,29,30
 264 795 264 795 264 494 c 0,31,32
 264 338 264 338 325.5 232.5 c 128,-1,33
 387 127 387 127 502 127 c 0,34,35
 582 127 582 127 628 186.5 c 128,-1,36
 674 246 674 246 674 354 c 2,37,-1
 674 805 l 1,0,-1
EndSplineSet
Validated: 1
EndChar

StartChar: omega1
Encoding: 982 982 520
Width: 1548
GlyphClass: 2
Flags: W
LayerCount: 2
Fore
SplineSet
1292 913 m 1,0,1
 1446 700 1446 700 1446 463 c 0,2,3
 1446 254 1446 254 1338.5 111.5 c 128,-1,4
 1231 -31 1231 -31 1051 -31 c 0,5,6
 958 -31 958 -31 880.5 22.5 c 128,-1,7
 803 76 803 76 774 170 c 1,8,-1
 768 170 l 1,9,10
 739 76 739 76 663.5 22.5 c 128,-1,11
 588 -31 588 -31 496 -31 c 0,12,13
 315 -31 315 -31 209.5 108.5 c 128,-1,14
 104 248 104 248 104 467 c 0,15,16
 104 670 104 670 213 870 c 1,17,-1
 385 870 l 1,18,19
 287 672 287 672 287 477 c 0,20,21
 287 326 287 326 350.5 226.5 c 128,-1,22
 414 127 414 127 518 127 c 0,23,24
 596 127 596 127 639 183.5 c 128,-1,25
 682 240 682 240 682 336 c 2,26,-1
 682 743 l 1,27,-1
 860 743 l 1,28,-1
 860 336 l 2,29,30
 860 240 860 240 901 183.5 c 128,-1,31
 942 127 942 127 1030 127 c 0,32,33
 1143 127 1143 127 1204.5 230.5 c 128,-1,34
 1266 334 1266 334 1266 475 c 0,35,36
 1266 696 1266 696 1114 913 c 1,37,-1
 57 913 l 1,38,-1
 57 1071 l 1,39,-1
 1464 1071 l 1,40,-1
 1464 913 l 1,41,-1
 1292 913 l 1,0,1
EndSplineSet
Validated: 1
EndChar

StartChar: uni0411
Encoding: 1041 1041 534
Width: 1366
GlyphClass: 2
Flags: W
LayerCount: 2
Fore
SplineSet
362 174 m 1,0,-1
 776 174 l 2,1,2
 932 174 932 174 1009.5 248 c 128,-1,3
 1087 322 1087 322 1087 449 c 0,4,5
 1087 569 1087 569 1004.5 634.5 c 128,-1,6
 922 700 922 700 743 700 c 2,7,-1
 362 700 l 1,8,-1
 362 174 l 1,0,-1
166 1470 m 1,9,-1
 1188 1470 l 1,10,-1
 1188 1294 l 1,11,-1
 362 1294 l 1,12,-1
 362 874 l 1,13,-1
 788 874 l 2,14,15
 1032 874 1032 874 1159 763.5 c 128,-1,16
 1286 653 1286 653 1286 449 c 0,17,18
 1286 254 1286 254 1152 127 c 128,-1,19
 1018 0 1018 0 786 0 c 2,20,-1
 166 0 l 1,21,-1
 166 1470 l 1,9,-1
EndSplineSet
Validated: 1
EndChar

StartChar: uni0414
Encoding: 1044 1044 537
Width: 1495
GlyphClass: 2
Flags: W
LayerCount: 2
Fore
SplineSet
647 1294 m 1,0,1
 594 578 594 578 346 176 c 1,2,-1
 1085 176 l 1,3,-1
 1085 1294 l 1,4,-1
 647 1294 l 1,0,1
10 176 m 1,5,-1
 119 176 l 1,6,7
 285 403 285 403 362.5 676.5 c 128,-1,8
 440 950 440 950 461 1468 c 1,9,-1
 1286 1470 l 1,10,-1
 1286 176 l 1,11,-1
 1456 176 l 1,12,-1
 1456 -399 l 1,13,-1
 1266 -399 l 1,14,-1
 1266 0 l 1,15,-1
 201 0 l 1,16,-1
 201 -399 l 1,17,-1
 10 -399 l 1,18,-1
 10 176 l 1,5,-1
EndSplineSet
Validated: 1
EndChar

StartChar: uni0416
Encoding: 1046 1046 539
Width: 2058
GlyphClass: 2
Flags: W
LayerCount: 2
Fore
SplineSet
933 686 m 1,0,-1
 700 686 l 2,1,2
 575 686 575 686 513.5 638 c 128,-1,3
 452 590 452 590 444 492 c 2,4,-1
 419 201 l 2,5,6
 411 92 411 92 357.5 38 c 128,-1,7
 304 -16 304 -16 173 -16 c 0,8,9
 91 -16 91 -16 50 -6 c 1,10,-1
 50 160 l 1,11,12
 89 152 89 152 124 152 c 0,13,14
 171 152 171 152 193.5 171 c 128,-1,15
 216 190 216 190 224 266 c 2,16,-1
 245 455 l 2,17,18
 251 504 251 504 261 552 c 128,-1,19
 271 600 271 600 296 642 c 128,-1,20
 321 684 321 684 363 718 c 128,-1,21
 405 752 405 752 470 768 c 1,22,-1
 470 772 l 1,23,24
 296 827 296 827 274 1026 c 2,25,-1
 253 1198 l 2,26,27
 245 1268 245 1268 221.5 1293.5 c 128,-1,28
 198 1319 198 1319 147 1319 c 0,29,30
 112 1319 112 1319 61 1311 c 1,31,-1
 61 1483 l 1,32,33
 122 1491 122 1491 188 1493 c 0,34,35
 312 1493 312 1493 365.5 1442 c 128,-1,36
 419 1391 419 1391 429 1280 c 2,37,-1
 452 1030 l 2,38,39
 460 936 460 936 517.5 892 c 128,-1,40
 575 848 575 848 712 848 c 2,41,-1
 933 848 l 1,42,-1
 933 1470 l 1,43,-1
 1123 1470 l 1,44,-1
 1123 848 l 1,45,-1
 1347 848 l 2,46,47
 1484 848 1484 848 1541.5 892 c 128,-1,48
 1599 936 1599 936 1607 1030 c 2,49,-1
 1629 1280 l 2,50,51
 1640 1391 1640 1391 1693 1442 c 128,-1,52
 1746 1493 1746 1493 1871 1493 c 0,53,54
 1937 1491 1937 1491 1998 1483 c 1,55,-1
 1998 1311 l 1,56,57
 1947 1319 1947 1319 1912 1319 c 0,58,59
 1861 1319 1861 1319 1837.5 1293.5 c 128,-1,60
 1814 1268 1814 1268 1803 1198 c 2,61,-1
 1785 1026 l 2,62,63
 1762 827 1762 827 1586 772 c 1,64,-1
 1586 768 l 1,65,66
 1654 752 1654 752 1696 718 c 128,-1,67
 1738 684 1738 684 1762.5 642 c 128,-1,68
 1787 600 1787 600 1797 552 c 128,-1,69
 1807 504 1807 504 1814 455 c 2,70,-1
 1832 266 l 2,71,72
 1840 190 1840 190 1862.5 171 c 128,-1,73
 1885 152 1885 152 1932 152 c 0,74,75
 1969 152 1969 152 2008 160 c 1,76,-1
 2008 -6 l 1,77,78
 1965 -16 1965 -16 1883 -16 c 0,79,80
 1754 -16 1754 -16 1701 38 c 128,-1,81
 1648 92 1648 92 1640 201 c 2,82,-1
 1615 492 l 2,83,84
 1607 590 1607 590 1545.5 638 c 128,-1,85
 1484 686 1484 686 1359 686 c 2,86,-1
 1123 686 l 1,87,-1
 1123 0 l 1,88,-1
 933 0 l 1,89,-1
 933 686 l 1,0,-1
EndSplineSet
Validated: 1
EndChar

StartChar: uni0417
Encoding: 1047 1047 540
Width: 1305
GlyphClass: 2
Flags: W
LayerCount: 2
Fore
SplineSet
451 852 m 1,0,-1
 684 852 l 2,1,2
 844 852 844 852 904.5 907.5 c 128,-1,3
 965 963 965 963 965 1077 c 0,4,5
 965 1202 965 1202 882 1267.5 c 128,-1,6
 799 1333 799 1333 639 1333 c 0,7,8
 475 1333 475 1333 387 1263.5 c 128,-1,9
 299 1194 299 1194 291 1075 c 1,10,-1
 100 1075 l 1,11,12
 115 1278 115 1278 253 1393.5 c 128,-1,13
 391 1509 391 1509 645 1509 c 0,14,15
 885 1509 885 1509 1024 1396.5 c 128,-1,16
 1163 1284 1163 1284 1163 1106 c 0,17,18
 1163 881 1163 881 973 793 c 1,19,-1
 973 791 l 1,20,21
 1225 713 1225 713 1225 430 c 0,22,23
 1225 217 1225 217 1065 93 c 128,-1,24
 905 -31 905 -31 631 -31 c 0,25,26
 362 -31 362 -31 223 87 c 128,-1,27
 84 205 84 205 76 424 c 1,28,-1
 268 424 l 1,29,30
 287 281 287 281 382 213 c 128,-1,31
 477 145 477 145 645 145 c 0,32,33
 819 145 819 145 921.5 221 c 128,-1,34
 1024 297 1024 297 1024 436 c 0,35,36
 1024 557 1024 557 957.5 620.5 c 128,-1,37
 891 684 891 684 707 684 c 2,38,-1
 451 684 l 1,39,-1
 451 852 l 1,0,-1
EndSplineSet
Validated: 1
EndChar

StartChar: uni0418
Encoding: 1048 1048 541
Width: 1518
GlyphClass: 2
Flags: W
HStem: 0 21G<166 362 1155 1354> 1450 20G<166 362 1155 1354>
VStem: 166 196<0 150 397 1470> 1155 199<0 1079 1327 1470>
LayerCount: 2
Fore
SplineSet
1155 1470 m 1,0,-1
 1354 1470 l 1,1,-1
 1354 0 l 1,2,-1
 1155 0 l 1,3,-1
 1155 1079 l 1,4,-1
 1147 1079 l 1,5,-1
 362 150 l 1,6,-1
 362 0 l 1,7,-1
 166 0 l 1,8,-1
 166 1470 l 1,9,-1
 362 1470 l 1,10,-1
 362 397 l 1,11,-1
 371 397 l 1,12,-1
 1155 1327 l 1,13,-1
 1155 1470 l 1,0,-1
EndSplineSet
Validated: 1
EndChar

StartChar: uni0419
Encoding: 1049 1049 542
Width: 1518
GlyphClass: 2
Flags: W
LayerCount: 2
Fore
SplineSet
1155 1470 m 1,0,-1
 1354 1470 l 1,1,-1
 1354 0 l 1,2,-1
 1155 0 l 1,3,-1
 1155 1079 l 1,4,-1
 1147 1079 l 1,5,-1
 362 150 l 1,6,-1
 362 0 l 1,7,-1
 166 0 l 1,8,-1
 166 1470 l 1,9,-1
 362 1470 l 1,10,-1
 362 397 l 1,11,-1
 371 397 l 1,12,-1
 1155 1327 l 1,13,-1
 1155 1470 l 1,0,-1
381 1892 m 1,14,-1
 541 1892 l 1,15,16
 586 1724 586 1724 760 1724 c 0,17,18
 936 1724 936 1724 981 1892 c 1,19,-1
 1141 1892 l 1,20,21
 1116 1747 1116 1747 1015.5 1664 c 128,-1,22
 915 1581 915 1581 760 1581 c 0,23,24
 604 1581 604 1581 503.5 1664 c 128,-1,25
 403 1747 403 1747 381 1892 c 1,14,-1
EndSplineSet
Validated: 1
EndChar

StartChar: uni041A
Encoding: 1050 1050 543
Width: 1432
GlyphClass: 2
Flags: W
LayerCount: 2
Fore
SplineSet
362 1470 m 1,0,-1
 362 850 l 1,1,-1
 721 850 l 2,2,3
 856 850 856 850 914.5 893 c 128,-1,4
 973 936 973 936 981 1030 c 2,5,-1
 1004 1280 l 2,6,7
 1014 1391 1014 1391 1067 1442 c 128,-1,8
 1120 1493 1120 1493 1243 1493 c 0,9,10
 1311 1491 1311 1491 1370 1483 c 1,11,-1
 1370 1311 l 1,12,13
 1321 1319 1321 1319 1286 1319 c 0,14,15
 1235 1319 1235 1319 1211.5 1293.5 c 128,-1,16
 1188 1268 1188 1268 1178 1198 c 2,17,-1
 1157 1026 l 1,18,19
 1137 827 1137 827 961 772 c 1,20,-1
 961 768 l 1,21,22
 1028 752 1028 752 1070 718 c 128,-1,23
 1112 684 1112 684 1135.5 642 c 128,-1,24
 1159 600 1159 600 1170.5 552 c 128,-1,25
 1182 504 1182 504 1188 455 c 2,26,-1
 1206 266 l 2,27,28
 1214 190 1214 190 1237 171 c 128,-1,29
 1260 152 1260 152 1307 152 c 0,30,31
 1343 152 1343 152 1382 160 c 1,32,-1
 1382 -6 l 1,33,34
 1339 -16 1339 -16 1257 -16 c 0,35,36
 1128 -16 1128 -16 1075 38 c 128,-1,37
 1022 92 1022 92 1014 201 c 2,38,-1
 989 492 l 2,39,40
 981 590 981 590 919.5 636 c 128,-1,41
 858 682 858 682 731 682 c 2,42,-1
 362 682 l 1,43,-1
 362 0 l 1,44,-1
 166 0 l 1,45,-1
 166 1470 l 1,46,-1
 362 1470 l 1,0,-1
EndSplineSet
Validated: 1
EndChar

StartChar: uni041B
Encoding: 1051 1051 544
Width: 1434
GlyphClass: 2
Flags: W
LayerCount: 2
Fore
SplineSet
1069 0 m 1,0,-1
 1069 1298 l 1,1,-1
 649 1298 l 1,2,3
 623 678 623 678 490.5 322.5 c 128,-1,4
 358 -33 358 -33 31 -12 c 1,5,-1
 31 178 l 1,6,7
 236 166 236 166 337 442.5 c 128,-1,8
 438 719 438 719 469 1470 c 1,9,-1
 1268 1470 l 1,10,-1
 1268 0 l 1,11,-1
 1069 0 l 1,0,-1
EndSplineSet
Validated: 33
EndChar

StartChar: uni0423
Encoding: 1059 1059 552
Width: 1265
GlyphClass: 2
Flags: W
LayerCount: 2
Fore
SplineSet
244 1470 m 1,0,-1
 674 582 l 1,1,-1
 1042 1470 l 1,2,-1
 1255 1470 l 1,3,-1
 769 361 l 1,4,-1
 715 238 l 2,5,6
 655 100 655 100 568 46 c 128,-1,7
 481 -8 481 -8 319 -8 c 0,8,9
 256 -8 256 -8 184 0 c 1,10,-1
 184 170 l 1,11,12
 250 160 250 160 307 160 c 0,13,14
 408 160 408 160 469 199 c 128,-1,15
 530 238 530 238 571 336 c 1,16,-1
 584 360 l 1,17,-1
 25 1470 l 1,18,-1
 244 1470 l 1,0,-1
EndSplineSet
Validated: 1
EndChar

StartChar: uni0424
Encoding: 1060 1060 553
Width: 1727
GlyphClass: 2
Flags: W
LayerCount: 2
Fore
SplineSet
954 1288 m 1,0,-1
 1157 1288 l 2,1,2
 1413 1288 1413 1288 1535 1157 c 128,-1,3
 1657 1026 1657 1026 1657 752 c 0,4,5
 1657 477 1657 477 1534 347 c 128,-1,6
 1411 217 1411 217 1157 217 c 2,7,-1
 954 217 l 1,8,-1
 954 -20 l 1,9,-1
 770 -20 l 1,10,-1
 770 217 l 1,11,-1
 567 217 l 2,12,13
 313 217 313 217 191.5 347 c 128,-1,14
 70 477 70 477 70 752 c 0,15,16
 70 1026 70 1026 191.5 1157 c 128,-1,17
 313 1288 313 1288 567 1288 c 2,18,-1
 770 1288 l 1,19,-1
 770 1509 l 1,20,-1
 954 1509 l 1,21,-1
 954 1288 l 1,0,-1
772 1128 m 1,22,-1
 602 1128 l 2,23,24
 416 1128 416 1128 338 1040 c 128,-1,25
 260 952 260 952 260 752 c 0,26,27
 260 561 260 561 339 469 c 128,-1,28
 418 377 418 377 602 377 c 2,29,-1
 772 377 l 1,30,-1
 772 1128 l 1,22,-1
952 377 m 1,31,-1
 954 377 l 1,32,-1
 1124 377 l 2,33,34
 1309 377 1309 377 1387.5 469 c 128,-1,35
 1466 561 1466 561 1466 752 c 0,36,37
 1466 952 1466 952 1388.5 1040 c 128,-1,38
 1311 1128 1311 1128 1124 1128 c 2,39,-1
 952 1128 l 1,40,-1
 952 377 l 1,31,-1
EndSplineSet
Validated: 1
EndChar

StartChar: uni0426
Encoding: 1062 1062 555
Width: 1477
GlyphClass: 2
Flags: W
LayerCount: 2
Fore
SplineSet
1268 176 m 1,0,-1
 1438 176 l 1,1,-1
 1438 -401 l 1,2,-1
 1247 -401 l 1,3,-1
 1247 0 l 1,4,-1
 166 0 l 1,5,-1
 166 1470 l 1,6,-1
 365 1470 l 1,7,-1
 365 176 l 1,8,-1
 1067 176 l 1,9,-1
 1067 1470 l 1,10,-1
 1268 1470 l 1,11,-1
 1268 176 l 1,0,-1
EndSplineSet
Validated: 1
EndChar

StartChar: uni0427
Encoding: 1063 1063 556
Width: 1319
GlyphClass: 2
Flags: W
LayerCount: 2
Fore
SplineSet
954 623 m 1,0,1
 786 588 786 588 604 588 c 0,2,3
 340 588 340 588 217 692.5 c 128,-1,4
 94 797 94 797 94 1038 c 2,5,-1
 94 1468 l 1,6,-1
 295 1468 l 1,7,-1
 295 1063 l 2,8,9
 295 913 295 913 360.5 838.5 c 128,-1,10
 426 764 426 764 618 764 c 0,11,12
 811 764 811 764 954 791 c 1,13,-1
 954 1468 l 1,14,-1
 1153 1468 l 1,15,-1
 1153 0 l 1,16,-1
 954 0 l 1,17,-1
 954 623 l 1,0,1
EndSplineSet
Validated: 1
EndChar

StartChar: uni0428
Encoding: 1064 1064 557
Width: 2023
GlyphClass: 2
Flags: W
HStem: 0 176<360 913 1110 1663> 1450 20G<166 360 913 1110 1663 1858>
VStem: 166 194<176 1470> 913 197<176 1470> 1663 195<176 1470>
LayerCount: 2
Fore
SplineSet
1663 176 m 1,0,-1
 1663 1470 l 1,1,-1
 1858 1470 l 1,2,-1
 1858 0 l 1,3,-1
 166 0 l 1,4,-1
 166 1470 l 1,5,-1
 360 1470 l 1,6,-1
 360 176 l 1,7,-1
 913 176 l 1,8,-1
 913 1470 l 1,9,-1
 1110 1470 l 1,10,-1
 1110 176 l 1,11,-1
 1663 176 l 1,0,-1
EndSplineSet
Validated: 1
EndChar

StartChar: uni0429
Encoding: 1065 1065 558
Width: 2042
GlyphClass: 2
Flags: W
LayerCount: 2
Fore
SplineSet
1636 176 m 1,0,-1
 1636 1470 l 1,1,-1
 1833 1470 l 1,2,-1
 1833 176 l 1,3,-1
 2003 176 l 1,4,-1
 2003 -399 l 1,5,-1
 1812 -399 l 1,6,-1
 1812 0 l 1,7,-1
 166 0 l 1,8,-1
 166 1470 l 1,9,-1
 360 1470 l 1,10,-1
 360 176 l 1,11,-1
 901 176 l 1,12,-1
 901 1470 l 1,13,-1
 1096 1470 l 1,14,-1
 1096 176 l 1,15,-1
 1636 176 l 1,0,-1
EndSplineSet
Validated: 1
EndChar

StartChar: uni042A
Encoding: 1066 1066 559
Width: 1684
GlyphClass: 2
Flags: W
LayerCount: 2
Fore
SplineSet
711 174 m 1,0,-1
 1124 174 l 2,1,2
 1280 174 1280 174 1358 248 c 128,-1,3
 1436 322 1436 322 1436 449 c 0,4,5
 1436 575 1436 575 1349 637.5 c 128,-1,6
 1262 700 1262 700 1092 700 c 2,7,-1
 711 700 l 1,8,-1
 711 174 l 1,0,-1
512 1294 m 1,9,-1
 31 1294 l 1,10,-1
 31 1470 l 1,11,-1
 711 1470 l 1,12,-1
 711 874 l 1,13,-1
 1137 874 l 2,14,15
 1380 874 1380 874 1507 763.5 c 128,-1,16
 1634 653 1634 653 1634 449 c 0,17,18
 1634 250 1634 250 1497 125 c 128,-1,19
 1360 0 1360 0 1135 0 c 2,20,-1
 512 0 l 1,21,-1
 512 1294 l 1,9,-1
EndSplineSet
Validated: 1
EndChar

StartChar: uni042B
Encoding: 1067 1067 560
Width: 1800
GlyphClass: 2
Flags: W
LayerCount: 2
Fore
SplineSet
1636 0 m 1,0,-1
 1438 0 l 1,1,-1
 1438 1470 l 1,2,-1
 1636 1470 l 1,3,-1
 1636 0 l 1,0,-1
362 174 m 1,4,-1
 737 174 l 2,5,6
 893 174 893 174 971 248 c 128,-1,7
 1049 322 1049 322 1049 449 c 0,8,9
 1049 573 1049 573 961.5 636.5 c 128,-1,10
 874 700 874 700 705 700 c 2,11,-1
 362 700 l 1,12,-1
 362 174 l 1,4,-1
166 1470 m 1,13,-1
 362 1470 l 1,14,-1
 362 874 l 1,15,-1
 748 874 l 2,16,17
 991 874 991 874 1119 763.5 c 128,-1,18
 1247 653 1247 653 1247 449 c 0,19,20
 1247 248 1247 248 1110 124 c 128,-1,21
 973 0 973 0 748 0 c 2,22,-1
 166 0 l 1,23,-1
 166 1470 l 1,13,-1
EndSplineSet
Validated: 1
EndChar

StartChar: uni042C
Encoding: 1068 1068 561
Width: 1336
GlyphClass: 2
Flags: W
LayerCount: 2
Fore
SplineSet
362 174 m 1,0,-1
 776 174 l 2,1,2
 932 174 932 174 1009.5 248 c 128,-1,3
 1087 322 1087 322 1087 449 c 0,4,5
 1087 571 1087 571 1003.5 635.5 c 128,-1,6
 920 700 920 700 743 700 c 2,7,-1
 362 700 l 1,8,-1
 362 174 l 1,0,-1
362 874 m 1,9,-1
 788 874 l 2,10,11
 1032 874 1032 874 1159 763.5 c 128,-1,12
 1286 653 1286 653 1286 449 c 0,13,14
 1286 256 1286 256 1152 128 c 128,-1,15
 1018 0 1018 0 786 0 c 2,16,-1
 166 0 l 1,17,-1
 166 1470 l 1,18,-1
 362 1470 l 1,19,-1
 362 874 l 1,9,-1
EndSplineSet
Validated: 1
EndChar

StartChar: uni042D
Encoding: 1069 1069 562
Width: 1481
GlyphClass: 2
Flags: W
LayerCount: 2
Fore
SplineSet
475 852 m 1,0,-1
 1186 852 l 1,1,2
 1163 1094 1163 1094 1042.5 1215.5 c 128,-1,3
 922 1337 922 1337 705 1337 c 0,4,5
 535 1337 535 1337 427 1258.5 c 128,-1,6
 319 1180 319 1180 287 1032 c 1,7,-1
 100 1032 l 1,8,9
 141 1270 141 1270 300 1389.5 c 128,-1,10
 459 1509 459 1509 721 1509 c 0,11,12
 1057 1509 1057 1509 1224 1306.5 c 128,-1,13
 1391 1104 1391 1104 1391 727 c 0,14,15
 1391 365 1391 365 1207.5 167 c 128,-1,16
 1024 -31 1024 -31 696 -31 c 0,17,18
 430 -31 430 -31 268 125 c 128,-1,19
 106 281 106 281 86 526 c 1,20,-1
 281 526 l 1,21,22
 334 141 334 141 711 141 c 0,23,24
 936 141 936 141 1060 278.5 c 128,-1,25
 1184 416 1184 416 1192 682 c 1,26,-1
 475 682 l 1,27,-1
 475 852 l 1,0,-1
EndSplineSet
Validated: 1
EndChar

StartChar: uni042E
Encoding: 1070 1070 563
Width: 2056
GlyphClass: 2
Flags: W
LayerCount: 2
Fore
SplineSet
1296 1335 m 0,0,1
 1081 1335 1081 1335 950 1171.5 c 128,-1,2
 819 1008 819 1008 819 735 c 0,3,4
 819 463 819 463 950 299 c 128,-1,5
 1081 135 1081 135 1296 135 c 0,6,7
 1503 135 1503 135 1637.5 297 c 128,-1,8
 1772 459 1772 459 1772 735 c 0,9,10
 1772 991 1772 991 1646 1163 c 128,-1,11
 1520 1335 1520 1335 1296 1335 c 0,0,1
360 838 m 1,12,-1
 631 838 l 1,13,14
 662 1137 662 1137 835 1323 c 128,-1,15
 1008 1509 1008 1509 1298 1509 c 0,16,17
 1626 1509 1626 1509 1799 1283 c 128,-1,18
 1972 1057 1972 1057 1972 735 c 0,19,20
 1972 401 1972 401 1791 181 c 128,-1,21
 1610 -39 1610 -39 1298 -39 c 0,22,23
 1006 -39 1006 -39 830.5 149.5 c 128,-1,24
 655 338 655 338 629 666 c 1,25,-1
 360 666 l 1,26,-1
 360 0 l 1,27,-1
 166 0 l 1,28,-1
 166 1470 l 1,29,-1
 360 1470 l 1,30,-1
 360 838 l 1,12,-1
EndSplineSet
Validated: 1
EndChar

StartChar: uni042F
Encoding: 1071 1071 564
Width: 1446
GlyphClass: 2
Flags: W
LayerCount: 2
Fore
SplineSet
618 1294 m 2,0,1
 473 1294 473 1294 407.5 1227.5 c 128,-1,2
 342 1161 342 1161 342 1042 c 0,3,4
 342 913 342 913 417 852 c 128,-1,5
 492 791 492 791 649 791 c 2,6,-1
 1083 791 l 1,7,-1
 1083 1294 l 1,8,-1
 618 1294 l 2,0,1
1280 0 m 1,9,-1
 1083 0 l 1,10,-1
 1083 623 l 1,11,-1
 657 623 l 2,12,13
 535 623 535 623 477.5 581 c 128,-1,14
 420 539 420 539 412 457 c 2,15,-1
 387 215 l 2,16,17
 375 80 375 80 320.5 33 c 128,-1,18
 266 -14 266 -14 143 -14 c 0,19,20
 76 -14 76 -14 31 -6 c 1,21,-1
 31 160 l 1,22,23
 72 152 72 152 102 152 c 0,24,25
 150 152 150 152 168 175.5 c 128,-1,26
 186 199 186 199 193 254 c 2,27,-1
 215 451 l 2,28,29
 240 647 240 647 383 692 c 1,30,31
 272 739 272 739 207.5 824 c 128,-1,32
 143 909 143 909 143 1055 c 0,33,34
 143 1255 143 1255 269 1362.5 c 128,-1,35
 395 1470 395 1470 629 1470 c 2,36,-1
 1280 1470 l 1,37,-1
 1280 0 l 1,9,-1
EndSplineSet
Validated: 1
EndChar

StartChar: uni0490
Encoding: 1168 1168 568
Width: 1112
GlyphClass: 2
Flags: W
LayerCount: 2
Fore
SplineSet
166 1470 m 1,0,-1
 901 1470 l 1,1,-1
 901 1751 l 1,2,-1
 1077 1751 l 1,3,-1
 1077 1294 l 1,4,-1
 362 1294 l 1,5,-1
 362 0 l 1,6,-1
 166 0 l 1,7,-1
 166 1470 l 1,0,-1
EndSplineSet
Validated: 1
EndChar

StartChar: uni0402
Encoding: 1026 1026 569
Width: 1594
GlyphClass: 2
Flags: W
LayerCount: 2
Fore
SplineSet
502 1294 m 1,0,-1
 25 1294 l 1,1,-1
 25 1470 l 1,2,-1
 1229 1470 l 1,3,-1
 1229 1294 l 1,4,-1
 701 1294 l 1,5,-1
 701 854 l 1,6,-1
 1045 854 l 2,7,8
 1290 854 1290 854 1417 746.5 c 128,-1,9
 1544 639 1544 639 1544 438 c 0,10,11
 1544 250 1544 250 1409 125 c 128,-1,12
 1274 0 1274 0 1045 0 c 2,13,-1
 940 0 l 1,14,-1
 940 174 l 1,15,-1
 1034 174 l 2,16,17
 1188 174 1188 174 1267 243.5 c 128,-1,18
 1346 313 1346 313 1346 438 c 0,19,20
 1346 555 1346 555 1261 618.5 c 128,-1,21
 1176 682 1176 682 1002 682 c 2,22,-1
 701 682 l 1,23,-1
 701 0 l 1,24,-1
 502 0 l 1,25,-1
 502 1294 l 1,0,-1
EndSplineSet
Validated: 1
EndChar

StartChar: uni0404
Encoding: 1028 1028 571
Width: 1475
GlyphClass: 2
Flags: W
LayerCount: 2
Fore
SplineSet
1192 1036 m 1,0,1
 1159 1188 1159 1188 1058.5 1263.5 c 128,-1,2
 958 1339 958 1339 776 1339 c 0,3,4
 573 1339 573 1339 445 1215.5 c 128,-1,5
 317 1092 317 1092 293 854 c 1,6,-1
 1006 854 l 1,7,-1
 1006 684 l 1,8,-1
 289 684 l 1,9,10
 299 412 299 412 420 276.5 c 128,-1,11
 541 141 541 141 782 141 c 0,12,13
 950 141 950 141 1056.5 230 c 128,-1,14
 1163 319 1163 319 1204 522 c 1,15,-1
 1395 522 l 1,16,17
 1350 240 1350 240 1185 104.5 c 128,-1,18
 1020 -31 1020 -31 752 -31 c 0,19,20
 438 -31 438 -31 264 169 c 128,-1,21
 90 369 90 369 90 748 c 0,22,23
 90 1104 90 1104 271.5 1306.5 c 128,-1,24
 453 1509 453 1509 776 1509 c 0,25,26
 1028 1509 1028 1509 1189 1385.5 c 128,-1,27
 1350 1262 1350 1262 1380 1036 c 1,28,-1
 1192 1036 l 1,0,1
EndSplineSet
Validated: 1
EndChar

StartChar: uni0409
Encoding: 1033 1033 576
Width: 2157
GlyphClass: 2
Flags: W
LayerCount: 2
Fore
SplineSet
1034 1298 m 1,0,-1
 649 1298 l 1,1,2
 623 678 623 678 490.5 322.5 c 128,-1,3
 358 -33 358 -33 31 -12 c 1,4,-1
 31 178 l 1,5,6
 236 166 236 166 337 442.5 c 128,-1,7
 438 719 438 719 469 1470 c 1,8,-1
 1233 1470 l 1,9,-1
 1233 860 l 1,10,-1
 1608 860 l 2,11,12
 1853 860 1853 860 1980 751.5 c 128,-1,13
 2107 643 2107 643 2107 440 c 0,14,15
 2107 250 2107 250 1972 125 c 128,-1,16
 1837 0 1837 0 1608 0 c 2,17,-1
 1034 0 l 1,18,-1
 1034 1298 l 1,0,-1
1233 174 m 1,19,-1
 1597 174 l 2,20,21
 1743 174 1743 174 1826 241.5 c 128,-1,22
 1909 309 1909 309 1909 440 c 0,23,24
 1909 559 1909 559 1823 622.5 c 128,-1,25
 1737 686 1737 686 1565 686 c 2,26,-1
 1233 686 l 1,27,-1
 1233 174 l 1,19,-1
EndSplineSet
Validated: 33
EndChar

StartChar: uni040A
Encoding: 1034 1034 577
Width: 2104
GlyphClass: 2
Flags: W
LayerCount: 2
Fore
SplineSet
1231 174 m 1,0,-1
 1544 174 l 2,1,2
 1694 174 1694 174 1774.5 242.5 c 128,-1,3
 1855 311 1855 311 1855 440 c 0,4,5
 1855 563 1855 563 1769 624.5 c 128,-1,6
 1683 686 1683 686 1511 686 c 2,7,-1
 1231 686 l 1,8,-1
 1231 174 l 1,0,-1
1030 686 m 1,9,-1
 362 686 l 1,10,-1
 362 0 l 1,11,-1
 166 0 l 1,12,-1
 166 1470 l 1,13,-1
 362 1470 l 1,14,-1
 362 862 l 1,15,-1
 1030 862 l 1,16,-1
 1030 1470 l 1,17,-1
 1231 1470 l 1,18,-1
 1231 860 l 1,19,-1
 1554 860 l 2,20,21
 1800 860 1800 860 1927 751.5 c 128,-1,22
 2054 643 2054 643 2054 440 c 0,23,24
 2054 254 2054 254 1920 127 c 128,-1,25
 1786 0 1786 0 1554 0 c 2,26,-1
 1030 0 l 1,27,-1
 1030 686 l 1,9,-1
EndSplineSet
Validated: 1
EndChar

StartChar: uni040B
Encoding: 1035 1035 578
Width: 1596
GlyphClass: 2
Flags: W
LayerCount: 2
Fore
SplineSet
701 831 m 1,0,1
 871 860 871 860 1030 860 c 0,2,3
 1294 860 1294 860 1396.5 747.5 c 128,-1,4
 1499 635 1499 635 1499 424 c 2,5,-1
 1499 0 l 1,6,-1
 1301 0 l 1,7,-1
 1301 383 l 2,8,9
 1301 545 1301 545 1236.5 614.5 c 128,-1,10
 1172 684 1172 684 995 684 c 0,11,12
 885 684 885 684 701 659 c 1,13,-1
 701 0 l 1,14,-1
 502 0 l 1,15,-1
 502 1294 l 1,16,-1
 25 1294 l 1,17,-1
 25 1470 l 1,18,-1
 1229 1470 l 1,19,-1
 1229 1294 l 1,20,-1
 701 1294 l 1,21,-1
 701 831 l 1,0,1
EndSplineSet
Validated: 1
EndChar

StartChar: uni040E
Encoding: 1038 1038 580
Width: 1276
GlyphClass: 2
Flags: W
LayerCount: 2
Fore
SplineSet
266 1892 m 1,0,-1
 426 1892 l 1,1,2
 471 1724 471 1724 645 1724 c 0,3,4
 821 1724 821 1724 866 1892 c 1,5,-1
 1026 1892 l 1,6,7
 1004 1747 1004 1747 903.5 1664 c 128,-1,8
 803 1581 803 1581 645 1581 c 0,9,10
 489 1581 489 1581 389 1664 c 128,-1,11
 289 1747 289 1747 266 1892 c 1,0,-1
244 1470 m 1,12,-1
 674 582 l 1,13,-1
 1042 1470 l 1,14,-1
 1255 1470 l 1,15,-1
 769 361 l 1,16,-1
 715 238 l 2,17,18
 655 100 655 100 568 46 c 128,-1,19
 481 -8 481 -8 319 -8 c 0,20,21
 256 -8 256 -8 184 0 c 1,22,-1
 184 170 l 1,23,24
 250 160 250 160 307 160 c 0,25,26
 408 160 408 160 469 199 c 128,-1,27
 530 238 530 238 571 336 c 1,28,-1
 584 360 l 1,29,-1
 25 1470 l 1,30,-1
 244 1470 l 1,12,-1
EndSplineSet
Validated: 1
EndChar

StartChar: uni040F
Encoding: 1039 1039 581
Width: 1442
GlyphClass: 2
Flags: W
LayerCount: 2
Fore
SplineSet
166 0 m 1,0,-1
 166 1470 l 1,1,-1
 365 1470 l 1,2,-1
 365 176 l 1,3,-1
 1077 176 l 1,4,-1
 1077 1470 l 1,5,-1
 1278 1470 l 1,6,-1
 1278 0 l 1,7,-1
 815 0 l 1,8,-1
 815 -399 l 1,9,-1
 627 -399 l 1,10,-1
 627 0 l 1,11,-1
 166 0 l 1,0,-1
EndSplineSet
Validated: 1
EndChar

StartChar: uni0462
Encoding: 1122 1122 582
Width: 1554
GlyphClass: 2
Flags: W
LayerCount: 2
Fore
SplineSet
600 172 m 1,0,-1
 985 172 l 2,1,2
 1141 172 1141 172 1218.5 240.5 c 128,-1,3
 1296 309 1296 309 1296 428 c 0,4,5
 1296 541 1296 541 1212 602.5 c 128,-1,6
 1128 664 1128 664 952 664 c 2,7,-1
 600 664 l 1,8,-1
 600 172 l 1,0,-1
1032 1071 m 1,9,-1
 600 1071 l 1,10,-1
 600 836 l 1,11,-1
 995 836 l 2,12,13
 1241 836 1241 836 1368 730.5 c 128,-1,14
 1495 625 1495 625 1495 426 c 0,15,16
 1495 238 1495 238 1360 119 c 128,-1,17
 1225 0 1225 0 995 0 c 2,18,-1
 401 0 l 1,19,-1
 401 1071 l 1,20,-1
 31 1071 l 1,21,-1
 31 1237 l 1,22,-1
 401 1237 l 1,23,-1
 401 1470 l 1,24,-1
 600 1470 l 1,25,-1
 600 1237 l 1,26,-1
 1032 1237 l 1,27,-1
 1032 1071 l 1,9,-1
EndSplineSet
Validated: 1
EndChar

StartChar: uni0472
Encoding: 1138 1138 583
Width: 1593
GlyphClass: 2
Flags: W
LayerCount: 2
Fore
SplineSet
1307 836 m 1,0,1
 1276 1065 1276 1065 1140 1200 c 128,-1,2
 1004 1335 1004 1335 797 1335 c 256,3,4
 590 1335 590 1335 450.5 1200 c 128,-1,5
 311 1065 311 1065 289 836 c 1,6,-1
 1307 836 l 1,7,-1
 1307 836 l 1,0,1
285 659 m 1,8,9
 311 401 311 401 451.5 268 c 128,-1,10
 592 135 592 135 797 135 c 0,11,12
 1004 135 1004 135 1142 269 c 128,-1,13
 1280 403 1280 403 1309 659 c 1,14,-1
 285 659 l 1,8,9
1513 735 m 0,15,16
 1513 408 1513 408 1326 184.5 c 128,-1,17
 1139 -39 1139 -39 797 -39 c 256,18,19
 455 -39 455 -39 267.5 185.5 c 128,-1,20
 80 410 80 410 80 735 c 0,21,22
 80 1061 80 1061 267.5 1285 c 128,-1,23
 455 1509 455 1509 797 1509 c 0,24,25
 1141 1509 1141 1509 1327 1286 c 128,-1,26
 1513 1063 1513 1063 1513 735 c 0,15,16
EndSplineSet
Validated: 5
EndChar

StartChar: uni0474
Encoding: 1140 1140 584
Width: 1407
GlyphClass: 2
Flags: W
LayerCount: 2
Fore
SplineSet
569 0 m 1,0,-1
 31 1470 l 1,1,-1
 252 1470 l 1,2,-1
 674 217 l 1,3,-1
 678 217 l 1,4,-1
 1014 1270 l 2,5,6
 1049 1382 1049 1382 1110 1434.5 c 128,-1,7
 1171 1487 1171 1487 1264 1487 c 0,8,9
 1313 1487 1313 1487 1376 1475 c 1,10,-1
 1376 1311 l 1,11,12
 1348 1317 1348 1317 1319 1317 c 0,13,14
 1272 1317 1272 1317 1239 1280 c 128,-1,15
 1206 1243 1206 1243 1180 1163 c 2,16,-1
 780 0 l 1,17,-1
 569 0 l 1,0,-1
EndSplineSet
Validated: 1
EndChar

StartChar: uni0431
Encoding: 1073 1073 586
Width: 1149
GlyphClass: 2
Flags: W
LayerCount: 2
Fore
SplineSet
895 504 m 256,0,1
 895 662 895 662 814 766 c 128,-1,2
 733 870 733 870 584 870 c 0,3,4
 432 870 432 870 352 764.5 c 128,-1,5
 272 659 272 659 272 504 c 0,6,7
 272 340 272 340 353 233.5 c 128,-1,8
 434 127 434 127 584 127 c 0,9,10
 735 127 735 127 815 236.5 c 128,-1,11
 895 346 895 346 895 504 c 256,0,1
1012 1497 m 1,12,13
 1014 1483 1014 1483 1014 1464 c 0,14,15
 1014 1362 1014 1362 954.5 1324 c 128,-1,16
 895 1286 895 1286 750 1257 c 2,17,-1
 526 1212 l 2,18,19
 377 1182 377 1182 308.5 1085.5 c 128,-1,20
 240 989 240 989 221 801 c 1,21,-1
 225 799 l 1,22,23
 287 913 287 913 387 969.5 c 128,-1,24
 487 1026 487 1026 610 1026 c 0,25,26
 819 1026 819 1026 949 875.5 c 128,-1,27
 1079 725 1079 725 1079 506 c 0,28,29
 1079 285 1079 285 945 128 c 128,-1,30
 811 -29 811 -29 584 -29 c 0,31,32
 338 -29 338 -29 209 144 c 128,-1,33
 80 317 80 317 80 645 c 0,34,35
 80 989 80 989 185.5 1162 c 128,-1,36
 291 1335 291 1335 500 1378 c 2,37,-1
 680 1415 l 2,38,39
 805 1440 805 1440 830.5 1451 c 128,-1,40
 856 1462 856 1462 858 1497 c 1,41,-1
 1012 1497 l 1,42,-1
 1012 1497 l 1,12,13
EndSplineSet
Validated: 5
EndChar

StartChar: uni0432
Encoding: 1074 1074 587
Width: 1096
GlyphClass: 2
Flags: W
LayerCount: 2
Fore
SplineSet
313 616 m 1,0,-1
 565 616 l 2,1,2
 690 616 690 616 745.5 656 c 128,-1,3
 801 696 801 696 801 778 c 0,4,5
 801 926 801 926 578 926 c 2,6,-1
 313 926 l 1,7,-1
 313 616 l 1,0,-1
313 143 m 1,8,-1
 602 143 l 2,9,10
 717 143 717 143 773 191.5 c 128,-1,11
 829 240 829 240 829 319 c 0,12,13
 829 401 829 401 768 442 c 128,-1,14
 707 483 707 483 580 483 c 2,15,-1
 313 483 l 1,16,-1
 313 143 l 1,8,-1
135 1071 m 1,17,-1
 645 1071 l 2,18,19
 805 1071 805 1071 895 995.5 c 128,-1,20
 985 920 985 920 985 803 c 0,21,22
 985 645 985 645 819 563 c 1,23,24
 1016 512 1016 512 1016 317 c 0,25,26
 1016 176 1016 176 907.5 88 c 128,-1,27
 799 0 799 0 621 0 c 2,28,-1
 135 0 l 1,29,-1
 135 1071 l 1,17,-1
EndSplineSet
Validated: 1
EndChar

StartChar: uni0433
Encoding: 1075 1075 588
Width: 825
GlyphClass: 2
Flags: W
HStem: 0 21G<135 315> 909 162<315 807>
VStem: 135 180<0 909>
LayerCount: 2
Fore
SplineSet
135 1071 m 1,0,-1
 807 1071 l 1,1,-1
 807 909 l 1,2,-1
 315 909 l 1,3,-1
 315 0 l 1,4,-1
 135 0 l 1,5,-1
 135 1071 l 1,0,-1
EndSplineSet
Validated: 1
EndChar

StartChar: uni0434
Encoding: 1076 1076 589
Width: 1184
GlyphClass: 2
Flags: W
LayerCount: 2
Fore
SplineSet
485 918 m 1,0,1
 483 483 483 483 293 158 c 1,2,-1
 813 158 l 1,3,-1
 813 918 l 1,4,-1
 485 918 l 1,0,1
30 158 m 1,5,-1
 98 158 l 1,6,7
 204 291 204 291 263.5 484.5 c 128,-1,8
 323 678 323 678 321 1071 c 1,9,-1
 993 1071 l 1,10,-1
 993 158 l 1,11,-1
 1144 158 l 1,12,-1
 1144 -360 l 1,13,-1
 972 -360 l 1,14,-1
 972 0 l 1,15,-1
 202 0 l 1,16,-1
 202 -360 l 1,17,-1
 30 -360 l 1,18,-1
 30 158 l 1,5,-1
EndSplineSet
Validated: 33
EndChar

StartChar: uni0436
Encoding: 1078 1078 591
Width: 1577
GlyphClass: 2
Flags: W
LayerCount: 2
Fore
SplineSet
703 481 m 1,0,-1
 544 481 l 2,1,2
 474 481 474 481 430 444.5 c 128,-1,3
 386 408 386 408 380 342 c 2,4,-1
 359 145 l 2,5,6
 349 53 349 53 304 18.5 c 128,-1,7
 259 -16 259 -16 155 -16 c 0,8,9
 89 -16 89 -16 50 -6 c 1,10,-1
 50 141 l 1,11,12
 83 135 83 135 110 135 c 0,13,14
 151 135 151 135 169 147.5 c 128,-1,15
 187 160 187 160 194 207 c 2,16,-1
 210 344 l 2,17,18
 214 379 214 379 223 409.5 c 128,-1,19
 232 440 232 440 251.5 468 c 128,-1,20
 271 496 271 496 304 517.5 c 128,-1,21
 337 539 337 539 386 551 c 1,22,-1
 386 553 l 1,23,24
 247 600 247 600 230 737 c 2,25,-1
 216 854 l 2,26,27
 212 901 212 901 192.5 919.5 c 128,-1,28
 173 938 173 938 130 938 c 0,29,30
 101 938 101 938 60 932 c 1,31,-1
 60 1081 l 1,32,33
 112 1090 112 1090 173 1090 c 0,34,35
 257 1090 257 1090 307 1056 c 128,-1,36
 357 1022 357 1022 368 938 c 2,37,-1
 386 754 l 2,38,39
 394 680 394 680 437 649 c 128,-1,40
 480 618 480 618 558 618 c 2,41,-1
 703 618 l 1,42,-1
 703 1071 l 1,43,-1
 873 1071 l 1,44,-1
 873 618 l 1,45,-1
 1021 618 l 2,46,47
 1097 618 1097 618 1141 649 c 128,-1,48
 1185 680 1185 680 1193 754 c 2,49,-1
 1211 938 l 2,50,51
 1220 1022 1220 1022 1270 1056 c 128,-1,52
 1320 1090 1320 1090 1406 1090 c 0,53,54
 1467 1090 1467 1090 1517 1081 c 1,55,-1
 1517 932 l 1,56,57
 1476 938 1476 938 1447 938 c 0,58,59
 1404 938 1404 938 1385.5 919.5 c 128,-1,60
 1367 901 1367 901 1361 854 c 2,61,-1
 1347 737 l 2,62,63
 1330 600 1330 600 1193 553 c 1,64,-1
 1193 551 l 1,65,66
 1240 539 1240 539 1273 517.5 c 128,-1,67
 1306 496 1306 496 1325 468 c 128,-1,68
 1344 440 1344 440 1354.5 409.5 c 128,-1,69
 1365 379 1365 379 1367 344 c 2,70,-1
 1383 207 l 2,71,72
 1390 160 1390 160 1408 147.5 c 128,-1,73
 1426 135 1426 135 1469 135 c 0,74,75
 1494 135 1494 135 1527 141 c 1,76,-1
 1527 -6 l 1,77,78
 1488 -16 1488 -16 1424 -16 c 0,79,80
 1320 -16 1320 -16 1274 18.5 c 128,-1,81
 1228 53 1228 53 1218 145 c 2,82,-1
 1197 342 l 2,83,84
 1193 408 1193 408 1148 444.5 c 128,-1,85
 1103 481 1103 481 1033 481 c 2,86,-1
 873 481 l 1,87,-1
 873 0 l 1,88,-1
 703 0 l 1,89,-1
 703 481 l 1,0,-1
EndSplineSet
Validated: 1
EndChar

StartChar: uni0437
Encoding: 1079 1079 592
Width: 1047
GlyphClass: 2
Flags: W
LayerCount: 2
Fore
SplineSet
348 623 m 1,0,-1
 557 623 l 2,1,2
 664 623 664 623 710 657.5 c 128,-1,3
 756 692 756 692 756 772 c 0,4,5
 756 854 756 854 691.5 901 c 128,-1,6
 627 948 627 948 508 948 c 0,7,8
 397 948 397 948 334.5 899 c 128,-1,9
 272 850 272 850 262 758 c 1,10,-1
 90 758 l 1,11,12
 100 918 100 918 212 1011 c 128,-1,13
 324 1104 324 1104 524 1104 c 0,14,15
 707 1104 707 1104 822.5 1021 c 128,-1,16
 938 938 938 938 938 801 c 0,17,18
 938 645 938 645 786 567 c 1,19,-1
 786 565 l 1,20,21
 885 541 885 541 931 477.5 c 128,-1,22
 977 414 977 414 977 322 c 0,23,24
 977 160 977 160 849 65.5 c 128,-1,25
 721 -29 721 -29 514 -29 c 0,26,27
 309 -29 309 -29 191.5 57 c 128,-1,28
 74 143 74 143 59 328 c 1,29,-1
 236 328 l 1,30,31
 248 225 248 225 316.5 175 c 128,-1,32
 385 125 385 125 520 125 c 0,33,34
 649 125 649 125 720 174 c 128,-1,35
 791 223 791 223 791 309 c 0,36,37
 791 397 791 397 737.5 438 c 128,-1,38
 684 479 684 479 565 479 c 2,39,-1
 348 479 l 1,40,-1
 348 623 l 1,0,-1
EndSplineSet
Validated: 1
EndChar

StartChar: uni0438
Encoding: 1080 1080 593
Width: 1167
GlyphClass: 2
Flags: W
HStem: 0 21G<135 315 852 1032>
VStem: 135 180<0 96 330 1069> 852 180<0 750 977 1069>
LayerCount: 2
Fore
SplineSet
852 0 m 1,0,-1
 852 750 l 1,1,-1
 846 750 l 1,2,-1
 315 96 l 1,3,-1
 315 0 l 1,4,-1
 135 0 l 1,5,-1
 135 1069 l 1,6,-1
 315 1069 l 1,7,-1
 315 330 l 1,8,-1
 322 330 l 1,9,-1
 852 977 l 1,10,-1
 852 1069 l 1,11,-1
 1032 1069 l 1,12,-1
 1032 0 l 1,13,-1
 852 0 l 1,0,-1
EndSplineSet
Validated: 1
EndChar

StartChar: uni043A
Encoding: 1082 1082 595
Width: 1092
GlyphClass: 2
Flags: W
HStem: -16 151<915.482 1042> 0 21G<135 315> 473 150<315 653.708> 938 152<892.936 1032> 1051 20G<135 315>
VStem: 135 180<0 473 623 1071>
LayerCount: 2
Fore
SplineSet
315 1071 m 1,0,-1
 315 623 l 1,1,-1
 530 623 l 2,2,3
 614 623 614 623 655 657.5 c 128,-1,4
 696 692 696 692 702 754 c 2,5,-1
 723 938 l 2,6,7
 731 1022 731 1022 783.5 1056 c 128,-1,8
 836 1090 836 1090 920 1090 c 0,9,10
 981 1090 981 1090 1032 1081 c 1,11,-1
 1032 932 l 1,12,13
 991 938 991 938 963 938 c 0,14,15
 920 938 920 938 900.5 919.5 c 128,-1,16
 881 901 881 901 877 854 c 2,17,-1
 862 737 l 2,18,19
 846 600 846 600 707 553 c 1,20,-1
 707 551 l 1,21,22
 756 539 756 539 788.5 517.5 c 128,-1,23
 821 496 821 496 840.5 468 c 128,-1,24
 860 440 860 440 869.5 409.5 c 128,-1,25
 879 379 879 379 883 344 c 2,26,-1
 899 207 l 2,27,28
 905 160 905 160 923.5 147.5 c 128,-1,29
 942 135 942 135 983 135 c 0,30,31
 1010 135 1010 135 1042 141 c 1,32,-1
 1042 -6 l 1,33,34
 1004 -16 1004 -16 938 -16 c 0,35,36
 834 -16 834 -16 786.5 18.5 c 128,-1,37
 739 53 739 53 729 145 c 2,38,-1
 709 342 l 2,39,40
 702 408 702 408 658 440.5 c 128,-1,41
 614 473 614 473 545 473 c 2,42,-1
 315 473 l 1,43,-1
 315 0 l 1,44,-1
 135 0 l 1,45,-1
 135 1071 l 1,46,-1
 315 1071 l 1,0,-1
EndSplineSet
Validated: 1
EndChar

StartChar: uni043B
Encoding: 1083 1083 596
Width: 1130
GlyphClass: 2
Flags: W
LayerCount: 2
Fore
SplineSet
815 0 m 1,0,-1
 815 918 l 1,1,-1
 494 918 l 1,2,3
 467 381 467 381 352.5 177 c 128,-1,4
 238 -27 238 -27 14 -8 c 1,5,-1
 14 162 l 1,6,7
 190 150 190 150 256 374 c 128,-1,8
 322 598 322 598 340 1071 c 1,9,-1
 995 1071 l 1,10,-1
 995 0 l 1,11,-1
 815 0 l 1,0,-1
EndSplineSet
Validated: 33
EndChar

StartChar: uni043C
Encoding: 1084 1084 597
Width: 1370
GlyphClass: 2
Flags: W
LayerCount: 2
Fore
SplineSet
135 1071 m 1,0,-1
 406 1071 l 1,1,-1
 688 193 l 1,2,-1
 694 193 l 1,3,-1
 981 1071 l 1,4,-1
 1235 1071 l 1,5,-1
 1235 0 l 1,6,-1
 1063 0 l 1,7,-1
 1063 862 l 1,8,-1
 1057 862 l 1,9,-1
 771 0 l 1,10,-1
 599 0 l 1,11,-1
 313 862 l 1,12,-1
 307 862 l 1,13,-1
 307 0 l 1,14,-1
 135 0 l 1,15,-1
 135 1071 l 1,0,-1
EndSplineSet
Validated: 1
EndChar

StartChar: uni043D
Encoding: 1085 1085 598
Width: 1143
GlyphClass: 2
Flags: W
HStem: 0 21G<135 315 827 1008> 471 158<315 827> 1051 20G<135 315 827 1008>
VStem: 135 180<0 471 629 1071> 827 181<0 471 629 1071>
LayerCount: 2
Fore
SplineSet
1008 0 m 1,0,-1
 827 0 l 1,1,-1
 827 471 l 1,2,-1
 315 471 l 1,3,-1
 315 0 l 1,4,-1
 135 0 l 1,5,-1
 135 1071 l 1,6,-1
 315 1071 l 1,7,-1
 315 629 l 1,8,-1
 827 629 l 1,9,-1
 827 1071 l 1,10,-1
 1008 1071 l 1,11,-1
 1008 0 l 1,0,-1
EndSplineSet
Validated: 1
EndChar

StartChar: uni043F
Encoding: 1087 1087 600
Width: 1116
GlyphClass: 2
Flags: W
HStem: 0 21G<135 315 801 981> 913 158<315 801>
VStem: 135 180<0 913> 801 180<0 913>
LayerCount: 2
Fore
SplineSet
135 1071 m 1,0,-1
 981 1071 l 1,1,-1
 981 0 l 1,2,-1
 801 0 l 1,3,-1
 801 913 l 1,4,-1
 315 913 l 1,5,-1
 315 0 l 1,6,-1
 135 0 l 1,7,-1
 135 1071 l 1,0,-1
EndSplineSet
Validated: 1
EndChar

StartChar: uni0442
Encoding: 1090 1090 603
Width: 963
GlyphClass: 2
Flags: W
HStem: 0 21G<391 571> 909 162<20 391 571 942>
VStem: 391 180<0 909>
LayerCount: 2
Fore
SplineSet
391 909 m 1,0,-1
 20 909 l 1,1,-1
 20 1071 l 1,2,-1
 942 1071 l 1,3,-1
 942 909 l 1,4,-1
 571 909 l 1,5,-1
 571 0 l 1,6,-1
 391 0 l 1,7,-1
 391 909 l 1,0,-1
EndSplineSet
Validated: 1
EndChar

StartChar: uni0444
Encoding: 1092 1092 605
Width: 1460
GlyphClass: 2
Flags: W
LayerCount: 2
Fore
SplineSet
817 1075 m 1,0,-1
 924 1075 l 2,1,2
 1153 1075 1153 1075 1260.5 966.5 c 128,-1,3
 1368 858 1368 858 1370 580 c 2,4,-1
 1370 492 l 2,5,6
 1370 213 1370 213 1261.5 104.5 c 128,-1,7
 1153 -4 1153 -4 926 -4 c 2,8,-1
 817 -4 l 1,9,-1
 817 -406 l 1,10,-1
 641 -406 l 1,11,-1
 641 -4 l 1,12,-1
 535 -4 l 2,13,14
 305 -4 305 -4 197.5 104.5 c 128,-1,15
 90 213 90 213 90 492 c 2,16,-1
 90 580 l 2,17,18
 90 858 90 858 198.5 966.5 c 128,-1,19
 307 1075 307 1075 537 1075 c 2,20,-1
 641 1075 l 1,21,-1
 641 1450 l 1,22,-1
 817 1450 l 1,23,-1
 817 1075 l 1,0,-1
549 922 m 2,24,25
 396 922 396 922 334.5 856.5 c 128,-1,26
 273 791 273 791 273 537 c 0,27,28
 273 281 273 281 333 215.5 c 128,-1,29
 393 150 393 150 549 150 c 2,30,-1
 643 150 l 1,31,-1
 643 922 l 1,32,-1
 549 922 l 2,24,25
815 922 m 1,33,-1
 815 150 l 1,34,-1
 910 150 l 2,35,36
 1065 150 1065 150 1126.5 215.5 c 128,-1,37
 1188 281 1188 281 1188 537 c 0,38,39
 1188 791 1188 791 1126.5 856.5 c 128,-1,40
 1065 922 1065 922 910 922 c 2,41,-1
 815 922 l 1,33,-1
EndSplineSet
Validated: 1
EndChar

StartChar: uni0446
Encoding: 1094 1094 607
Width: 1142
GlyphClass: 2
Flags: W
LayerCount: 2
Fore
SplineSet
948 158 m 1,0,-1
 1102 158 l 1,1,-1
 1102 -360 l 1,2,-1
 930 -360 l 1,3,-1
 930 0 l 1,4,-1
 135 0 l 1,5,-1
 135 1071 l 1,6,-1
 315 1071 l 1,7,-1
 315 158 l 1,8,-1
 768 158 l 1,9,-1
 768 1071 l 1,10,-1
 948 1071 l 1,11,-1
 948 158 l 1,0,-1
EndSplineSet
Validated: 1
EndChar

StartChar: uni0447
Encoding: 1095 1095 608
Width: 1024
GlyphClass: 2
Flags: W
LayerCount: 2
Fore
SplineSet
709 438 m 1,0,1
 575 418 575 418 442 418 c 0,2,3
 254 418 254 418 165 493.5 c 128,-1,4
 76 569 76 569 76 737 c 2,5,-1
 76 1071 l 1,6,-1
 256 1071 l 1,7,-1
 256 776 l 2,8,9
 256 662 256 662 307 614.5 c 128,-1,10
 358 567 358 567 483 567 c 0,11,12
 614 567 614 567 709 586 c 1,13,-1
 709 1071 l 1,14,-1
 889 1071 l 1,15,-1
 889 0 l 1,16,-1
 709 0 l 1,17,-1
 709 438 l 1,0,1
EndSplineSet
Validated: 1
EndChar

StartChar: uni0448
Encoding: 1096 1096 609
Width: 1587
GlyphClass: 2
Flags: W
HStem: 0 156<309 707 881 1280> 1051 20G<135 309 707 881 1280 1452>
VStem: 135 174<156 1071> 707 174<156 1071> 1280 172<156 1071>
LayerCount: 2
Fore
SplineSet
707 1071 m 1,0,-1
 881 1071 l 1,1,-1
 881 156 l 1,2,-1
 1280 156 l 1,3,-1
 1280 1071 l 1,4,-1
 1452 1071 l 1,5,-1
 1452 0 l 1,6,-1
 135 0 l 1,7,-1
 135 1071 l 1,8,-1
 309 1071 l 1,9,-1
 309 156 l 1,10,-1
 707 156 l 1,11,-1
 707 1071 l 1,0,-1
EndSplineSet
Validated: 1
EndChar

StartChar: uni0449
Encoding: 1097 1097 610
Width: 1625
GlyphClass: 2
Flags: W
LayerCount: 2
Fore
SplineSet
696 1071 m 1,0,-1
 870 1071 l 1,1,-1
 870 156 l 1,2,-1
 1257 156 l 1,3,-1
 1257 1071 l 1,4,-1
 1434 1071 l 1,5,-1
 1434 156 l 1,6,-1
 1585 156 l 1,7,-1
 1585 -360 l 1,8,-1
 1413 -360 l 1,9,-1
 1413 0 l 1,10,-1
 135 0 l 1,11,-1
 135 1071 l 1,12,-1
 309 1071 l 1,13,-1
 309 156 l 1,14,-1
 696 156 l 1,15,-1
 696 1071 l 1,0,-1
EndSplineSet
Validated: 1
EndChar

StartChar: uni044A
Encoding: 1098 1098 611
Width: 1282
GlyphClass: 2
Flags: W
LayerCount: 2
Fore
SplineSet
571 143 m 1,0,-1
 834 143 l 2,1,2
 948 143 948 143 1004.5 195.5 c 128,-1,3
 1061 248 1061 248 1061 336 c 0,4,5
 1061 422 1061 422 1001.5 469 c 128,-1,6
 942 516 942 516 811 516 c 2,7,-1
 571 516 l 1,8,-1
 571 143 l 1,0,-1
391 913 m 1,9,-1
 20 913 l 1,10,-1
 20 1071 l 1,11,-1
 571 1071 l 1,12,-1
 571 659 l 1,13,-1
 852 659 l 2,14,15
 1044 659 1044 659 1145.5 575.5 c 128,-1,16
 1247 492 1247 492 1247 340 c 0,17,18
 1247 190 1247 190 1139.5 95 c 128,-1,19
 1032 0 1032 0 852 0 c 2,20,-1
 391 0 l 1,21,-1
 391 913 l 1,9,-1
EndSplineSet
Validated: 1
EndChar

StartChar: uni044B
Encoding: 1099 1099 612
Width: 1450
GlyphClass: 2
Flags: W
LayerCount: 2
Fore
SplineSet
315 143 m 1,0,-1
 557 143 l 2,1,2
 672 143 672 143 728 195.5 c 128,-1,3
 784 248 784 248 784 336 c 256,4,5
 784 424 784 424 725 470 c 128,-1,6
 666 516 666 516 535 516 c 2,7,-1
 315 516 l 1,8,-1
 315 143 l 1,0,-1
1315 0 m 1,9,-1
 1137 0 l 1,10,-1
 1137 1071 l 1,11,-1
 1315 1071 l 1,12,-1
 1315 0 l 1,9,-1
135 1071 m 1,13,-1
 315 1071 l 1,14,-1
 315 659 l 1,15,-1
 575 659 l 2,16,17
 768 659 768 659 869.5 575.5 c 128,-1,18
 971 492 971 492 971 340 c 0,19,20
 971 193 971 193 865.5 96.5 c 128,-1,21
 760 0 760 0 575 0 c 2,22,-1
 135 0 l 1,23,-1
 135 1071 l 1,13,-1
EndSplineSet
Validated: 1
EndChar

StartChar: uni044C
Encoding: 1100 1100 613
Width: 1036
GlyphClass: 2
Flags: W
LayerCount: 2
Fore
SplineSet
315 143 m 1,0,-1
 588 143 l 2,1,2
 702 143 702 143 758.5 195.5 c 128,-1,3
 815 248 815 248 815 336 c 0,4,5
 815 426 815 426 752.5 471 c 128,-1,6
 690 516 690 516 563 516 c 2,7,-1
 315 516 l 1,8,-1
 315 143 l 1,0,-1
315 659 m 1,9,-1
 604 659 l 2,10,11
 799 659 799 659 900 575.5 c 128,-1,12
 1001 492 1001 492 1001 340 c 0,13,14
 1001 190 1001 190 893.5 95 c 128,-1,15
 786 0 786 0 604 0 c 2,16,-1
 135 0 l 1,17,-1
 135 1071 l 1,18,-1
 315 1071 l 1,19,-1
 315 659 l 1,9,-1
EndSplineSet
Validated: 1
EndChar

StartChar: uni044D
Encoding: 1101 1101 614
Width: 1074
GlyphClass: 2
Flags: W
LayerCount: 2
Fore
SplineSet
326 629 m 1,0,-1
 808 629 l 1,1,2
 793 786 793 786 721.5 866 c 128,-1,3
 650 946 650 946 519 946 c 0,4,5
 402 946 402 946 332.5 892 c 128,-1,6
 263 838 263 838 242 735 c 1,7,-1
 70 735 l 1,8,9
 93 899 93 899 204.5 1000.5 c 128,-1,10
 316 1102 316 1102 517 1102 c 0,11,12
 740 1102 740 1102 869 956.5 c 128,-1,13
 998 811 998 811 998 547 c 0,14,15
 998 272 998 272 863 120.5 c 128,-1,16
 728 -31 728 -31 490 -31 c 0,17,18
 294 -31 294 -31 187.5 75.5 c 128,-1,19
 81 182 81 182 70 358 c 1,20,-1
 240 358 l 1,21,22
 253 244 253 244 323.5 183.5 c 128,-1,23
 394 123 394 123 502 123 c 0,24,25
 652 123 652 123 726.5 218 c 128,-1,26
 801 313 801 313 810 481 c 1,27,-1
 326 481 l 1,28,-1
 326 629 l 1,0,-1
EndSplineSet
Validated: 1
EndChar

StartChar: uni044E
Encoding: 1102 1102 615
Width: 1530
GlyphClass: 2
Flags: W
LayerCount: 2
Fore
SplineSet
694 537 m 0,0,1
 694 346 694 346 770 236.5 c 128,-1,2
 846 127 846 127 981 127 c 0,3,4
 1120 127 1120 127 1194 241.5 c 128,-1,5
 1268 356 1268 356 1268 537 c 0,6,7
 1266 719 1266 719 1193 832.5 c 128,-1,8
 1120 946 1120 946 981 946 c 256,9,10
 842 946 842 946 768 834.5 c 128,-1,11
 694 723 694 723 694 537 c 0,0,1
981 -29 m 0,12,13
 772 -29 772 -29 652 113.5 c 128,-1,14
 532 256 532 256 520 485 c 1,15,-1
 313 485 l 1,16,-1
 313 0 l 1,17,-1
 135 0 l 1,18,-1
 135 1071 l 1,19,-1
 313 1071 l 1,20,-1
 313 637 l 1,21,-1
 524 637 l 1,22,23
 545 840 545 840 663.5 971 c 128,-1,24
 782 1102 782 1102 981 1102 c 0,25,26
 1198 1102 1198 1102 1324 942 c 128,-1,27
 1450 782 1450 782 1450 537 c 0,28,29
 1450 289 1450 289 1322 130 c 128,-1,30
 1194 -29 1194 -29 981 -29 c 0,12,13
EndSplineSet
Validated: 1
EndChar

StartChar: uni044F
Encoding: 1103 1103 616
Width: 1108
GlyphClass: 2
Flags: W
LayerCount: 2
Fore
SplineSet
795 926 m 1,0,-1
 477 926 l 2,1,2
 389 926 389 926 345 883 c 128,-1,3
 301 840 301 840 301 756 c 0,4,5
 301 659 301 659 350 616 c 128,-1,6
 399 573 399 573 494 573 c 2,7,-1
 795 573 l 1,8,-1
 795 926 l 1,0,-1
973 1071 m 1,9,-1
 973 0 l 1,10,-1
 795 0 l 1,11,-1
 795 430 l 1,12,-1
 530 430 l 2,13,14
 465 430 465 430 420 400.5 c 128,-1,15
 375 371 375 371 369 307 c 2,16,-1
 350 145 l 2,17,18
 342 61 342 61 297 22.5 c 128,-1,19
 252 -16 252 -16 139 -16 c 0,20,21
 90 -16 90 -16 45 -6 c 1,22,-1
 45 139 l 1,23,24
 72 133 72 133 98 133 c 0,25,26
 143 133 143 133 160.5 149.5 c 128,-1,27
 178 166 178 166 184 219 c 2,28,-1
 195 317 l 2,29,30
 209 432 209 432 338 485 c 1,31,32
 117 547 117 547 117 766 c 0,33,34
 117 915 117 915 214 993 c 128,-1,35
 311 1071 311 1071 481 1071 c 2,36,-1
 973 1071 l 1,9,-1
EndSplineSet
Validated: 1
EndChar

StartChar: uni0491
Encoding: 1169 1169 620
Width: 811
GlyphClass: 2
Flags: W
LayerCount: 2
Fore
SplineSet
135 1071 m 1,0,-1
 629 1071 l 1,1,-1
 629 1311 l 1,2,-1
 786 1311 l 1,3,-1
 786 913 l 1,4,-1
 315 913 l 1,5,-1
 315 0 l 1,6,-1
 135 0 l 1,7,-1
 135 1071 l 1,0,-1
EndSplineSet
Validated: 1
EndChar

StartChar: uni0452
Encoding: 1106 1106 621
Width: 1151
GlyphClass: 2
Flags: W
LayerCount: 2
Fore
SplineSet
170 1470 m 1,0,-1
 350 1470 l 1,1,-1
 350 1317 l 1,2,-1
 727 1317 l 1,3,-1
 727 1204 l 1,4,-1
 350 1204 l 1,5,-1
 350 870 l 1,6,-1
 354 870 l 1,7,8
 483 1044 483 1044 670 1044 c 0,9,10
 844 1044 844 1044 944 951 c 128,-1,11
 1044 858 1044 858 1044 672 c 2,12,-1
 1044 -18 l 2,13,14
 1044 -227 1044 -227 933.5 -330.5 c 128,-1,15
 823 -434 823 -434 629 -434 c 1,16,-1
 629 -272 l 1,17,18
 748 -272 748 -272 805 -211 c 128,-1,19
 862 -150 862 -150 862 -31 c 2,20,-1
 862 641 l 2,21,22
 862 776 862 776 811 829.5 c 128,-1,23
 760 883 760 883 649 883 c 0,24,25
 514 883 514 883 432 791.5 c 128,-1,26
 350 700 350 700 350 526 c 2,27,-1
 350 0 l 1,28,-1
 170 0 l 1,29,-1
 170 1204 l 1,30,-1
 39 1204 l 1,31,-1
 39 1317 l 1,32,-1
 170 1317 l 1,33,-1
 170 1470 l 1,0,-1
EndSplineSet
Validated: 1
EndChar

StartChar: uni0454
Encoding: 1108 1108 623
Width: 1059
GlyphClass: 2
Flags: W
LayerCount: 2
Fore
SplineSet
739 481 m 1,0,-1
 262 481 l 1,1,2
 268 303 268 303 341 213 c 128,-1,3
 414 123 414 123 555 123 c 0,4,5
 672 123 672 123 745.5 189.5 c 128,-1,6
 819 256 819 256 831 358 c 1,7,-1
 1004 358 l 1,8,9
 989 197 989 197 872.5 83 c 128,-1,10
 756 -31 756 -31 557 -31 c 0,11,12
 332 -31 332 -31 204 115.5 c 128,-1,13
 76 262 76 262 76 518 c 0,14,15
 76 786 76 786 210 944 c 128,-1,16
 344 1102 344 1102 586 1102 c 0,17,18
 770 1102 770 1102 879.5 1002.5 c 128,-1,19
 989 903 989 903 997 735 c 1,20,-1
 827 735 l 1,21,22
 815 834 815 834 749.5 890 c 128,-1,23
 684 946 684 946 575 946 c 0,24,25
 432 946 432 946 356.5 862 c 128,-1,26
 281 778 281 778 266 629 c 1,27,-1
 739 629 l 1,28,-1
 739 481 l 1,0,-1
EndSplineSet
Validated: 1
EndChar

StartChar: uni0457
Encoding: 1111 1111 626
Width: 565
GlyphClass: 2
Flags: W
LayerCount: 2
Fore
SplineSet
370 0 m 1,0,-1
 190 0 l 1,1,-1
 190 1071 l 1,2,-1
 370 1071 l 1,3,-1
 370 0 l 1,0,-1
541 1262 m 1,4,-1
 357 1262 l 1,5,-1
 357 1470 l 1,6,-1
 541 1470 l 1,7,-1
 541 1262 l 1,4,-1
209 1262 m 1,8,-1
 25 1262 l 1,9,-1
 25 1470 l 1,10,-1
 209 1470 l 1,11,-1
 209 1262 l 1,8,-1
EndSplineSet
Validated: 1
EndChar

StartChar: uni0459
Encoding: 1113 1113 628
Width: 1677
GlyphClass: 2
Flags: W
LayerCount: 2
Fore
SplineSet
807 918 m 1,0,-1
 494 915 l 1,1,2
 467 381 467 381 352.5 176 c 128,-1,3
 238 -29 238 -29 14 -10 c 1,4,-1
 14 160 l 1,5,6
 190 147 190 147 256 371.5 c 128,-1,7
 322 596 322 596 340 1069 c 1,8,-1
 985 1071 l 1,9,-1
 985 659 l 1,10,-1
 1245 659 l 2,11,12
 1440 659 1440 659 1541 575.5 c 128,-1,13
 1642 492 1642 492 1642 340 c 0,14,15
 1642 190 1642 190 1533.5 95 c 128,-1,16
 1425 0 1425 0 1245 0 c 2,17,-1
 807 0 l 1,18,-1
 807 918 l 1,0,-1
985 143 m 1,19,-1
 1229 143 l 2,20,21
 1343 143 1343 143 1399.5 195.5 c 128,-1,22
 1456 248 1456 248 1456 336 c 0,23,24
 1456 426 1456 426 1391.5 471 c 128,-1,25
 1327 516 1327 516 1204 516 c 2,26,-1
 985 516 l 1,27,-1
 985 143 l 1,19,-1
EndSplineSet
Validated: 33
EndChar

StartChar: uni045A
Encoding: 1114 1114 629
Width: 1665
GlyphClass: 2
Flags: W
LayerCount: 2
Fore
SplineSet
975 143 m 1,0,-1
 1219 143 l 2,1,2
 1331 143 1331 143 1388.5 195.5 c 128,-1,3
 1446 248 1446 248 1446 336 c 0,4,5
 1446 426 1446 426 1382.5 471 c 128,-1,6
 1319 516 1319 516 1194 516 c 2,7,-1
 975 516 l 1,8,-1
 975 143 l 1,0,-1
975 659 m 1,9,-1
 1235 659 l 2,10,11
 1430 659 1430 659 1530 575.5 c 128,-1,12
 1630 492 1630 492 1630 340 c 256,13,14
 1630 188 1630 188 1521.5 94 c 128,-1,15
 1413 0 1413 0 1235 0 c 2,16,-1
 795 0 l 1,17,-1
 795 516 l 1,18,-1
 315 516 l 1,19,-1
 315 0 l 1,20,-1
 135 0 l 1,21,-1
 135 1071 l 1,22,-1
 315 1071 l 1,23,-1
 315 659 l 1,24,-1
 795 659 l 1,25,-1
 795 1071 l 1,26,-1
 975 1071 l 1,27,-1
 975 659 l 1,9,-1
EndSplineSet
Validated: 1
EndChar

StartChar: uni045F
Encoding: 1119 1119 633
Width: 1106
GlyphClass: 2
Flags: W
LayerCount: 2
Fore
SplineSet
971 0 m 1,0,-1
 639 0 l 1,1,-1
 639 -340 l 1,2,-1
 467 -340 l 1,3,-1
 467 0 l 1,4,-1
 135 0 l 1,5,-1
 135 1071 l 1,6,-1
 315 1071 l 1,7,-1
 315 158 l 1,8,-1
 791 158 l 1,9,-1
 791 1071 l 1,10,-1
 971 1071 l 1,11,-1
 971 0 l 1,0,-1
EndSplineSet
Validated: 1
EndChar

StartChar: uni04D9
Encoding: 1241 1241 634
Width: 1135
GlyphClass: 2
Flags: W
LayerCount: 2
Fore
SplineSet
268 444 m 1,0,1
 270 315 270 315 345 224 c 128,-1,2
 420 133 420 133 555 133 c 0,3,4
 682 133 682 133 770 220 c 128,-1,5
 858 307 858 307 862 444 c 1,6,-1
 268 444 l 1,0,1
94 739 m 1,7,8
 133 903 133 903 245.5 1002.5 c 128,-1,9
 358 1102 358 1102 561 1102 c 0,10,11
 795 1102 795 1102 924 954.5 c 128,-1,12
 1053 807 1053 807 1053 565 c 0,13,14
 1053 293 1053 293 917.5 132 c 128,-1,15
 782 -29 782 -29 543 -29 c 0,16,17
 301 -29 301 -29 189.5 132 c 128,-1,18
 78 293 78 293 78 590 c 1,19,-1
 862 590 l 1,20,21
 862 758 862 758 786.5 851 c 128,-1,22
 711 944 711 944 559 944 c 0,23,24
 444 944 444 944 371.5 891 c 128,-1,25
 299 838 299 838 274 739 c 1,26,-1
 94 739 l 1,7,8
EndSplineSet
Validated: 1
EndChar

StartChar: uni0463
Encoding: 1123 1123 635
Width: 1206
GlyphClass: 2
Flags: W
LayerCount: 2
Fore
SplineSet
475 143 m 1,0,-1
 754 143 l 2,1,2
 866 143 866 143 923.5 192.5 c 128,-1,3
 981 242 981 242 981 326 c 0,4,5
 981 406 981 406 921.5 450 c 128,-1,6
 862 494 862 494 729 494 c 2,7,-1
 475 494 l 1,8,-1
 475 143 l 1,0,-1
20 1071 m 1,9,-1
 299 1071 l 1,10,-1
 299 1470 l 1,11,-1
 475 1470 l 1,12,-1
 475 1071 l 1,13,-1
 780 1071 l 1,14,-1
 780 918 l 1,15,-1
 475 918 l 1,16,-1
 475 639 l 1,17,-1
 770 639 l 2,18,19
 965 639 965 639 1065 557 c 128,-1,20
 1165 475 1165 475 1165 328 c 0,21,22
 1165 184 1165 184 1058.5 92 c 128,-1,23
 952 0 952 0 770 0 c 2,24,-1
 299 0 l 1,25,-1
 299 918 l 1,26,-1
 20 918 l 1,27,-1
 20 1071 l 1,9,-1
EndSplineSet
Validated: 1
EndChar

StartChar: uni0473
Encoding: 1139 1139 636
Width: 1155
GlyphClass: 2
Flags: W
LayerCount: 2
Fore
SplineSet
887 610 m 1,0,1
 872 760 872 760 793.5 854 c 128,-1,2
 715 948 715 948 578 948 c 0,3,4
 442 948 442 948 360.5 854 c 128,-1,5
 279 760 279 760 266 610 c 1,6,-1
 887 610 l 1,7,-1
 887 610 l 1,0,1
266 467 m 1,8,9
 279 315 279 315 360.5 220 c 128,-1,10
 442 125 442 125 578 125 c 0,11,12
 715 125 715 125 794.5 219 c 128,-1,13
 874 313 874 313 889 467 c 1,14,-1
 266 467 l 1,8,9
80 537 m 0,15,16
 80 786 80 786 212 944 c 128,-1,17
 344 1102 344 1102 578 1102 c 0,18,19
 807 1102 807 1102 941 943 c 128,-1,20
 1075 784 1075 784 1075 537 c 0,21,22
 1075 287 1075 287 941 129 c 128,-1,23
 807 -29 807 -29 578 -29 c 0,24,25
 346 -29 346 -29 213 130 c 128,-1,26
 80 289 80 289 80 537 c 0,15,16
EndSplineSet
Validated: 5
EndChar

StartChar: uni0475
Encoding: 1141 1141 637
Width: 1051
GlyphClass: 2
Flags: W
LayerCount: 2
Fore
SplineSet
12 1071 m 1,0,-1
 221 1071 l 1,1,-1
 500 199 l 1,2,-1
 504 199 l 1,3,-1
 725 903 l 2,4,5
 756 999 756 999 807 1044.5 c 128,-1,6
 858 1090 858 1090 938 1090 c 0,7,8
 985 1090 985 1090 1036 1081 c 1,9,-1
 1036 930 l 1,10,11
 1014 934 1014 934 987 934 c 0,12,13
 948 934 948 934 923.5 905.5 c 128,-1,14
 899 877 899 877 874 803 c 2,15,-1
 594 0 l 1,16,-1
 403 0 l 1,17,-1
 12 1071 l 1,0,-1
EndSplineSet
Validated: 1
EndChar

StartChar: uni0431.SRB
Encoding: 65569 -1 638
Width: 1145
GlyphClass: 2
Flags: W
LayerCount: 2
Fore
SplineSet
606 893 m 1,0,1
 262 778 262 778 262 481 c 0,2,3
 262 330 262 330 349 228.5 c 128,-1,4
 436 127 436 127 571 127 c 0,5,6
 715 127 715 127 800 234.5 c 128,-1,7
 885 342 885 342 885 496 c 0,8,9
 885 614 885 614 826.5 704.5 c 128,-1,10
 768 795 768 795 606 893 c 1,0,1
952 1319 m 1,11,-1
 555 1319 l 2,12,13
 434 1319 434 1319 434 1260 c 0,14,15
 434 1231 434 1231 458.5 1205.5 c 128,-1,16
 483 1180 483 1180 561 1128 c 2,17,-1
 762 1001 l 2,18,19
 940 885 940 885 1004.5 769 c 128,-1,20
 1069 653 1069 653 1069 510 c 0,21,22
 1069 276 1069 276 930 122.5 c 128,-1,23
 791 -31 791 -31 567 -31 c 0,24,25
 352 -31 352 -31 214 114.5 c 128,-1,26
 76 260 76 260 76 469 c 0,27,28
 76 651 76 651 185.5 790.5 c 128,-1,29
 295 930 295 930 467 987 c 1,30,31
 369 1053 369 1053 313.5 1117.5 c 128,-1,32
 258 1182 258 1182 258 1262 c 0,33,34
 258 1360 258 1360 340 1415 c 128,-1,35
 422 1470 422 1470 561 1470 c 2,36,-1
 952 1470 l 1,37,-1
 952 1319 l 1,11,-1
EndSplineSet
Validated: 1
EndChar

StartChar: grave
Encoding: 96 96 639
Width: 680
GlyphClass: 2
Flags: W
LayerCount: 2
Fore
SplineSet
68 1503 m 1,0,-1
 281 1503 l 1,1,-1
 428 1214 l 1,2,-1
 291 1214 l 1,3,-1
 68 1503 l 1,0,-1
EndSplineSet
Validated: 1
EndChar

StartChar: acute
Encoding: 180 180 640
Width: 680
GlyphClass: 2
Flags: W
LayerCount: 2
Fore
SplineSet
387 1214 m 1,0,-1
 252 1214 l 1,1,-1
 397 1503 l 1,2,-1
 612 1503 l 1,3,-1
 387 1214 l 1,0,-1
EndSplineSet
Validated: 1
EndChar

StartChar: circumflex
Encoding: 710 710 641
Width: 680
GlyphClass: 2
Flags: W
LayerCount: 2
Fore
SplineSet
205 1214 m 1,0,-1
 43 1214 l 1,1,-1
 246 1503 l 1,2,-1
 436 1503 l 1,3,-1
 639 1214 l 1,4,-1
 475 1214 l 1,5,-1
 340 1405 l 1,6,-1
 205 1214 l 1,0,-1
EndSplineSet
Validated: 1
EndChar

StartChar: caron
Encoding: 711 711 642
Width: 680
GlyphClass: 2
Flags: W
LayerCount: 2
Fore
SplineSet
340 1313 m 1,0,-1
 475 1503 l 1,1,-1
 639 1503 l 1,2,-1
 436 1214 l 1,3,-1
 246 1214 l 1,4,-1
 43 1503 l 1,5,-1
 205 1503 l 1,6,-1
 340 1313 l 1,0,-1
EndSplineSet
Validated: 1
EndChar

StartChar: uni02BC
Encoding: 700 700 643
Width: 680
GlyphClass: 2
Flags: W
LayerCount: 2
Fore
SplineSet
240 1167 m 1,0,1
 346 1188 346 1188 340 1292 c 1,2,-1
 252 1292 l 1,3,-1
 252 1470 l 1,4,-1
 428 1470 l 1,5,-1
 428 1292 l 2,6,7
 428 1204 428 1204 378 1152 c 128,-1,8
 328 1100 328 1100 240 1096 c 1,9,-1
 240 1167 l 1,0,1
EndSplineSet
Validated: 33
EndChar

StartChar: tilde
Encoding: 732 732 644
Width: 680
GlyphClass: 2
Flags: W
LayerCount: 2
Fore
SplineSet
698 1479 m 1,0,1
 686 1374 686 1374 630.5 1314.5 c 128,-1,2
 575 1255 575 1255 494 1255 c 0,3,4
 457 1255 457 1255 391 1276 c 2,5,-1
 291 1311 l 2,6,7
 227 1331 227 1331 195 1331 c 0,8,9
 121 1331 121 1331 98 1241 c 1,10,-1
 0 1241 l 1,11,12
 16 1350 16 1350 70.5 1405 c 128,-1,13
 125 1460 125 1460 213 1460 c 0,14,15
 268 1460 268 1460 317 1442 c 2,16,-1
 428 1401 l 2,17,18
 475 1384 475 1384 498 1384 c 0,19,20
 582 1384 582 1384 598 1479 c 1,21,-1
 698 1479 l 1,0,1
EndSplineSet
Validated: 1
EndChar

StartChar: dieresis
Encoding: 168 168 645
Width: 680
GlyphClass: 2
Flags: W
LayerCount: 2
Fore
SplineSet
598 1262 m 1,0,-1
 414 1262 l 1,1,-1
 414 1470 l 1,2,-1
 598 1470 l 1,3,-1
 598 1262 l 1,0,-1
266 1262 m 1,4,-1
 82 1262 l 1,5,-1
 82 1470 l 1,6,-1
 266 1470 l 1,7,-1
 266 1262 l 1,4,-1
EndSplineSet
Validated: 1
EndChar

StartChar: macron
Encoding: 175 175 646
AltUni2: 0002c9.ffffffff.0
Width: 680
GlyphClass: 2
Flags: W
LayerCount: 2
Fore
SplineSet
662 1274 m 1,0,-1
 18 1274 l 1,1,-1
 18 1391 l 1,2,-1
 662 1391 l 1,3,-1
 662 1274 l 1,0,-1
EndSplineSet
Validated: 1
EndChar

StartChar: breve
Encoding: 728 728 647
Width: 680
GlyphClass: 2
Flags: W
LayerCount: 2
Fore
SplineSet
33 1497 m 1,0,-1
 133 1497 l 1,1,2
 166 1335 166 1335 342 1335 c 256,3,4
 518 1335 518 1335 551 1497 c 1,5,-1
 651 1497 l 1,6,7
 637 1219 637 1219 342 1219 c 256,8,9
 47 1219 47 1219 33 1497 c 1,0,-1
EndSplineSet
Validated: 1
EndChar

StartChar: ring
Encoding: 730 730 648
Width: 680
GlyphClass: 2
Flags: W
LayerCount: 2
Fore
SplineSet
233 1360 m 256,0,1
 233 1315 233 1315 264 1284 c 128,-1,2
 295 1253 295 1253 340 1253 c 0,3,4
 383 1253 383 1253 414.5 1284 c 128,-1,5
 446 1315 446 1315 446 1360 c 256,6,7
 446 1405 446 1405 414.5 1435.5 c 128,-1,8
 383 1466 383 1466 340 1466 c 0,9,10
 295 1466 295 1466 264 1435.5 c 128,-1,11
 233 1405 233 1405 233 1360 c 256,0,1
340 1548 m 0,12,13
 426 1548 426 1548 477 1492 c 128,-1,14
 528 1436 528 1436 528 1360 c 0,15,16
 528 1282 528 1282 477 1226.5 c 128,-1,17
 426 1171 426 1171 340 1171 c 0,18,19
 252 1171 252 1171 202 1226.5 c 128,-1,20
 152 1282 152 1282 152 1360 c 0,21,22
 152 1436 152 1436 202 1492 c 128,-1,23
 252 1548 252 1548 340 1548 c 0,12,13
EndSplineSet
Validated: 1
EndChar

StartChar: hungarumlaut
Encoding: 733 733 649
Width: 680
GlyphClass: 2
Flags: W
LayerCount: 2
Fore
SplineSet
414 1214 m 1,0,-1
 520 1503 l 1,1,-1
 705 1503 l 1,2,-1
 512 1214 l 1,3,-1
 414 1214 l 1,0,-1
133 1214 m 1,4,-1
 242 1503 l 1,5,-1
 426 1503 l 1,6,-1
 233 1214 l 1,7,-1
 133 1214 l 1,4,-1
EndSplineSet
Validated: 1
EndChar

StartChar: dotaccent
Encoding: 729 729 650
Width: 680
GlyphClass: 2
Flags: W
LayerCount: 2
Fore
SplineSet
250 1266 m 1,0,-1
 250 1470 l 1,1,-1
 430 1470 l 1,2,-1
 430 1266 l 1,3,-1
 250 1266 l 1,0,-1
EndSplineSet
Validated: 1
EndChar

StartChar: cedilla
Encoding: 184 184 651
Width: 680
GlyphClass: 2
Flags: W
LayerCount: 2
Fore
SplineSet
393 0 m 1,0,-1
 299 -127 l 1,1,2
 336 -119 336 -119 362 -119 c 0,3,4
 444 -119 444 -119 489.5 -162 c 128,-1,5
 535 -205 535 -205 535 -272 c 0,6,7
 535 -352 535 -352 471.5 -406.5 c 128,-1,8
 408 -461 408 -461 295 -461 c 0,9,10
 199 -461 199 -461 96 -416 c 1,11,-1
 131 -334 l 1,12,13
 170 -348 170 -348 198.5 -356.5 c 128,-1,14
 227 -365 227 -365 264 -365 c 0,15,16
 315 -365 315 -365 348 -343.5 c 128,-1,17
 381 -322 381 -322 381 -279 c 0,18,19
 381 -242 381 -242 350 -220.5 c 128,-1,20
 319 -199 319 -199 281 -199 c 0,21,22
 254 -199 254 -199 203 -215 c 1,23,-1
 168 -176 l 1,24,-1
 299 0 l 1,25,-1
 393 0 l 1,0,-1
EndSplineSet
Validated: 1
EndChar

StartChar: ogonek
Encoding: 731 731 652
Width: 680
GlyphClass: 2
Flags: W
LayerCount: 2
Fore
SplineSet
446 0 m 1,0,1
 369 -12 369 -12 321.5 -66.5 c 128,-1,2
 274 -121 274 -121 274 -180 c 0,3,4
 274 -223 274 -223 298 -249.5 c 128,-1,5
 322 -276 322 -276 365 -276 c 0,6,7
 406 -276 406 -276 449 -256 c 1,8,-1
 449 -385 l 1,9,10
 389 -414 389 -414 315 -414 c 0,11,12
 223 -414 223 -414 168 -365.5 c 128,-1,13
 113 -317 113 -317 113 -231 c 0,14,15
 113 -82 113 -82 293 27 c 1,16,-1
 446 0 l 1,0,1
EndSplineSet
Validated: 1
EndChar

StartChar: uni0326
Encoding: 806 806 653
Width: 680
GlyphClass: 2
Flags: W
LayerCount: 2
Fore
SplineSet
240 -412 m 1,0,1
 346 -389 346 -389 340 -287 c 1,2,-1
 252 -287 l 1,3,-1
 252 -109 l 1,4,-1
 428 -109 l 1,5,-1
 428 -287 l 2,6,7
 428 -373 428 -373 378 -425 c 128,-1,8
 328 -477 328 -477 240 -481 c 1,9,-1
 240 -412 l 1,0,1
EndSplineSet
Validated: 33
EndChar

StartChar: uni0326.alt
Encoding: 65570 -1 654
Width: 680
GlyphClass: 2
Flags: W
LayerCount: 2
Fore
SplineSet
440 1503 m 1,0,1
 334 1483 334 1483 340 1378 c 1,2,-1
 428 1378 l 1,3,-1
 428 1200 l 1,4,-1
 252 1200 l 1,5,-1
 252 1378 l 2,6,7
 252 1466 252 1466 302 1518.5 c 128,-1,8
 352 1571 352 1571 440 1575 c 1,9,-1
 440 1503 l 1,0,1
EndSplineSet
Validated: 33
EndChar

StartChar: gravecomb
Encoding: 768 768 655
Width: 0
GlyphClass: 4
Flags: W
LayerCount: 2
Fore
SplineSet
-263 1503 m 1,0,-1
 -60 1503 l 1,1,-1
 87 1214 l 1,2,-1
 -40 1214 l 1,3,-1
 -263 1503 l 1,0,-1
EndSplineSet
Validated: 1
EndChar

StartChar: acutecomb
Encoding: 769 769 656
Width: 0
GlyphClass: 4
Flags: W
LayerCount: 2
Fore
SplineSet
40 1214 m 1,0,-1
 -85 1214 l 1,1,-1
 60 1503 l 1,2,-1
 265 1503 l 1,3,-1
 40 1214 l 1,0,-1
EndSplineSet
Validated: 1
EndChar

StartChar: tildecomb
Encoding: 771 771 657
Width: 0
GlyphClass: 4
Flags: W
LayerCount: 2
Fore
SplineSet
359 1479 m 1,0,1
 347 1374 347 1374 291.5 1314.5 c 128,-1,2
 236 1255 236 1255 155 1255 c 0,3,4
 118 1255 118 1255 52 1276 c 2,5,-1
 -48 1311 l 2,6,7
 -112 1331 -112 1331 -144 1331 c 0,8,9
 -218 1331 -218 1331 -241 1241 c 1,10,-1
 -339 1241 l 1,11,12
 -323 1350 -323 1350 -268.5 1405 c 128,-1,13
 -214 1460 -214 1460 -126 1460 c 0,14,15
 -71 1460 -71 1460 -22 1442 c 2,16,-1
 89 1401 l 2,17,18
 136 1384 136 1384 159 1384 c 0,19,20
 243 1384 243 1384 259 1479 c 1,21,-1
 359 1479 l 1,0,1
EndSplineSet
Validated: 1
EndChar

StartChar: hookabovecomb
Encoding: 777 777 658
Width: 0
GlyphClass: 4
Flags: W
LayerCount: 2
Fore
SplineSet
52 1211 m 1,0,-1
 -62 1211 l 1,1,2
 -62 1246 -62 1246 -46 1269 c 128,-1,3
 -30 1292 -30 1292 7 1312 c 0,4,5
 41 1330 41 1330 62 1346 c 128,-1,6
 83 1362 83 1362 83 1395 c 0,7,8
 83 1433 83 1433 58.5 1452 c 128,-1,9
 34 1471 34 1471 2 1471 c 0,10,11
 -34 1471 -34 1471 -59 1450 c 128,-1,12
 -84 1429 -84 1429 -89 1388 c 1,13,-1
 -200 1388 l 1,14,15
 -200 1474 -200 1474 -139.5 1522 c 128,-1,16
 -79 1570 -79 1570 5 1570 c 0,17,18
 90 1570 90 1570 145.5 1524 c 128,-1,19
 201 1478 201 1478 201 1399 c 0,20,21
 201 1360 201 1360 183 1330.5 c 128,-1,22
 165 1301 165 1301 122 1273 c 0,23,24
 89 1251 89 1251 71.5 1239 c 128,-1,25
 54 1227 54 1227 52 1211 c 1,0,-1
EndSplineSet
Validated: 1
EndChar

StartChar: dotbelowcomb
Encoding: 803 803 659
Width: 0
GlyphClass: 4
Flags: W
LayerCount: 2
Fore
SplineSet
-90 -399 m 1,0,-1
 -90 -195 l 1,1,-1
 90 -195 l 1,2,-1
 90 -399 l 1,3,-1
 -90 -399 l 1,0,-1
EndSplineSet
Validated: 1
EndChar

StartChar: tonos
Encoding: 900 900 660
Width: 680
GlyphClass: 2
Flags: W
LayerCount: 2
Fore
SplineSet
395 1194 m 1,0,-1
 264 1194 l 1,1,-1
 322 1520 l 1,2,-1
 541 1520 l 1,3,-1
 395 1194 l 1,0,-1
EndSplineSet
Validated: 1
EndChar

StartChar: dieresistonos
Encoding: 901 901 661
Width: 680
GlyphClass: 2
Flags: W
LayerCount: 2
Fore
SplineSet
698 1266 m 1,0,-1
 518 1266 l 1,1,-1
 518 1450 l 1,2,-1
 698 1450 l 1,3,-1
 698 1266 l 1,0,-1
162 1266 m 1,4,-1
 -18 1266 l 1,5,-1
 -18 1450 l 1,6,-1
 162 1450 l 1,7,-1
 162 1266 l 1,4,-1
365 1214 m 1,8,-1
 256 1214 l 1,9,-1
 270 1509 l 1,10,-1
 457 1509 l 1,11,-1
 365 1214 l 1,8,-1
EndSplineSet
Validated: 1
EndChar

StartChar: cyrbreve
Encoding: 63188 63188 662
Width: 680
GlyphClass: 2
Flags: W
LayerCount: 2
Fore
SplineSet
-16 1516 m 1,0,-1
 143 1516 l 1,1,2
 164 1432 164 1432 210 1391 c 128,-1,3
 256 1350 256 1350 342 1350 c 0,4,5
 426 1350 426 1350 472 1391 c 128,-1,6
 518 1432 518 1432 539 1516 c 1,7,-1
 698 1516 l 1,8,9
 680 1382 680 1382 588 1293 c 128,-1,10
 496 1204 496 1204 342 1204 c 0,11,12
 186 1204 186 1204 94 1293 c 128,-1,13
 2 1382 2 1382 -16 1516 c 1,0,-1
EndSplineSet
Validated: 1
EndChar

StartChar: asciicircum
Encoding: 94 94 663
AltUni2: 002038.ffffffff.0
Width: 961
GlyphClass: 2
Flags: W
LayerCount: 2
Fore
SplineSet
831 541 m 1,0,-1
 481 1245 l 1,1,-1
 131 541 l 1,2,-1
 -29 541 l 1,3,-1
 408 1409 l 1,4,-1
 555 1409 l 1,5,-1
 989 541 l 1,6,-1
 831 541 l 1,0,-1
EndSplineSet
Validated: 1
EndChar

StartChar: asciitilde
Encoding: 126 126 664
Width: 1200
GlyphClass: 2
Flags: W
LayerCount: 2
Fore
SplineSet
1145 545 m 1,0,1
 1047 360 1047 360 852 360 c 0,2,3
 754 360 754 360 600 428 c 0,4,5
 514 467 514 467 461 488.5 c 128,-1,6
 408 510 408 510 338 510 c 0,7,8
 209 510 209 510 137 356 c 1,9,-1
 53 473 l 1,10,11
 154 657 154 657 346 657 c 0,12,13
 444 657 444 657 598 590 c 0,14,15
 680 553 680 553 734 531.5 c 128,-1,16
 788 510 788 510 862 510 c 0,17,18
 987 510 987 510 1063 662 c 1,19,-1
 1145 545 l 1,0,1
EndSplineSet
Validated: 1
EndChar

StartChar: brokenbar
Encoding: 166 166 665
Width: 532
GlyphClass: 2
Flags: W
LayerCount: 2
Fore
SplineSet
193 1509 m 1,0,-1
 342 1509 l 1,1,-1
 342 942 l 1,2,-1
 193 942 l 1,3,-1
 193 1509 l 1,0,-1
193 563 m 1,4,-1
 342 563 l 1,5,-1
 342 -39 l 1,6,-1
 193 -39 l 1,7,-1
 193 563 l 1,4,-1
EndSplineSet
Validated: 1
EndChar

StartChar: backslash
Encoding: 92 92 666
Width: 569
GlyphClass: 2
Flags: W
LayerCount: 2
Fore
SplineSet
-35 1509 m 1,0,-1
 100 1509 l 1,1,-1
 604 -39 l 1,2,-1
 467 -39 l 1,3,-1
 -35 1509 l 1,0,-1
EndSplineSet
Validated: 1
EndChar

StartChar: copyright
Encoding: 169 169 667
Width: 1769
GlyphClass: 2
Flags: W
LayerCount: 2
Fore
SplineSet
1294 592 m 1,0,1
 1268 446 1268 446 1163.5 354 c 128,-1,2
 1059 262 1059 262 913 262 c 0,3,4
 713 262 713 262 585 396 c 128,-1,5
 457 530 457 530 457 739 c 0,6,7
 457 950 457 950 583 1082 c 128,-1,8
 709 1214 709 1214 905 1212 c 0,9,10
 1053 1212 1053 1212 1160.5 1130.5 c 128,-1,11
 1268 1049 1268 1049 1292 891 c 1,12,-1
 1155 891 l 1,13,14
 1137 973 1137 973 1071.5 1025 c 128,-1,15
 1006 1077 1006 1077 907 1077 c 0,16,17
 776 1077 776 1077 694 987 c 128,-1,18
 612 897 612 897 612 741 c 0,19,20
 612 592 612 592 697 494.5 c 128,-1,21
 782 397 782 397 913 397 c 0,22,23
 1006 397 1006 397 1072.5 449.5 c 128,-1,24
 1139 502 1139 502 1155 592 c 1,25,-1
 1294 592 l 1,0,1
256 737 m 0,26,27
 256 469 256 469 436 279.5 c 128,-1,28
 616 90 616 90 887 90 c 0,29,30
 1157 90 1157 90 1335 278.5 c 128,-1,31
 1513 467 1513 467 1513 737 c 0,32,33
 1513 1008 1513 1008 1335 1194 c 128,-1,34
 1157 1380 1157 1380 887 1380 c 0,35,36
 616 1380 616 1380 436 1194 c 128,-1,37
 256 1008 256 1008 256 737 c 0,26,27
887 -39 m 0,38,39
 563 -39 563 -39 331.5 186.5 c 128,-1,40
 100 412 100 412 100 737 c 0,41,42
 100 1063 100 1063 330.5 1286 c 128,-1,43
 561 1509 561 1509 887 1509 c 0,44,45
 1212 1509 1212 1509 1440.5 1286 c 128,-1,46
 1669 1063 1669 1063 1669 737 c 0,47,48
 1669 410 1669 410 1440.5 185.5 c 128,-1,49
 1212 -39 1212 -39 887 -39 c 0,38,39
EndSplineSet
Validated: 33
EndChar

